<svg width="22" height="22" viewBox="0 0 22 22" fill="none" xmlns="http://www.w3.org/2000/svg">
<path d="M14.6457 13.5582L12.8731 15.7707C10.1284 14.158 7.84056 11.8714 6.22623 9.1276L8.44211 7.35498C8.70173 7.14704 8.8852 6.859 8.96389 6.53582C9.04259 6.21264 9.01207 5.87249 8.87711 5.56848L6.85736 1.0201C6.71252 0.693878 6.45654 0.429682 6.13506 0.274605C5.81357 0.119527 5.44746 0.0836455 5.10198 0.173354L1.25673 1.17085C0.898033 1.26465 0.586179 1.48673 0.38023 1.79503C0.174282 2.10333 0.0885368 2.47645 0.139234 2.84373C0.814004 7.64868 3.03472 12.1033 6.46567 15.5343C9.89662 18.9652 14.3513 21.186 19.1562 21.8607C19.5235 21.9115 19.8967 21.8258 20.205 21.6198C20.5133 21.4139 20.7354 21.102 20.8291 20.7432L21.8266 16.8984C21.9161 16.5529 21.8802 16.1868 21.7252 15.8653C21.5703 15.5439 21.3063 15.2878 20.9802 15.1426L16.4326 13.1229C16.1285 12.9877 15.7882 12.9571 15.4649 13.0359C15.1416 13.1147 14.8536 13.2984 14.6457 13.5582Z" fill="#1D4175"/>
<path d="M12.5 5C15.125 5 17 7.25 17 9.5" stroke="#DE6D2E" stroke-linecap="round" stroke-linejoin="round"/>
<path d="M12.5 0.5C17.375 0.5 21.5 4.625 21.5 9.5" stroke="#DE6D2E" stroke-linecap="round" stroke-linejoin="round"/>
</svg>
