<svg width="120" height="120" viewBox="0 0 120 120" fill="none" xmlns="http://www.w3.org/2000/svg">
<path d="M119.5 60C119.5 92.8609 92.8609 119.5 60 119.5C27.1391 119.5 0.5 92.8609 0.5 60C0.5 27.1391 27.1391 0.5 60 0.5C92.8609 0.5 119.5 27.1391 119.5 60Z" stroke="#EDF1F7"/>
<mask id="mask0" mask-type="alpha" maskUnits="userSpaceOnUse" x="0" y="0" width="120" height="120">
<path d="M60 120C93.1371 120 120 93.1371 120 60C120 26.8629 93.1371 0 60 0C26.8629 0 0 26.8629 0 60C0 93.1371 26.8629 120 60 120Z" fill="#B0CEE8"/>
</mask>
<g mask="url(#mask0)">
<g opacity="0.15">
<path opacity="0.56" d="M60 120C93.1371 120 120 93.1368 120 59.9998C120 26.8627 93.1371 -0.000244141 60 -0.000244141C26.8629 -0.000244141 0 26.8627 0 59.9998C0 93.1368 26.8629 120 60 120Z" fill="#B0CEE8"/>
</g>
<g opacity="0.3">
<path opacity="0.56" d="M49.0275 95.9813C49.0275 95.9813 16.1609 96.2506 10.7657 96.2506C3.98637 89.4713 0.973907 68.6434 25.9527 73.7693C50.9303 78.8953 55.9165 94.2843 49.0275 95.9813Z" fill="#93B7DB"/>
</g>
<g opacity="0.3">
<path opacity="0.48" d="M38.8737 96.3418C35.3974 91.3879 30.6618 89.954 25.6493 88.4366C19.5159 86.58 13.1717 84.6598 9.43359 75.7308L9.72661 75.6086C13.4087 84.3992 19.678 86.2969 25.7416 88.1323C30.5857 89.5987 35.5944 91.1149 39.1343 96.1585L38.8737 96.3418Z" fill="#7B99BB"/>
</g>
<g opacity="0.3">
<path opacity="0.64" d="M56.7443 96.404C66.4638 81.9663 64.5461 70.4576 54.8827 66.495C46.0124 62.8579 46.6683 56.0125 42.0785 50.4501C30.2468 36.1122 21.475 38.7494 17.7668 48.7706C13.5573 60.1459 21.874 67.1771 20.3491 76.2294C18.7555 85.6858 28.8703 96.404 32.0012 96.404C39.3191 96.404 56.7443 96.404 56.7443 96.404Z" fill="#73A3D3"/>
</g>
<g opacity="0.3">
<path opacity="0.48" d="M44.5565 96.4565L44.2535 96.3605C46.7547 88.4378 43.6001 74.8418 36.3532 70.2669C27.6836 64.7956 26.2759 52.1148 25.2497 42.8555L25.1113 41.6123L25.4268 41.5762L25.5652 42.8193C26.5851 52.0138 27.9829 64.6073 36.5228 69.9976C43.8819 74.6435 47.0914 88.429 44.5565 96.4565Z" fill="#7B99BB"/>
</g>
<g opacity="0.48">
<path opacity="0.3" d="M9.08149 68.9364C9.35626 68.9364 9.579 68.7137 9.579 68.4389C9.579 68.1641 9.35626 67.9414 9.08149 67.9414C8.80673 67.9414 8.58398 68.1641 8.58398 68.4389C8.58398 68.7137 8.80673 68.9364 9.08149 68.9364Z" fill="#93B7DB"/>
</g>
<g opacity="0.3">
<path opacity="0.3" d="M41.3784 42.0934C41.6531 42.0934 41.8759 41.8707 41.8759 41.5959C41.8759 41.3211 41.6531 41.0984 41.3784 41.0984C41.1036 41.0984 40.8809 41.3211 40.8809 41.5959C40.8809 41.8707 41.1036 42.0934 41.3784 42.0934Z" fill="#93B7DB"/>
</g>
<g opacity="0.48">
<path opacity="0.3" d="M9.57954 45.6496C9.8543 45.6496 10.077 45.4268 10.077 45.152C10.077 44.8773 9.8543 44.6545 9.57954 44.6545C9.30477 44.6545 9.08203 44.8773 9.08203 45.152C9.08203 45.4268 9.30477 45.6496 9.57954 45.6496Z" fill="#93B7DB"/>
</g>
<g opacity="0.48">
<path opacity="0.3" d="M13.1566 47.3715C13.7695 47.3715 14.2663 46.8747 14.2663 46.2618C14.2663 45.6489 13.7695 45.1521 13.1566 45.1521C12.5437 45.1521 12.0469 45.6489 12.0469 46.2618C12.0469 46.8747 12.5437 47.3715 13.1566 47.3715Z" fill="#93B7DB"/>
</g>
<g opacity="0.48">
<path opacity="0.3" d="M36.4066 33.591C37.0195 33.591 37.5163 33.0942 37.5163 32.4813C37.5163 31.8684 37.0195 31.3716 36.4066 31.3716C35.7937 31.3716 35.2969 31.8684 35.2969 32.4813C35.2969 33.0942 35.7937 33.591 36.4066 33.591Z" fill="#93B7DB"/>
</g>
<g opacity="0.48">
<path opacity="0.3" d="M14.266 71.5686C14.8789 71.5686 15.3757 71.0717 15.3757 70.4589C15.3757 69.846 14.8789 69.3491 14.266 69.3491C13.6531 69.3491 13.1562 69.846 13.1562 70.4589C13.1562 71.0717 13.6531 71.5686 14.266 71.5686Z" fill="#93B7DB"/>
</g>
<path d="M47.7285 97.9812V44.5498H125.651V97.9812" fill="#102E4F"/>
<path d="M127.979 97.9813H123.323V46.879H50.0563V97.9813H45.4004V42.2219H127.979V97.9813Z" fill="#265B97"/>
<path d="M125.651 18.2246H47.7285V44.5513H125.651V18.2246Z" fill="#3176B6"/>
<path d="M127.979 46.8791H45.4004V15.8953H127.98V46.8791H127.979ZM50.0563 42.2219H123.322V20.5524H50.0563V42.2219Z" fill="#265B97"/>
<path d="M125.651 40.313H47.7285V41.1596H125.651V40.313Z" fill="#265B97"/>
<path d="M125.651 36.5725H47.7285V37.4191H125.651V36.5725Z" fill="#265B97"/>
<path d="M125.651 32.8342H47.7285V33.6809H125.651V32.8342Z" fill="#265B97"/>
<path d="M125.651 29.0935H47.7285V29.9401H125.651V29.0935Z" fill="#265B97"/>
<path d="M125.651 25.3542H47.7285V26.2009H125.651V25.3542Z" fill="#265B97"/>
<path d="M125.651 21.6147H47.7285V22.4614H125.651V21.6147Z" fill="#265B97"/>
<path d="M111.401 -14.4727H0.728516V18.2231H111.401V-14.4727Z" fill="#3176B6"/>
<path d="M113.728 20.5523H-1.59961V-16.8005H113.728V20.5523ZM3.0575 15.8952H109.072V-12.1434H3.0575V15.8952Z" fill="#265B97"/>
<path d="M111.401 12.7656H0.728516V13.6123H111.401V12.7656Z" fill="#265B97"/>
<path d="M111.401 8.24072H0.728516V9.08736H111.401V8.24072Z" fill="#265B97"/>
<path d="M111.401 3.71582H0.728516V4.56245H111.401V3.71582Z" fill="#265B97"/>
<path d="M111.401 -0.810303H0.728516V0.0363297H111.401V-0.810303Z" fill="#265B97"/>
<g opacity="0.3">
<path opacity="0.48" d="M83.0072 100.019H66.582V100.443H83.0072V100.019Z" fill="#92B6DA"/>
</g>
<g opacity="0.3">
<path opacity="0.48" d="M104.55 103.502H88.125V103.926H104.55V103.502Z" fill="#92B6DA"/>
</g>
<g opacity="0.3">
<path opacity="0.48" d="M71.9285 106.64H59.416V107.064H71.9285V106.64Z" fill="#92B6DA"/>
</g>
<g opacity="0.3">
<path opacity="0.48" d="M44.6179 103.813H31.6641V104.237H44.6179V103.813Z" fill="#92B6DA"/>
</g>
<g opacity="0.3">
<path opacity="0.48" d="M37.1322 110.777H20.707V111.201H37.1322V110.777Z" fill="#92B6DA"/>
</g>
<g opacity="0.3">
<path opacity="0.48" d="M91.5424 113.805H75.1172V114.229H91.5424V113.805Z" fill="#92B6DA"/>
</g>
<g opacity="0.3">
<path opacity="0.48" d="M62.2174 100.019H13.1562V100.443H62.2174V100.019Z" fill="#92B6DA"/>
</g>
<path d="M32.5423 100.23H42.8278C43.5348 100.23 44.1084 99.6569 44.1084 98.9499V88.6643C44.1084 87.9574 43.5348 87.3838 42.8278 87.3838H32.5423C31.8353 87.3838 31.2617 87.9574 31.2617 88.6643V98.9499C31.2617 99.6569 31.8353 100.23 32.5423 100.23Z" fill="#E46F2C"/>
<path d="M42.8281 100.23C43.5351 100.23 44.1087 99.6569 44.1087 98.9499V88.6643C44.1087 87.9574 43.5351 87.3838 42.8281 87.3838V100.23Z" fill="#D3633C"/>
<path d="M31.2617 98.95C31.2617 99.6569 31.8353 100.231 32.5423 100.231H42.8278C43.5348 100.231 44.1084 99.6569 44.1084 98.95H31.2617Z" fill="#D3633C"/>
<path d="M45.3899 100.23H55.6755C56.3824 100.23 56.956 99.6569 56.956 98.9499V88.6643C56.956 87.9574 56.3824 87.3838 55.6755 87.3838H45.3899C44.6829 87.3838 44.1094 87.9574 44.1094 88.6643V98.9499C44.1094 99.6569 44.6829 100.23 45.3899 100.23Z" fill="#E46F2C"/>
<path d="M55.6758 100.23C56.3828 100.23 56.9563 99.6569 56.9563 98.9499V88.6643C56.9563 87.9574 56.3828 87.3838 55.6758 87.3838V100.23Z" fill="#D3633C"/>
<path d="M44.1094 98.95C44.1094 99.6569 44.6829 100.231 45.3899 100.231H55.6755C56.3824 100.231 56.956 99.6569 56.956 98.95H44.1094Z" fill="#D3633C"/>
<path d="M26.1184 87.384H36.404C37.111 87.384 37.6845 86.8104 37.6845 86.1034V75.8179C37.6845 75.1109 37.111 74.5374 36.404 74.5374H26.1184C25.4115 74.5374 24.8379 75.1109 24.8379 75.8179V86.1034C24.8379 86.8104 25.4115 87.384 26.1184 87.384Z" fill="#E46F2C"/>
<path d="M36.4043 87.384C37.1113 87.384 37.6848 86.8104 37.6848 86.1034V75.8179C37.6848 75.1109 37.1113 74.5374 36.4043 74.5374V87.384Z" fill="#D3633C"/>
<path d="M24.8379 86.1033C24.8379 86.8103 25.4115 87.3838 26.1184 87.3838H36.404C37.111 87.3838 37.6845 86.8103 37.6845 86.1033H24.8379Z" fill="#D3633C"/>
<path d="M38.9641 87.384H49.2497C49.9567 87.384 50.5302 86.8104 50.5302 86.1034V75.8179C50.5302 75.1109 49.9567 74.5374 49.2497 74.5374H38.9641C38.2572 74.5374 37.6836 75.1109 37.6836 75.8179V86.1034C37.6836 86.8104 38.2572 87.384 38.9641 87.384Z" fill="#E46F2C"/>
<path d="M49.25 87.384C49.957 87.384 50.5306 86.8104 50.5306 86.1034V75.8179C50.5306 75.1109 49.957 74.5374 49.25 74.5374V87.384Z" fill="#D3633C"/>
<path d="M37.6836 86.1033C37.6836 86.8103 38.2572 87.3838 38.9641 87.3838H49.2497C49.9567 87.3838 50.5302 86.8103 50.5302 86.1033H37.6836Z" fill="#D3633C"/>
<path d="M19.6966 100.23H29.9821C30.6891 100.23 31.2626 99.6569 31.2626 98.9499V88.6643C31.2626 87.9574 30.6891 87.3838 29.9821 87.3838H19.6966C18.9896 87.3838 18.416 87.9574 18.416 88.6643V98.9499C18.416 99.6569 18.9896 100.23 19.6966 100.23Z" fill="#E46F2C"/>
<path d="M29.9824 100.23C30.6894 100.23 31.263 99.6569 31.263 98.9499V88.6643C31.263 87.9574 30.6894 87.3838 29.9824 87.3838V100.23Z" fill="#D3633C"/>
<path d="M18.416 98.95C18.416 99.6569 18.9896 100.231 19.6966 100.231H29.9821C30.6891 100.231 31.2626 99.6569 31.2626 98.95H18.416Z" fill="#D3633C"/>
<path d="M32.5423 74.5373H42.8278C43.5348 74.5373 44.1084 73.9637 44.1084 73.2568V62.9712C44.1084 62.2642 43.5348 61.6907 42.8278 61.6907H32.5423C31.8353 61.6907 31.2617 62.2642 31.2617 62.9712V73.2568C31.2617 73.9637 31.8353 74.5373 32.5423 74.5373Z" fill="#E46F2C"/>
<path d="M42.8281 74.5373C43.5351 74.5373 44.1087 73.9637 44.1087 73.2568V62.9712C44.1087 62.2642 43.5351 61.6907 42.8281 61.6907V74.5373Z" fill="#D3633C"/>
<path d="M31.2617 73.2566C31.2617 73.9636 31.8353 74.5371 32.5423 74.5371H42.8278C43.5348 74.5371 44.1084 73.9636 44.1084 73.2566H31.2617Z" fill="#D3633C"/>
<g opacity="0.3">
<path opacity="0.48" d="M56.957 113.805H48.3086V114.229H56.957V113.805Z" fill="#92B6DA"/>
</g>
<path d="M75.1175 70.5449C78.1681 70.5449 80.6411 68.0719 80.6411 65.0213C80.6411 61.9706 78.1681 59.4976 75.1175 59.4976C72.0668 59.4976 69.5938 61.9706 69.5938 65.0213C69.5938 68.0719 72.0668 70.5449 75.1175 70.5449Z" fill="#3176B6"/>
<g opacity="0.5">
<path opacity="0.5" d="M80.6425 65.02C80.6425 68.0723 78.17 70.5449 75.1176 70.5449C74.9817 70.5449 74.847 70.5412 74.7148 70.5275C77.5764 70.3205 79.8333 67.9364 79.8333 65.02C79.8333 62.1073 77.5764 59.7245 74.7148 59.5162C74.8458 59.5038 74.9817 59.4988 75.1176 59.4988C78.17 59.4988 80.6425 61.9714 80.6425 65.02Z" fill="#265B97"/>
</g>
<path d="M69.8828 100.231H72.9664V98.8279H70.4152L69.8828 99.48V100.231Z" fill="#102E4F"/>
<path d="M76.4902 100.231H79.2783V98.8279H76.7271L76.4902 99.48V100.231Z" fill="#102E4F"/>
<path d="M79.2781 98.8278H76.727L74.8379 88.9936C74.8043 88.8215 74.5561 88.8265 74.5287 88.9986L72.9664 98.8265H70.4152L69.7656 85.8328H80.4676L79.2781 98.8278Z" fill="#265B97"/>
<path d="M74.6407 88.8728C74.5871 88.8878 74.5397 88.9302 74.5284 88.9987L72.9661 98.8267H71.9062C71.9075 98.8279 73.1743 88.8728 74.6407 88.8728Z" fill="#1D4975"/>
<path d="M78.6332 85.834H80.4698L79.2778 98.8278H78.1855L78.6332 85.834Z" fill="#1D4975"/>
<path fill-rule="evenodd" clip-rule="evenodd" d="M75.4942 66.7893C75.4942 67.7793 74.6913 68.5823 73.7012 68.5823C72.7112 68.5823 71.9082 67.7793 71.9082 66.7893" fill="white"/>
<path d="M72.7927 73.8042L68.7977 79.7718L68.8188 78.8628L71.3837 83.8404C71.5021 84.0698 71.4124 84.3516 71.1817 84.47C70.971 84.5785 70.7166 84.5112 70.5844 84.3229L67.3687 79.7381C67.1829 79.4725 67.1892 79.1296 67.3587 78.8753L67.3899 78.8279L71.3849 72.8603C71.6455 72.4713 72.1705 72.3678 72.5595 72.6272C72.9485 72.889 73.052 73.4152 72.7927 73.8042Z" fill="#265B97"/>
<path d="M80.4676 76.657V85.8353H69.7656V76.657C69.7656 73.7019 72.1621 71.3066 75.116 71.3066C77.6434 71.3066 79.7556 73.051 80.3142 75.4002C80.4177 75.8017 80.4676 76.2244 80.4676 76.657Z" fill="#3176B6"/>
<path d="M80.4675 76.6571V85.8354H78.6333V76.6571C78.6333 73.702 78.5373 74.2407 77.5273 72.6147C78.8939 73.1808 79.7555 73.0499 80.3154 75.399C80.4176 75.8018 80.4675 76.2245 80.4675 76.6571Z" fill="#265B97"/>
<path d="M80.3142 75.399C80.4152 75.8017 80.4663 76.2244 80.4663 76.6558V78.591L77.4227 74.4376C77.0162 74.0187 77.9015 73.3591 78.6484 73.6521C79.1122 73.8341 80.3142 75.399 80.3142 75.399Z" fill="#265B97"/>
<path d="M78.4762 84.3352L80.4687 81.5085V83.4674L79.066 84.839C78.9139 84.9874 78.6657 84.9874 78.5174 84.8315C78.3852 84.6968 78.3702 84.4873 78.4762 84.3352Z" fill="#265B97"/>
<path d="M78.7933 85.0509C79.0653 85.0509 79.2858 84.8304 79.2858 84.5584C79.2858 84.2864 79.0653 84.0659 78.7933 84.0659C78.5213 84.0659 78.3008 84.2864 78.3008 84.5584C78.3008 84.8304 78.5213 85.0509 78.7933 85.0509Z" fill="#265B97"/>
<path d="M83.833 79.5437L78.909 84.3617C78.7394 84.5262 78.4639 84.5262 78.2993 84.3529C78.1509 84.2045 78.1347 83.9714 78.2532 83.8031L81.6571 78.9689L77.2756 74.2806C76.8691 73.8616 76.8778 73.1921 77.2968 72.7868C77.7158 72.3804 78.3891 72.3891 78.7956 72.808L83.7868 78.1235L83.8504 78.1871C84.217 78.5661 84.2133 79.1709 83.833 79.5437Z" fill="#3176B6"/>
<path d="M79.2692 84.111C79.2206 84.1684 79.0423 84.3803 78.9937 84.4377C78.7992 84.6684 78.4538 84.6983 78.2219 84.5038C77.9912 84.3093 77.9613 83.9639 78.1558 83.732C78.2094 83.6684 78.3839 83.4614 78.4313 83.4053L79.2692 84.111Z" fill="#92B6DA"/>
<path fill-rule="evenodd" clip-rule="evenodd" d="M80.4485 66.5598C80.4485 66.4139 81.2315 62.5361 81.0445 60.8852C80.8562 59.2356 79.7751 59.1571 79.5407 59.1246C79.3063 59.091 79.1879 59.0236 79.1879 59.0236C79.1879 59.0236 78.224 58.2668 76.2976 57.7917C74.3712 57.3167 71.6467 58.7568 70.1579 57.9401C69.4435 58.6932 69.8599 60.1508 69.8599 60.1508C69.8599 60.1508 69.32 60.3503 69.1791 61.091C69.0382 61.8304 69.7278 66.591 69.7278 66.591C69.7278 66.591 70.0245 62.9201 70.4709 62.4039C70.4709 62.4039 72.7914 63.6221 78.5357 61.4451C79.7003 61.0024 80.1567 65.167 80.4485 66.5598Z" fill="#1B4376"/>
<path fill-rule="evenodd" clip-rule="evenodd" d="M80.4483 66.5908C80.4483 66.445 81.2313 62.5672 81.0443 60.9163C80.856 59.2667 79.775 59.1881 79.5405 59.1557C79.3061 59.122 79.6203 60.3963 78.6328 61.4188C79.7438 61.2405 80.1565 65.1968 80.4483 66.5908Z" fill="#153A63"/>
<path fill-rule="evenodd" clip-rule="evenodd" d="M75.9385 59.0075C78.9971 58.9501 79.1879 59.0224 79.1879 59.0224C79.1879 59.0224 78.224 58.2656 76.2976 57.7905C74.3712 57.3154 71.6467 58.7556 70.1579 57.9389C69.4435 58.692 69.8599 60.1496 69.8599 60.1496C69.8599 60.1496 69.32 60.3491 69.1791 61.0898C69.0382 61.8292 69.7278 66.5897 69.7278 66.5897C69.7278 66.5897 69.2328 60.8828 70.3699 60.5511C71.5657 60.2045 73.33 59.0573 75.9385 59.0075Z" fill="#326684"/>
<path d="M80.4696 85.834L80.4272 86.3041H69.7925L69.7676 85.834H80.4696Z" fill="#1D4975"/>
</g>
</svg>
