<svg width="120" height="120" viewBox="0 0 120 120" fill="none" xmlns="http://www.w3.org/2000/svg">
<path d="M119.5 60C119.5 92.8609 92.8609 119.5 60 119.5C27.1391 119.5 0.5 92.8609 0.5 60C0.5 27.1391 27.1391 0.5 60 0.5C92.8609 0.5 119.5 27.1391 119.5 60Z" stroke="url(#paint0_linear)"/>
<mask id="mask0" mask-type="alpha" maskUnits="userSpaceOnUse" x="0" y="0" width="120" height="120">
<path d="M119.5 60C119.5 92.8609 92.8609 119.5 60 119.5C27.1391 119.5 0.5 92.8609 0.5 60C0.5 27.1391 27.1391 0.5 60 0.5C92.8609 0.5 119.5 27.1391 119.5 60Z" fill="#FCC829" stroke="#EDF1F7"/>
</mask>
<g mask="url(#mask0)">
<g opacity="0.15">
<path opacity="0.56" d="M60 120C93.1371 120 120 93.1371 120 60C120 26.8629 93.1371 0 60 0C26.8629 0 0 26.8629 0 60C0 93.1371 26.8629 120 60 120Z" fill="#B0CEE8"/>
</g>
<g opacity="0.72">
<path opacity="0.3" d="M9.08194 68.9363C9.35696 68.9363 9.5799 68.7134 9.5799 68.4384C9.5799 68.1634 9.35696 67.9404 9.08194 67.9404C8.80693 67.9404 8.58398 68.1634 8.58398 68.4384C8.58398 68.7134 8.80693 68.9363 9.08194 68.9363Z" fill="#93B7DB"/>
</g>
<g opacity="0.72">
<path opacity="0.3" d="M101.953 54.2974C102.228 54.2974 102.451 54.0745 102.451 53.7995C102.451 53.5245 102.228 53.3015 101.953 53.3015C101.678 53.3015 101.455 53.5245 101.455 53.7995C101.455 54.0745 101.678 54.2974 101.953 54.2974Z" fill="#93B7DB"/>
</g>
<g opacity="0.3">
<path opacity="0.3" d="M14.2658 71.568C14.8786 71.568 15.3754 71.0712 15.3754 70.4584C15.3754 69.8456 14.8786 69.3489 14.2658 69.3489C13.653 69.3489 13.1562 69.8456 13.1562 70.4584C13.1562 71.0712 13.653 71.568 14.2658 71.568Z" fill="#93B7DB"/>
</g>
<g opacity="0.3">
<path opacity="0.3" d="M49.0273 95.9819C49.0273 95.9819 16.1608 96.2513 10.7653 96.2513C3.98601 89.4721 0.974822 68.6433 25.9525 73.7693C50.9301 78.8954 55.9167 94.2841 49.0273 95.9819Z" fill="#93B7DB"/>
</g>
<g opacity="0.3">
<path opacity="0.3" d="M39.4857 96.148C36.0035 91.186 31.1353 89.7917 25.9811 88.3166C19.6822 86.5134 13.1689 84.6481 9.43359 75.7329L9.72651 75.6099C13.402 84.3857 19.8415 86.2287 26.069 88.012C31.0497 89.4379 36.2004 90.9119 39.747 95.9664L39.4857 96.148Z" fill="#7B99BB"/>
</g>
<g opacity="0.3">
<path opacity="0.3" d="M54.9228 96.0791C54.9228 96.0791 99.7309 96.447 107.087 96.447C116.329 87.2049 120.435 58.8083 86.3821 65.7973C52.3287 72.7863 45.5295 93.7651 54.9228 96.0791Z" fill="#93B7DB"/>
</g>
<g opacity="0.3">
<path opacity="0.3" d="M68.7171 96.5384L68.457 96.3556C73.2702 89.4955 80.0905 87.431 86.6847 85.4344C94.9637 82.9282 103.525 80.3365 108.555 68.3269L108.848 68.4499C103.762 80.5966 95.1266 83.2106 86.7772 85.7379C79.9324 87.8106 73.4683 89.7673 68.7171 96.5384Z" fill="#7B99BB"/>
</g>
<g opacity="0.3">
<path opacity="0.56" d="M56.7449 96.0523C66.4638 81.6138 64.547 70.1069 54.8831 66.1431C46.0135 62.5051 46.6685 55.6602 42.0791 50.0983C30.2476 35.7605 21.4753 38.398 17.7669 48.4193C13.5571 59.795 21.8736 66.8262 20.3493 75.8785C18.7558 85.335 28.8708 96.0523 32.0004 96.0523C39.3186 96.0523 56.7449 96.0523 56.7449 96.0523Z" fill="#93B7DB"/>
</g>
<g opacity="0.3">
<path opacity="0.3" d="M44.5552 96.1049L44.2529 96.0088C46.7532 88.086 43.5991 74.4899 36.3535 69.9157C27.6831 64.4429 26.2771 51.7619 25.2496 42.5022L25.1113 41.2602L25.4265 41.2251L25.5648 42.4671C26.5853 51.6623 27.9819 64.2566 36.5234 69.6474C43.8803 74.2919 47.0895 88.0766 44.5552 96.1049Z" fill="#7B99BB"/>
</g>
<g opacity="0.3">
<path opacity="0.72" d="M47.6741 96.0509C34.8408 76.9867 37.3716 61.7925 50.1322 56.5598C61.8442 51.7571 60.9784 42.7189 67.0382 35.3737C82.6613 16.4418 94.2432 19.924 99.1408 33.1557C104.699 48.1753 93.7172 57.4608 95.7313 69.413C97.8344 81.8995 84.4785 96.0509 80.3461 96.0509C70.6821 96.0509 47.6741 96.0509 47.6741 96.0509Z" fill="#93B7DB"/>
</g>
<g opacity="0.3">
<path opacity="0.3" d="M63.8168 96.1048C62.1343 90.7773 62.2889 83.5563 64.2304 76.791C66.2656 69.6978 69.9727 64.0257 74.4016 61.2301C85.7 54.0993 87.5454 37.4569 88.894 25.3044L89.0768 23.6641L89.3919 23.6992L89.2092 25.3395C87.8535 37.5554 85.9976 54.2856 74.5703 61.4984C64.9849 67.5477 60.8115 85.5317 64.1191 96.0087L63.8168 96.1048Z" fill="#7B99BB"/>
</g>
<g opacity="0.72">
<path opacity="0.3" d="M35.2753 37.3541C35.5503 37.3541 35.7733 37.1311 35.7733 36.8561C35.7733 36.5811 35.5503 36.3582 35.2753 36.3582C35.0003 36.3582 34.7773 36.5811 34.7773 36.8561C34.7773 37.1311 35.0003 37.3541 35.2753 37.3541Z" fill="#93B7DB"/>
</g>
<g opacity="0.3">
<path opacity="0.72" d="M49.7851 54.2977C50.0601 54.2977 50.283 54.0747 50.283 53.7997C50.283 53.5247 50.0601 53.3018 49.7851 53.3018C49.5101 53.3018 49.2871 53.5247 49.2871 53.7997C49.2871 54.0747 49.5101 54.2977 49.7851 54.2977Z" fill="#93B7DB"/>
</g>
<g opacity="0.72">
<path opacity="0.3" d="M9.57999 45.6505C9.855 45.6505 10.0779 45.4275 10.0779 45.1525C10.0779 44.8775 9.855 44.6545 9.57999 44.6545C9.30497 44.6545 9.08203 44.8775 9.08203 45.1525C9.08203 45.4275 9.30497 45.6505 9.57999 45.6505Z" fill="#93B7DB"/>
</g>
<g opacity="0.72">
<path opacity="0.3" d="M79.0585 22.1986C79.3335 22.1986 79.5565 21.9756 79.5565 21.7006C79.5565 21.4256 79.3335 21.2026 79.0585 21.2026C78.7835 21.2026 78.5605 21.4256 78.5605 21.7006C78.5605 21.9756 78.7835 22.1986 79.0585 22.1986Z" fill="#93B7DB"/>
</g>
<g opacity="0.72">
<path opacity="0.3" d="M13.1564 47.3717C13.7692 47.3717 14.266 46.875 14.266 46.2622C14.266 45.6494 13.7692 45.1526 13.1564 45.1526C12.5436 45.1526 12.0469 45.6494 12.0469 46.2622C12.0469 46.875 12.5436 47.3717 13.1564 47.3717Z" fill="#93B7DB"/>
</g>
<g opacity="0.72">
<path opacity="0.3" d="M108.703 63.6742C109.316 63.6742 109.813 63.1774 109.813 62.5646C109.813 61.9518 109.316 61.4551 108.703 61.4551C108.091 61.4551 107.594 61.9518 107.594 62.5646C107.594 63.1774 108.091 63.6742 108.703 63.6742Z" fill="#93B7DB"/>
</g>
<g opacity="0.72">
<path opacity="0.3" d="M36.4064 33.5907C37.0192 33.5907 37.516 33.094 37.516 32.4812C37.516 31.8684 37.0192 31.3716 36.4064 31.3716C35.7936 31.3716 35.2969 31.8684 35.2969 32.4812C35.2969 33.094 35.7936 33.5907 36.4064 33.5907Z" fill="#93B7DB"/>
</g>
<g opacity="0.72">
<path opacity="0.3" d="M52.9299 53.4867C53.5427 53.4867 54.0395 52.99 54.0395 52.3772C54.0395 51.7644 53.5427 51.2676 52.9299 51.2676C52.3171 51.2676 51.8203 51.7644 51.8203 52.3772C51.8203 52.99 52.3171 53.4867 52.9299 53.4867Z" fill="#93B7DB"/>
</g>
<g opacity="0.72">
<path opacity="0.3" d="M80.1682 18.7174C80.781 18.7174 81.2777 18.2207 81.2777 17.6079C81.2777 16.9951 80.781 16.4983 80.1682 16.4983C79.5554 16.4983 79.0586 16.9951 79.0586 17.6079C79.0586 18.2207 79.5554 18.7174 80.1682 18.7174Z" fill="#93B7DB"/>
</g>
<g opacity="0.3">
<path opacity="0.3" d="M73.2303 100.442H56.8047V100.865H73.2303V100.442Z" fill="#92B6DA"/>
</g>
<g opacity="0.3">
<path opacity="0.3" d="M92.6053 98.0828H76.1797V98.5057H92.6053V98.0828Z" fill="#92B6DA"/>
</g>
<g opacity="0.3">
<path opacity="0.3" d="M104.553 103.503H88.127V103.926H104.553V103.503Z" fill="#92B6DA"/>
</g>
<g opacity="0.3">
<path opacity="0.3" d="M71.9302 106.639H59.418V107.062H71.9302V106.639Z" fill="#92B6DA"/>
</g>
<g opacity="0.3">
<path opacity="0.3" d="M56.9567 113.806H48.3086V114.229H56.9567V113.806Z" fill="#92B6DA"/>
</g>
<g opacity="0.3">
<path opacity="0.3" d="M44.62 103.813H31.666V104.236H44.62V103.813Z" fill="#92B6DA"/>
</g>
<g opacity="0.3">
<path opacity="0.3" d="M37.1346 110.777H20.709V111.2H37.1346V110.777Z" fill="#92B6DA"/>
</g>
<g opacity="0.3">
<path opacity="0.3" d="M91.5448 113.806H75.1191V114.229H91.5448V113.806Z" fill="#92B6DA"/>
</g>
<g opacity="0.3">
<path opacity="0.3" d="M62.2176 98.0828H13.1562V98.5057H62.2176V98.0828Z" fill="#92B6DA"/>
</g>
<path d="M77.4766 56.3855V81.5249C77.4766 81.7041 77.5223 81.8717 77.6043 82.0205C79.534 80.6883 81.8715 79.9068 84.3882 79.9068C87.1639 79.9068 89.7158 80.8488 91.7463 82.4376C91.8354 82.5067 91.9432 82.5454 92.0556 82.5454H106.384C106.945 82.5454 107.404 82.0908 107.404 81.5249V70.5463C107.404 70.169 107.298 69.7964 107.099 69.4742L101.796 60.8929C99.6727 57.4529 95.921 55.365 91.8775 55.365H78.4971C77.9359 55.365 77.4766 55.8196 77.4766 56.3855Z" fill="#E46F2C"/>
<g opacity="0.7">
<path opacity="0.7" d="M77.4766 78.8628V81.526C77.4766 81.7053 77.5223 81.8728 77.6043 82.0216C79.534 80.6894 81.8715 79.9079 84.3882 79.9079C87.1639 79.9079 89.7158 80.8499 91.7463 82.4387C91.8354 82.5078 91.9432 82.5465 92.0556 82.5465H106.384C106.945 82.5465 107.404 82.0919 107.404 81.526C107.404 81.526 107.404 79.2471 107.404 78.8628H92.4411C90.1833 77.1674 87.3643 76.2957 84.3906 76.2957C80.8885 76.2957 78.0671 78.1551 77.4766 78.8628Z" fill="#C96643"/>
</g>
<path d="M84.9473 59.2517V65.5576C85.6374 65.5576 95.4208 69.5436 100.412 71.4956C102.415 71.4839 103.837 71.4745 103.994 71.4745V70.1833C103.994 69.8916 103.911 69.6045 103.757 69.3561L99.6623 62.7315C98.0231 60.0754 95.1267 58.4631 92.0054 58.4631H85.7346C85.3023 58.4631 84.9473 58.8146 84.9473 59.2517Z" fill="#F2AA86"/>
<path d="M12.6074 82.1025V66.2709C12.6074 66.0249 12.8359 65.8257 13.1183 65.8257H75.1136C75.396 65.8257 75.6245 66.0249 75.6245 66.2709V82.1014C75.6245 82.3474 75.396 82.5466 75.1136 82.5466H13.1183C12.8359 82.5478 12.6074 82.3474 12.6074 82.1025Z" fill="#E46F2C"/>
<path d="M72.3828 82.037V47.6813C72.3828 47.3989 72.6113 47.1704 72.8937 47.1704H75.1128C75.3952 47.1704 75.6236 47.3989 75.6236 47.6813V82.037C75.6236 82.3193 75.3952 82.5478 75.1128 82.5478H72.8937C72.6125 82.5478 72.3828 82.3193 72.3828 82.037Z" fill="#C96643"/>
<path d="M72.3828 54.8542V47.6813C72.3828 47.3989 72.6113 47.1704 72.8937 47.1704H75.1128C75.3952 47.1704 75.6236 47.3989 75.6236 47.6813V54.8542C75.6236 55.1366 75.3952 55.3651 75.1128 55.3651H72.8937C72.6125 55.3651 72.3828 55.1366 72.3828 54.8542Z" fill="#E46F2C"/>
<path d="M12.5938 82.2677V63.4659C12.5938 63.3112 12.759 63.187 12.9617 63.187H14.5633C14.7672 63.187 14.9312 63.3124 14.9312 63.4659V82.2677C14.9312 82.4223 14.766 82.5465 14.5633 82.5465H12.9617C12.759 82.5477 12.5938 82.4223 12.5938 82.2677Z" fill="#E46F2C"/>
<path d="M53.0483 84.414C54.0583 85.0315 54.923 85.8633 55.5791 86.8452C55.674 86.987 55.8299 87.0748 55.9997 87.076L60.9208 87.0901C61.0496 87.0901 61.175 87.1405 61.2687 87.2283L65.1142 90.8418C65.2091 90.9308 65.3333 90.98 65.4633 90.98H75.7599C76.0259 90.98 76.2392 90.775 76.2673 90.5102C76.504 88.284 77.6381 86.3238 79.3042 84.9975C80.6974 83.8797 82.4689 83.2165 84.3881 83.2165C86.1491 83.2165 87.7824 83.7731 89.1146 84.728C90.9741 86.0508 92.2535 88.1293 92.5078 90.5125C92.5359 90.7761 92.7491 90.9812 93.0139 90.9812H106.894C107.176 90.9812 107.404 90.7527 107.404 90.4703V84.4573C107.404 84.175 107.176 83.9465 106.894 83.9465H91.5704C91.4451 83.9465 91.3256 83.8984 91.233 83.8141C89.4216 82.1726 87.0232 81.1743 84.3881 81.1743C81.7577 81.1743 79.3593 82.1726 77.5479 83.8141C77.4553 83.8984 77.3358 83.9465 77.2105 83.9465H53.1854C52.9323 83.9453 52.8316 84.2804 53.0483 84.414Z" fill="#C96643"/>
<path d="M14.9316 84.455V86.5581C14.9316 86.8405 15.1601 87.069 15.4425 87.069H18.9013C19.0723 87.069 19.2282 86.9811 19.3231 86.8393C19.9827 85.8586 20.8439 85.0303 21.8527 84.414C22.0694 84.2816 21.9687 83.9453 21.7144 83.9453H15.4425C15.1601 83.9453 14.9316 84.1738 14.9316 84.455Z" fill="#C96643"/>
<path d="M30.3588 84.414C31.3664 85.0303 32.2288 85.8598 32.8884 86.8393C32.9833 86.9811 33.1392 87.069 33.3102 87.069H41.5892C41.7603 87.069 41.9161 86.9811 42.011 86.8393C42.6707 85.8586 43.5319 85.0303 44.5407 84.414C44.7574 84.2816 44.6567 83.9453 44.4024 83.9453H30.4971C30.2428 83.9453 30.142 84.2816 30.3588 84.414Z" fill="#C96643"/>
<path d="M84.3921 98.295C88.2094 98.295 91.3038 95.2006 91.3038 91.3834C91.3038 87.5661 88.2094 84.4717 84.3921 84.4717C80.5749 84.4717 77.4805 87.5661 77.4805 91.3834C77.4805 95.2006 80.5749 98.295 84.3921 98.295Z" fill="#E46F2C"/>
<path d="M77.4805 91.3833C78.3475 88.9615 80.5748 86.0769 84.3921 86.0769C88.2094 86.0769 90.1661 88.6745 91.3038 91.3833C91.3038 87.5661 88.2094 84.4717 84.3921 84.4717C80.5748 84.4717 77.4805 87.5661 77.4805 91.3833Z" fill="#C96643"/>
<path d="M48.7945 98.295C52.6117 98.295 55.7062 95.2006 55.7062 91.3834C55.7062 87.5661 52.6117 84.4717 48.7945 84.4717C44.9773 84.4717 41.8828 87.5661 41.8828 91.3834C41.8828 95.2006 44.9773 98.295 48.7945 98.295Z" fill="#E46F2C"/>
<path d="M41.8828 91.3833C42.7498 88.9615 44.9772 86.0769 48.7945 86.0769C52.6118 86.0769 54.5685 88.6745 55.7062 91.3833C55.7062 87.5661 52.6118 84.4717 48.7945 84.4717C44.9772 84.4717 41.8828 87.5661 41.8828 91.3833Z" fill="#C96643"/>
<path d="M26.107 98.295C29.9242 98.295 33.0187 95.2006 33.0187 91.3834C33.0187 87.5661 29.9242 84.4717 26.107 84.4717C22.2898 84.4717 19.1953 87.5661 19.1953 91.3834C19.1953 95.2006 22.2898 98.295 26.107 98.295Z" fill="#E46F2C"/>
<path d="M19.1953 91.3833C20.0623 88.9615 22.2897 86.0769 26.107 86.0769C29.9243 86.0769 31.881 88.6745 33.0187 91.3833C33.0187 87.5661 29.9243 84.4717 26.107 84.4717C22.2897 84.4717 19.1953 87.5661 19.1953 91.3833Z" fill="#C96643"/>
<path d="M48.7947 94.7018C50.6273 94.7018 52.1129 93.2162 52.1129 91.3836C52.1129 89.551 50.6273 88.0654 48.7947 88.0654C46.9622 88.0654 45.4766 89.551 45.4766 91.3836C45.4766 93.2162 46.9622 94.7018 48.7947 94.7018Z" fill="#F2AA86"/>
<path d="M84.3904 94.7018C86.223 94.7018 87.7086 93.2162 87.7086 91.3836C87.7086 89.551 86.223 88.0654 84.3904 88.0654C82.5579 88.0654 81.0723 89.551 81.0723 91.3836C81.0723 93.2162 82.5579 94.7018 84.3904 94.7018Z" fill="#F2AA86"/>
<path d="M26.1072 94.7018C27.9398 94.7018 29.4254 93.2162 29.4254 91.3836C29.4254 89.551 27.9398 88.0654 26.1072 88.0654C24.2747 88.0654 22.7891 89.551 22.7891 91.3836C22.7891 93.2162 24.2747 94.7018 26.1072 94.7018Z" fill="#F2AA86"/>
<path d="M67.923 75.7074C67.8058 75.7074 67.7109 75.6125 67.7109 75.4954V68.4442C67.7109 68.3271 67.8058 68.2322 67.923 68.2322C68.0402 68.2322 68.1351 68.3271 68.1351 68.4442V75.4954C68.1351 75.6137 68.0402 75.7074 67.923 75.7074Z" fill="#C96643"/>
<path d="M58.3195 75.7074C58.2023 75.7074 58.1074 75.6125 58.1074 75.4954V68.4442C58.1074 68.3271 58.2023 68.2322 58.3195 68.2322C58.4367 68.2322 58.5316 68.3271 58.5316 68.4442V75.4954C58.5316 75.6137 58.4367 75.7074 58.3195 75.7074Z" fill="#C96643"/>
<path d="M29.5148 75.7074C29.3976 75.7074 29.3027 75.6125 29.3027 75.4954V68.4442C29.3027 68.3271 29.3976 68.2322 29.5148 68.2322C29.632 68.2322 29.7269 68.3271 29.7269 68.4442V75.4954C29.7257 75.6137 29.6308 75.7074 29.5148 75.7074Z" fill="#C96643"/>
<path d="M19.9113 75.7074C19.7941 75.7074 19.6992 75.6125 19.6992 75.4954V68.4442C19.6992 68.3271 19.7941 68.2322 19.9113 68.2322C20.0285 68.2322 20.1234 68.3271 20.1234 68.4442V75.4954C20.1234 75.6137 20.0285 75.7074 19.9113 75.7074Z" fill="#C96643"/>
<path d="M14.9328 77.868C14.8156 77.868 14.7207 77.7731 14.7207 77.6559V65.8256C14.7207 65.7084 14.8156 65.6135 14.9328 65.6135C15.0499 65.6135 15.1448 65.7084 15.1448 65.8256V77.6559C15.1437 77.7731 15.0488 77.868 14.9328 77.868Z" fill="#C96643"/>
<g opacity="0.7">
<path opacity="0.7" d="M12.6074 82.4086V77.4524C12.6074 77.3751 12.8359 77.313 13.1183 77.313H75.1136C75.396 77.313 75.6245 77.3751 75.6245 77.4524V82.4086C75.6245 82.4859 75.396 82.548 75.1136 82.548H13.1183C12.8359 82.548 12.6074 82.4847 12.6074 82.4086Z" fill="#C96643"/>
</g>
<path d="M100.727 66.149L98.8362 63.0898C97.4583 60.8566 95.0224 59.501 92.3979 59.501H91.2695C96.7037 59.501 99.9879 65.3336 100.727 66.149Z" fill="white"/>
<path d="M47.5039 71.4602L40.7246 75.3888V67.5444L41.6455 68.0752V73.7906L46.5853 70.9294L47.5039 71.4602Z" fill="white"/>
<path d="M46.1239 70.6621L42.1836 72.9457V71.9568L44.4156 70.6644L42.1836 69.3756V68.3867L46.1239 70.6621Z" fill="white"/>
<path d="M64.6904 70.9692C67.7415 70.9692 70.2149 68.4959 70.2149 65.4448C70.2149 62.3938 67.7415 59.9204 64.6904 59.9204C61.6394 59.9204 59.166 62.3938 59.166 65.4448C59.166 68.4959 61.6394 70.9692 64.6904 70.9692Z" fill="#3176B6"/>
<g opacity="0.5">
<path opacity="0.5" d="M70.2154 65.4436C70.2154 68.4958 67.7431 70.968 64.6909 70.968C64.555 70.968 64.4203 70.9633 64.2891 70.9516C67.1503 70.7442 69.4069 68.361 69.4069 65.4436C69.4069 62.5308 67.1503 60.1476 64.2891 59.9402C64.4203 59.9273 64.5562 59.9238 64.6909 59.9238C67.7431 59.9227 70.2154 62.3949 70.2154 65.4436Z" fill="#265B97"/>
</g>
<path d="M59.4551 100.654H62.5389V99.252H59.9882L59.4551 99.9034V100.654Z" fill="#102E4F"/>
<path d="M66.0625 100.654H68.8499V99.252H66.298L66.0625 99.9034V100.654Z" fill="#102E4F"/>
<path d="M68.8503 99.2521H66.2995L64.4108 89.4183C64.3768 89.2461 64.1296 89.2507 64.1015 89.4241L62.5397 99.2521H59.9889L59.3398 86.2583H70.0418L68.8503 99.2521Z" fill="#265B97"/>
<path d="M64.2128 89.2966C64.1589 89.3107 64.112 89.354 64.1015 89.4232L62.5396 99.2511H61.4805C61.4805 99.2523 62.7459 89.2966 64.2128 89.2966Z" fill="#1D4975"/>
<path d="M68.2066 86.2583H70.0426L68.851 99.2521H67.7578L68.2066 86.2583Z" fill="#1D4975"/>
<path d="M62.848 72.0555C62.179 72.3015 61.7959 72.8382 61.2839 73.308C60.8773 73.6853 60.5024 74.127 60.227 74.6097C59.783 75.3889 59.3389 76.12 59.3389 77.0808C59.3389 76.8394 59.3471 76.6109 59.3389 76.3742C59.3342 76.154 59.3131 75.9302 59.2627 75.6841C59.258 75.6794 59.258 75.6759 59.258 75.6712V75.6666C59.2112 75.4463 59.1397 75.2096 59.0296 74.9471C58.4285 73.5247 56.6933 71.3232 51.723 66.6834C51.1981 66.1925 51.1595 64.9388 52.8361 66.3272C57.6915 70.3484 59.9774 71.704 61.2264 72.0883C61.4596 72.1644 61.6541 72.2031 61.8228 72.2148C61.8486 72.2148 61.8732 72.2195 61.8943 72.2195C62.0384 72.2277 62.1614 72.2195 62.2716 72.2031C62.343 72.1949 62.411 72.182 62.4708 72.1644C62.5387 72.148 62.602 72.1305 62.6653 72.1094C62.7297 72.0895 62.7883 72.0731 62.848 72.0555Z" fill="#3176B6"/>
<path fill-rule="evenodd" clip-rule="evenodd" d="M65.0657 67.2129C65.0657 68.203 64.2632 69.0055 63.2731 69.0055C62.2831 69.0055 61.4805 68.203 61.4805 67.2129" fill="white"/>
<path d="M60.3884 74.7761L51.1311 66.1327C50.9905 66.0014 50.9811 65.7038 51.158 65.514C51.3291 65.3313 51.6115 65.316 51.8024 65.473L61.5566 73.5517C61.9174 73.8505 61.9667 74.3836 61.6691 74.7445C61.3703 75.1053 60.8372 75.1545 60.4763 74.8569C60.4646 74.8452 60.4505 74.8335 60.3884 74.7761Z" fill="#3176B6"/>
<path d="M70.0399 77.0805V86.2582H59.3379V77.0805C59.3379 74.1256 61.7339 71.7295 64.6889 71.7295C67.2162 71.7295 69.3287 73.4741 69.8876 75.8233C69.9895 76.2252 70.0399 76.6482 70.0399 77.0805Z" fill="#3176B6"/>
<path d="M62.8486 72.0554C62.7888 72.0718 62.7302 72.0894 62.667 72.1105C62.6037 72.1316 62.5404 72.148 62.4725 72.1656C62.4127 72.182 62.3459 72.1949 62.2733 72.2042C62.1632 72.2206 62.0401 72.23 61.896 72.2206C61.8749 72.2206 61.8491 72.2159 61.8245 72.2159C61.7566 72.2124 61.6675 72.2031 61.4508 72.1538C61.2036 72.2816 60.9095 72.469 60.6892 72.6717C60.2533 73.0818 59.8842 73.5516 59.6007 74.0648C59.4355 74.3566 59.2433 74.9401 59.1484 75.2623C59.2387 75.5493 59.2223 75.513 59.2586 75.6677V75.6724C59.2586 75.677 59.2586 75.6806 59.2633 75.6853C59.3136 75.9313 59.3347 76.1551 59.3394 76.3754C59.3476 76.612 59.3394 76.8405 59.3394 77.0819C59.3394 76.1211 59.589 75.2236 60.0342 74.4445C60.3096 73.9617 60.6564 73.5212 61.0629 73.1451C61.5738 72.6741 62.1796 72.3015 62.8486 72.0554Z" fill="#265B97"/>
<path d="M70.0393 77.0806V86.2583H68.2057V77.0806C68.2057 74.1256 68.1096 74.6646 67.0996 73.0383C68.4658 73.6042 69.3281 73.473 69.887 75.8234C69.9889 76.2253 70.0393 76.6482 70.0393 77.0806Z" fill="#265B97"/>
<path d="M69.8862 75.8235C69.9882 76.2254 70.0386 76.6495 70.0386 77.0807V79.8435L66.3326 75.4966C65.926 75.0772 67.4726 73.7836 68.219 74.0754C68.6853 74.257 69.8862 75.8235 69.8862 75.8235Z" fill="#265B97"/>
<path d="M68.0468 84.7586L70.0398 81.9314V83.8904L68.6373 85.2625C68.485 85.4113 68.2378 85.4113 68.089 85.2543C67.9554 85.1207 67.9402 84.9121 68.0468 84.7586Z" fill="#265B97"/>
<path d="M68.3644 85.4756C68.6368 85.4756 68.8576 85.2547 68.8576 84.9823C68.8576 84.7099 68.6368 84.489 68.3644 84.489C68.0919 84.489 67.8711 84.7099 67.8711 84.9823C67.8711 85.2547 68.0919 85.4756 68.3644 85.4756Z" fill="#265B97"/>
<path d="M73.4057 79.9677L68.4824 84.7856C68.3137 84.9508 68.0383 84.9508 67.8731 84.7774C67.7255 84.6297 67.7079 84.3966 67.8262 84.2267L71.2299 79.3924L66.3347 75.4966C65.9281 75.0771 65.4653 74.0625 66.043 73.3489C66.8666 72.3307 67.9622 72.8111 68.3687 73.2306L73.36 78.5464L73.4233 78.6097C73.7912 78.9893 73.7865 79.5951 73.4057 79.9677Z" fill="#3176B6"/>
<path d="M68.8422 84.5349C68.7942 84.5924 68.6149 84.8044 68.5668 84.8618C68.3723 85.0927 68.0267 85.122 67.7959 84.9275C67.565 84.733 67.5357 84.3873 67.7302 84.1565C67.7841 84.0921 67.9575 83.8858 68.0056 83.8296L68.8422 84.5349Z" fill="#92B6DA"/>
<path d="M51.466 66.5383C51.411 66.4891 51.2036 66.3039 51.1473 66.2536C50.9224 66.052 50.9025 65.7064 51.104 65.4803C51.3055 65.2541 51.6512 65.2354 51.8773 65.4369C51.9394 65.4931 52.1409 65.6724 52.196 65.7216L51.466 66.5383Z" fill="#92B6DA"/>
<path fill-rule="evenodd" clip-rule="evenodd" d="M70.0208 66.9833C70.0208 66.838 70.8047 62.9586 70.6161 61.3089C70.4286 59.6592 69.3471 59.5807 69.1128 59.5479C68.8773 59.5151 68.7601 59.4459 68.7601 59.4459C68.7601 59.4459 67.797 58.689 65.8696 58.2145C63.9434 57.7388 61.2181 59.18 59.7301 58.3633C59.0154 59.1167 59.4313 60.5743 59.4313 60.5743C59.4313 60.5743 58.8912 60.7746 58.7494 61.5139C58.6088 62.2544 59.2977 67.0149 59.2977 67.0149C59.2977 67.0149 59.5953 63.3441 60.0406 62.8286C60.0406 62.8286 62.3617 64.0459 68.1052 61.869C69.2722 61.4272 69.7279 65.5902 70.0208 66.9833Z" fill="#1B4376"/>
<path fill-rule="evenodd" clip-rule="evenodd" d="M70.02 67.0139C70.02 66.8687 70.8039 62.9892 70.6152 61.3395C70.4278 59.6898 69.3463 59.6113 69.112 59.5785C68.8764 59.5457 69.1916 60.8193 68.2051 61.841C69.3147 61.6641 69.7271 65.622 70.02 67.0139Z" fill="#153A63"/>
<path fill-rule="evenodd" clip-rule="evenodd" d="M65.5099 59.4319C68.568 59.3745 68.7602 59.4472 68.7602 59.4472C68.7602 59.4472 67.797 58.6903 65.8696 58.2157C63.9434 57.74 61.2181 59.1812 59.7301 58.3645C59.0154 59.1179 59.4313 60.5755 59.4313 60.5755C59.4313 60.5755 58.8912 60.7758 58.7494 61.5152C58.6088 62.2557 59.2977 67.0161 59.2977 67.0161C59.2977 67.0161 58.8021 61.3089 59.9398 60.9774C61.1373 60.6282 62.9018 59.4811 65.5099 59.4319Z" fill="#326684"/>
<path d="M70.0418 86.2583L69.9997 86.7281H59.3656L59.3398 86.2583H70.0418Z" fill="#1D4975"/>
</g>
<defs>
<linearGradient id="paint0_linear" x1="11.3978" y1="138" x2="158.285" y2="101.899" gradientUnits="userSpaceOnUse">
<stop stop-color="#1D60BF"/>
<stop offset="1" stop-color="#1D4175"/>
</linearGradient>
</defs>
</svg>
