<svg width="24" height="24" viewBox="0 0 24 24" fill="none" xmlns="http://www.w3.org/2000/svg">
<path d="M12.1831 16.8273C12.126 16.859 12.063 16.875 12 16.875C11.937 16.875 11.874 16.859 11.8169 16.8273L0.375 10.4333V23.25C0.375 23.457 0.542725 23.625 0.75 23.625H23.25C23.2502 23.625 23.2504 23.6248 23.2507 23.6248C23.295 23.6247 23.3378 23.6141 23.3791 23.5989C23.3895 23.5951 23.3992 23.5913 23.4091 23.5866C23.4476 23.5686 23.4841 23.5462 23.5149 23.5153C23.5155 23.5148 23.5158 23.5141 23.5163 23.5135C23.5389 23.4907 23.5592 23.4649 23.5759 23.4356C23.5797 23.429 23.5794 23.4216 23.5827 23.4149C23.5938 23.3928 23.5993 23.3692 23.6059 23.3449C23.6125 23.32 23.6194 23.2961 23.6208 23.2709C23.6212 23.2636 23.625 23.2574 23.625 23.25V10.4333L12.1831 16.8273Z" fill="#1D4175"/>
<path d="M20.625 11.2504L23.0676 9.88537L20.625 8.46875V11.2504Z" fill="#1D4175"/>
<path d="M3.37518 8.46875L0.932617 9.88537L3.37518 11.2504V8.46875Z" fill="#1D4175"/>
<path d="M19.875 0.75C19.875 0.542908 19.7073 0.375 19.5 0.375H4.5C4.29272 0.375 4.125 0.542908 4.125 0.75V11.6696L12 16.0704L19.875 11.6696V0.75Z" fill="#DE6D2E"/>
<path d="M6.75 5.25H17.25" stroke="white" stroke-linecap="round" stroke-linejoin="round"/>
<path d="M6.75 9.75H17.25" stroke="white" stroke-linecap="round" stroke-linejoin="round"/>
</svg>
