<svg width="42" height="42" viewBox="0 0 42 42" fill="none" xmlns="http://www.w3.org/2000/svg">
<g opacity="0.15">
<path opacity="0.15" d="M21 42C32.598 42 42 32.5979 42 21C42 9.40201 32.598 0 21 0C9.40202 0 0 9.40201 0 21C0 32.5979 9.40202 42 21 42Z" fill="#B2D0E9"/>
</g>
<g opacity="0.3">
<path opacity="0.3" d="M20.9996 36.4852C29.5519 36.4852 36.4849 29.5522 36.4849 21C36.4849 12.4477 29.5519 5.51477 20.9996 5.51477C12.4474 5.51477 5.5144 12.4477 5.5144 21C5.5144 29.5522 12.4474 36.4852 20.9996 36.4852Z" fill="#94B7DB"/>
</g>
<g opacity="0.3">
<path opacity="0.3" d="M31.5279 21C31.5279 26.8145 26.8144 36.5018 20.9999 36.5018C15.1855 36.5018 10.4719 26.8145 10.4719 21C10.4719 18.2078 11.5811 15.53 13.5555 13.5556C15.5299 11.5812 18.2077 10.472 20.9999 10.472C23.7921 10.472 26.47 11.5812 28.4443 13.5556C30.4187 15.53 31.5279 18.2078 31.5279 21Z" fill="#94B7DB"/>
</g>
<g opacity="0.3">
<path opacity="0.3" d="M7.24633 7.88367C7.16794 7.95797 7.11637 8.05614 7.09965 8.16284C7.09435 8.20783 7.10005 8.25344 7.11625 8.29575C7.13246 8.33806 7.1587 8.3758 7.1927 8.40573C7.22914 8.43876 7.27331 8.46207 7.32114 8.47351C7.36897 8.48496 7.41891 8.48416 7.46635 8.47119C7.6089 8.43669 7.74683 8.38533 7.87722 8.3182C7.98479 8.26176 8.09825 8.21733 8.21553 8.18571C8.32312 8.16004 8.43523 8.16004 8.54281 8.18571C8.66997 8.219 8.78577 8.28603 8.87797 8.37971C8.97456 8.4694 9.04397 8.58445 9.07828 8.71171C9.11205 8.84345 9.10795 8.98204 9.06645 9.11154C9.01809 9.26401 8.934 9.40271 8.82119 9.5161C8.71351 9.62993 8.58872 9.72625 8.45133 9.80158C8.3189 9.87635 8.17542 9.92959 8.02627 9.9593L7.91823 9.60285C8.03465 9.582 8.14733 9.544 8.2526 9.49008C8.35533 9.44118 8.44873 9.37472 8.52861 9.29371C8.60914 9.20998 8.66389 9.10486 8.68634 8.99088C8.69694 8.93683 8.6928 8.88092 8.67435 8.82903C8.65589 8.77713 8.6238 8.73116 8.58145 8.69594C8.54693 8.66291 8.50535 8.63814 8.45986 8.62353C8.41437 8.60891 8.36615 8.60482 8.31884 8.61156C8.19322 8.63085 8.07153 8.67026 7.95845 8.72828C7.83941 8.78974 7.71606 8.84245 7.58938 8.886C7.48114 8.92016 7.36666 8.92986 7.25422 8.91439C7.12726 8.89427 7.01008 8.83402 6.91984 8.74247C6.848 8.67927 6.7908 8.60116 6.75226 8.51358C6.71371 8.426 6.69474 8.33106 6.69667 8.23539C6.70728 8.02908 6.79117 7.83333 6.93325 7.68336C7.03592 7.57132 7.15441 7.47487 7.28497 7.39709C7.40028 7.33068 7.52421 7.28052 7.65325 7.24805L7.77549 7.57927C7.57764 7.63775 7.39635 7.74204 7.24633 7.88367Z" fill="#94B7DB"/>
<path opacity="0.3" d="M8.36708 6.33167L10.0783 8.27479L9.76291 8.55001L8.05164 6.60689L8.36708 6.33167Z" fill="#94B7DB"/>
<path opacity="0.3" d="M9.39191 5.50439L10.6742 7.27799L11.7096 6.53038L11.9462 6.85371L10.574 7.845L9.05438 5.74808L9.39191 5.50439Z" fill="#94B7DB"/>
<path opacity="0.3" d="M11.4253 4.17175L12.732 6.41063L12.3724 6.62119L11.0633 4.38152L11.4253 4.17175Z" fill="#94B7DB"/>
<path opacity="0.3" d="M14.7354 5.37441C14.6281 5.47864 14.5031 5.56301 14.3663 5.62362C14.1455 5.72919 13.9005 5.77384 13.6566 5.75295C13.4334 5.73227 13.2203 5.65041 13.0407 5.51636C12.8594 5.37871 12.7161 5.19715 12.6243 4.98878C12.5212 4.77088 12.4735 4.53086 12.4855 4.29008C12.4975 4.0667 12.5718 3.85115 12.7 3.66786C12.8343 3.47922 13.0175 3.33087 13.23 3.23886C13.3594 3.17906 13.4971 3.13918 13.6385 3.12057C13.7634 3.10483 13.8897 3.10483 14.0146 3.12057L14.0249 3.5409C13.8181 3.49508 13.6022 3.51522 13.4074 3.59846C13.2701 3.66005 13.1532 3.75966 13.0707 3.88552C12.9844 4.0151 12.933 4.16478 12.9216 4.32004C12.9081 4.48242 12.9372 4.64551 13.006 4.79321C13.0715 4.9465 13.1729 5.08176 13.3017 5.18751C13.4218 5.28425 13.5672 5.34447 13.7205 5.36101C13.8824 5.37863 14.0461 5.35134 14.1936 5.28215C14.2997 5.23571 14.3966 5.17083 14.4799 5.09051C14.5504 5.02228 14.6083 4.9422 14.651 4.85393L14.9625 5.11969C14.8977 5.21372 14.8214 5.29929 14.7354 5.37441Z" fill="#94B7DB"/>
<path opacity="0.3" d="M14.9712 3.23641C15.0309 3.01231 15.1471 2.80729 15.3087 2.641C15.4707 2.47448 15.6744 2.35446 15.8985 2.29343C16.1227 2.2324 16.3591 2.2326 16.5831 2.29401C16.8076 2.35634 17.0127 2.47434 17.1793 2.63706C17.3477 2.79708 17.4689 3.00033 17.5295 3.22458C17.5918 3.44877 17.5918 3.6857 17.5295 3.90988C17.4683 4.13301 17.3504 4.3365 17.1872 4.50056C17.0232 4.66529 16.8189 4.78421 16.5946 4.8455C16.3703 4.90679 16.1339 4.90831 15.9089 4.84991C15.6876 4.79208 15.4851 4.67766 15.3214 4.5179C15.1562 4.35418 15.037 4.14981 14.976 3.92539C14.9149 3.70096 14.9141 3.46441 14.9736 3.23956L14.9712 3.23641ZM15.6226 4.22217C15.7348 4.33503 15.8745 4.41659 16.028 4.45876C16.1826 4.50294 16.3465 4.50294 16.5011 4.45876C16.6541 4.41865 16.7928 4.33672 16.9017 4.22217C17.0103 4.10838 17.087 3.96805 17.1241 3.81525C17.1636 3.6578 17.1611 3.49277 17.117 3.33656C17.0761 3.18054 16.9953 3.03783 16.8827 2.9224C16.77 2.80697 16.6293 2.72278 16.4743 2.67807C16.3209 2.63535 16.1587 2.63477 16.0049 2.67641C15.8512 2.71804 15.7115 2.80034 15.6005 2.91465C15.4915 3.02977 15.4146 3.17143 15.3774 3.32552C15.3379 3.48377 15.3404 3.64956 15.3844 3.80658C15.4255 3.9638 15.5077 4.10725 15.6226 4.22217Z" fill="#94B7DB"/>
<path opacity="0.3" d="M20.3555 1.61975L20.5992 4.28999H20.5889L18.5645 2.65756L18.7317 4.36727L18.3137 4.40512L18.0701 1.73883H18.0914L20.1102 3.39491L19.9446 1.65997L20.3555 1.61975Z" fill="#94B7DB"/>
<path opacity="0.3" d="M24.7286 1.96675L23.2216 4.49979L22.433 1.66077L22.9227 1.72622L23.3746 3.5014L24.2484 1.90287L24.7286 1.96675Z" fill="#94B7DB"/>
<path opacity="0.3" d="M25.896 4.31764L24.9859 4.07554L24.5915 4.59917L24.1972 4.49429L25.9961 2.18286L26.0198 2.18917L26.4354 5.08812L25.9677 4.96588L25.896 4.31764ZM25.8534 3.93832L25.7508 3.06453L25.2177 3.76955L25.8534 3.93832Z" fill="#94B7DB"/>
<path opacity="0.3" d="M28.1479 3.00218L27.3017 5.02339L28.4791 5.51627L28.3253 5.88376L26.7646 5.22764L27.7638 2.83972L28.1479 3.00218Z" fill="#94B7DB"/>
<path opacity="0.3" d="M30.4016 4.07226L29.3022 5.96495L30.4063 6.6053L30.2068 6.94993L28.7423 6.10295L30.042 3.86328L30.4016 4.07226Z" fill="#94B7DB"/>
<path opacity="0.3" d="M33.5324 6.21971L33.2887 6.53515L32.2587 5.73944L31.8368 6.28595L32.7548 6.9957L32.5119 7.31115L31.5939 6.6014L31.1634 7.15816L32.2335 7.98778L31.9898 8.30323L30.5908 7.22361L32.1728 5.17322L33.5324 6.21971Z" fill="#94B7DB"/>
<path opacity="0.3" d="M35.6492 8.29227L33.7194 8.82301L33.1201 9.41052L32.8291 9.11558L33.4284 8.52886L34.012 6.62122L34.3677 6.98398L33.9229 8.35536L35.2935 7.92951L35.6492 8.29227Z" fill="#94B7DB"/>
</g>
<path d="M40.5765 27.8609C40.5465 27.6803 40.5875 27.4974 40.5828 27.3136C40.5702 26.7167 40.5709 26.1157 40.6167 25.5188C40.6285 25.3665 40.5907 25.2577 40.4511 25.1907C40.3856 25.0487 40.2934 24.9541 40.1191 24.9849C40.0794 24.9949 40.0377 24.9927 39.9993 24.9786C39.9609 24.9646 39.9276 24.9393 39.9038 24.906V24.9115C39.8682 24.8768 39.825 24.8511 39.7775 24.8363C39.7301 24.8215 39.6799 24.8181 39.6309 24.8263C38.7264 24.8737 37.821 24.8524 36.9149 24.8374C36.6342 24.8319 36.4165 25.0227 36.1429 24.9951C36.1042 24.9912 36.0735 25.0456 36.0435 25.0795C35.9102 25.2262 35.8069 25.365 35.8464 25.596C35.8626 25.7533 35.8626 25.9119 35.8464 26.0692C35.8164 26.7435 35.8732 27.4169 35.8385 28.092C35.8418 28.1372 35.831 28.1824 35.8075 28.2213C35.7841 28.2601 35.7491 28.2907 35.7076 28.3089C35.5908 28.3554 35.6082 28.45 35.6082 28.5518C35.6082 28.7647 35.635 28.976 35.6311 29.1921C35.6255 29.5383 35.5814 29.8932 35.6145 30.226C35.65 30.5919 35.6311 30.9547 35.6311 31.3127C35.6311 32.1654 35.6271 33.0179 35.6192 33.8702C35.6192 34.0894 35.4828 34.1706 35.2036 34.1793C34.971 34.1872 34.9418 34.0642 34.9458 33.8749C34.96 33.2306 34.9324 32.5831 34.9607 31.9373C34.9718 31.7086 34.8929 31.6084 34.6903 31.6439C34.4537 31.6873 34.4316 31.5587 34.4363 31.39C34.4513 30.8379 34.3985 30.2788 34.4663 29.7244C34.4781 29.6274 34.4513 29.5076 34.3677 29.4949C34.0854 29.4508 34.139 29.2489 34.139 29.0691V20.1846C34.139 20.0947 34.1437 20.0056 34.139 19.9157C34.1217 19.6791 34.0404 19.6002 33.8054 19.5923C33.6106 19.5844 33.4111 19.6184 33.2187 19.571C33.1856 19.5221 33.1288 19.5166 33.0807 19.4922C32.9939 19.3904 33.0389 19.269 33.0381 19.1578C33.0302 18.8029 32.9064 18.6767 32.5492 18.6728C32.4072 18.6728 32.2637 18.6949 32.1233 18.6507H30.9246C30.7594 18.6812 30.5905 18.6857 30.4238 18.6641C30.3691 18.6596 30.3141 18.666 30.2619 18.683C30.2096 18.7 30.1613 18.7271 30.1197 18.7629C30.0781 18.7988 30.044 18.8425 30.0195 18.8916C29.9949 18.9407 29.9804 18.9942 29.9767 19.049C29.9649 19.1817 29.9681 19.3152 29.9862 19.4472C29.9948 19.4945 29.9948 19.5324 29.931 19.5426C29.7182 19.5944 29.4977 19.6073 29.2804 19.5805C29.1802 19.5608 29.0895 19.5513 29.0067 19.6191C28.9378 19.7246 28.9059 19.85 28.916 19.9756C28.9113 20.9261 28.9045 21.8761 28.8955 22.8256C28.8766 24.9549 28.8884 27.0778 28.8955 29.2031C28.8955 29.3664 28.8876 29.4941 28.6739 29.4634C28.6236 29.5056 28.5898 29.5643 28.5785 29.629L28.5714 29.7962C28.5714 29.8364 28.5761 29.875 28.5714 29.9137C28.5611 30.4152 28.5714 30.9168 28.5667 31.4192C28.5667 31.4341 28.5667 31.442 28.5596 31.4428C28.5525 31.4436 28.5596 31.4373 28.5596 31.4341C28.5682 30.8884 28.5509 30.3419 28.5667 29.7962C28.5619 29.7404 28.5643 29.6842 28.5738 29.629C28.5738 29.5777 28.5738 29.5257 28.5809 29.4713C28.5272 29.2347 28.6045 28.9902 28.5075 28.7552C28.3537 28.3739 28.2796 27.9652 28.2899 27.5542C28.3017 26.8444 28.2899 26.1386 28.2954 25.4312C28.2984 25.1245 28.2012 24.8252 28.0186 24.5787C27.8443 24.3177 27.7244 23.9691 27.6337 23.645C27.5683 23.4132 27.5383 23.3296 27.3041 23.3556C26.6628 23.4149 26.0176 23.417 25.3759 23.3619C25.2048 23.3501 25.0739 23.3903 25.036 23.5811C25.0076 23.5981 24.9849 23.6231 24.9709 23.653C24.9568 23.683 24.952 23.7164 24.9572 23.7491C24.9785 23.7988 25.0045 23.8477 24.9572 23.8958C24.8783 24.0929 24.7372 24.2688 24.7379 24.4936C24.7379 24.5913 24.6741 24.6063 24.6133 24.6355C24.4463 24.8122 24.3544 25.0469 24.357 25.2901C24.361 26.044 24.357 26.7971 24.361 27.5502C24.361 27.8988 24.361 28.2426 24.2309 28.5754C24.1662 28.7205 24.085 28.8546 24.0858 29.0281C24.1094 31.1794 24.0014 33.3307 24.0392 35.4829C24.0392 35.5807 24.0392 35.68 24.0392 35.7786C24.0392 35.8519 24.0321 35.9237 23.9501 35.9584C23.8831 35.9584 23.8026 35.9955 23.7679 35.9032C23.7388 35.8243 23.8058 35.7975 23.8507 35.7597C23.8763 35.7356 23.8948 35.7051 23.9044 35.6713C23.9249 35.4762 23.9296 35.2797 23.9186 35.0838C23.9186 34.8938 23.8184 34.7952 23.6362 34.8126C23.3208 34.8425 23.0424 34.7487 22.7688 34.6044C22.7367 34.5505 22.7231 34.4876 22.7301 34.4253C22.7464 34.3298 22.7501 34.2325 22.7412 34.1359C22.7392 34.112 22.7392 34.088 22.7412 34.0642C22.7569 33.9277 22.7301 33.7913 22.7506 33.6549C22.74 33.6083 22.7376 33.5603 22.7435 33.5129C22.7672 32.8118 22.7215 32.1123 22.753 31.4113C22.7455 31.363 22.7415 31.3142 22.7412 31.2654C22.7412 30.905 22.7743 30.543 22.701 30.185C22.7023 30.1677 22.7069 30.1509 22.7144 30.1353C22.7325 30.0817 22.7711 30.0265 22.7104 29.9736C22.7104 29.9381 22.7104 29.9027 22.7104 29.8656C22.7703 29.7079 22.7372 29.5383 22.7396 29.3743C22.7376 29.3501 22.7376 29.3259 22.7396 29.3017C22.7278 29.0604 22.7774 28.8144 22.6899 28.5794C22.6371 28.5478 22.6363 28.5092 22.6726 28.4642C22.7088 28.4193 22.7774 28.3759 22.6994 28.3065C22.7364 27.8885 22.7625 27.469 22.7601 27.0447C22.7601 26.6622 22.626 26.5045 22.2467 26.4335C22.1339 26.4115 22.0204 26.3815 21.906 26.3641C21.876 26.3599 21.8457 26.3581 21.8153 26.3586C21.6253 26.4193 21.6647 26.163 21.5275 26.1457C21.4549 26.4359 21.4549 26.4359 21.1158 26.4162C21.0709 26.4184 21.0261 26.4234 20.9818 26.4312C20.3933 26.4665 19.8032 26.4684 19.2145 26.4367C18.8691 26.4115 18.4014 26.279 18.2145 26.7947C18.1688 26.8775 18.1861 26.9706 18.1727 27.0581C18.123 27.383 18.2571 27.689 18.2516 28.0163C18.2342 28.9019 18.2382 29.7891 18.2429 30.6755C18.2469 31.9286 18.2256 33.1817 18.2579 34.4348C18.2579 34.5523 18.2177 34.6233 18.1002 34.6446C18.029 34.6556 17.9622 34.6858 17.907 34.7321C17.8123 34.8047 17.7011 34.8496 17.631 34.7258C17.5994 34.6766 17.5865 34.6178 17.5946 34.5599C17.6027 34.502 17.6313 34.449 17.6751 34.4104C17.821 34.2929 17.8328 34.1864 17.6838 34.0586C17.656 34.0393 17.6331 34.0136 17.6172 33.9837C17.6012 33.9537 17.5926 33.9205 17.5921 33.8866C17.5915 33.8527 17.5991 33.8191 17.6141 33.7887C17.6291 33.7583 17.6511 33.7319 17.6783 33.7116C17.8179 33.5855 17.8234 33.4877 17.6862 33.356C17.6564 33.3316 17.6325 33.3009 17.6161 33.2661C17.5996 33.2313 17.5911 33.1933 17.5911 33.1549C17.5911 33.1164 17.5996 33.0784 17.6161 33.0437C17.6325 33.0089 17.6564 32.9782 17.6862 32.9538C17.8092 32.8347 17.7997 32.7574 17.6862 32.6439C17.5726 32.5303 17.5663 32.4073 17.6972 32.2961C17.8281 32.1849 17.7903 32.0918 17.6972 31.9806C17.6313 31.903 17.5962 31.8039 17.5987 31.7021C17.6012 31.6003 17.641 31.5029 17.7106 31.4286C17.8186 31.3111 17.8273 31.2157 17.7051 31.1132C17.5828 31.0106 17.5631 30.864 17.6917 30.7449C17.8336 30.6156 17.8218 30.5178 17.6838 30.3916C17.6565 30.3711 17.6346 30.3444 17.6197 30.3138C17.6048 30.2831 17.5975 30.2494 17.5982 30.2153C17.599 30.1812 17.6079 30.1478 17.6241 30.1179C17.6404 30.0879 17.6635 30.0622 17.6917 30.043C17.8384 29.9161 17.8163 29.8175 17.6846 29.6897C17.6552 29.665 17.6318 29.634 17.6159 29.599C17.6001 29.564 17.5923 29.5259 17.593 29.4875C17.5938 29.4491 17.6031 29.4114 17.6203 29.3771C17.6375 29.3427 17.6622 29.3127 17.6925 29.2891C17.8186 29.1763 17.8092 29.0801 17.7011 28.9737C17.5931 28.8672 17.5592 28.7529 17.683 28.6511C17.8273 28.5328 17.7981 28.439 17.6933 28.3152C17.6305 28.2344 17.5972 28.1347 17.5988 28.0325C17.6004 27.9303 17.6368 27.8317 17.7019 27.7529C17.7989 27.6354 17.8155 27.5502 17.6933 27.4327C17.571 27.3152 17.5608 27.0337 17.6838 26.9264C17.8234 26.8018 17.8013 26.7096 17.6925 26.5889C17.5726 26.4556 17.5639 26.3192 17.7138 26.1946C17.7356 26.1817 17.754 26.1637 17.7675 26.1421C17.7809 26.1206 17.7889 26.0961 17.7908 26.0708C17.7928 26.0455 17.7886 26.0201 17.7786 25.9967C17.7686 25.9734 17.7531 25.9528 17.7335 25.9367C17.5694 25.764 17.5513 25.6039 17.728 25.4257C17.8068 25.3468 17.8131 25.2285 17.7003 25.1773C17.4638 25.0732 17.5592 24.9407 17.6444 24.7948L17.657 24.7861L17.6696 24.7956C17.8273 24.7443 17.8186 24.6276 17.7185 24.559C17.5781 24.462 17.6128 24.3224 17.575 24.1986C17.5308 24.0575 17.5426 23.9297 17.728 23.8635C17.8068 23.8351 17.8147 23.7002 17.7209 23.6363C17.6041 23.5575 17.6365 23.4912 17.6972 23.3927C17.836 23.1695 17.8179 23.1206 17.5844 22.9755C17.6081 22.7026 17.4314 22.4613 17.4748 22.1766C17.4985 22.0149 17.3999 21.9069 17.1933 21.9132C16.7201 21.9298 16.2422 21.9172 15.7675 21.9203C15.5695 21.9203 15.3731 21.9416 15.2525 21.7247C15.2036 21.6388 15.0948 21.6569 15.0064 21.6388C14.9071 21.5946 14.7959 21.5836 14.7052 21.5189C14.6865 21.5008 14.6618 21.4902 14.6358 21.4889C14.5328 21.5056 14.4324 21.5353 14.3369 21.5773C14.0215 21.735 13.7249 21.9306 13.3433 21.9037C13.2242 21.8967 13.1855 22.0354 13.2005 22.153C13.2146 22.3041 13.1725 22.4552 13.0822 22.5772C13.0575 22.6537 13.0448 22.7335 13.0444 22.8138C13.0416 22.8843 13.0136 22.9515 12.9655 23.0031C12.9135 23.0566 12.8845 23.1283 12.8845 23.203C12.8845 23.2776 12.9135 23.3493 12.9655 23.4029C12.9805 23.421 12.9963 23.4408 13.012 23.4589C13.0278 23.477 13.042 23.5212 13.027 23.5322C12.7904 23.7002 12.8693 23.8579 13.0404 24.0141C13.0404 24.1576 13.0404 24.3019 13.0357 24.4454C12.9568 24.5543 12.7589 24.6268 12.9277 24.8098C13.0988 24.9257 13.0594 25.0409 12.9277 25.156C12.7755 25.3263 12.9277 25.4099 13.0302 25.5077C13.0378 25.6164 13.0336 25.7256 13.0176 25.8334C12.8094 26.0511 12.8102 26.0645 13.0239 26.2561C13.0414 26.2981 13.0505 26.3431 13.0505 26.3886C13.0505 26.4341 13.0414 26.4791 13.0239 26.5211C12.8046 26.7529 12.8046 26.7577 13.0318 26.9753C13.0487 27.1136 13.0393 27.2538 13.0042 27.3886C12.7676 27.5463 12.8898 27.6882 13.0254 27.8286C13.0554 27.9613 13.0554 28.0989 13.0254 28.2316C12.8031 28.4871 12.8031 28.4871 13.031 28.6984C13.0471 28.7541 13.0471 28.8131 13.031 28.8688C12.8173 29.1314 12.8173 29.1314 13.0373 29.3593C13.0552 29.4538 13.0517 29.551 13.027 29.644C12.7967 29.8348 12.796 29.8593 13.0065 30.0651C13.0243 30.0847 13.0359 30.1091 13.0396 30.1353C13.0536 30.204 13.0485 30.2752 13.0247 30.3411C12.9024 30.4365 12.781 30.5304 12.9348 30.7078C12.7729 30.7142 12.6111 30.6934 12.4561 30.6463C12.5428 30.5966 12.6469 30.5856 12.6461 30.4673C12.6311 30.4456 12.6109 30.4281 12.5873 30.4162C12.5638 30.4044 12.5376 30.3986 12.5113 30.3995C12.3472 30.3798 12.4261 30.2938 12.4592 30.2181C12.4908 30.1304 12.4932 30.0349 12.4662 29.9457C12.4393 29.8565 12.3843 29.7783 12.3094 29.7228C12.2908 29.7053 12.2688 29.6919 12.2447 29.6834C12.2207 29.6817 12.1967 29.6875 12.1761 29.7C11.9797 29.6818 12.0444 29.5722 12.0925 29.4634C12.1341 29.446 12.1792 29.4382 12.2242 29.4405C12.2733 29.4414 12.3222 29.4347 12.3693 29.4208C12.393 29.4125 12.4145 29.399 12.4324 29.3814C12.4868 29.2142 12.4813 29.1006 12.2565 29.1905C12.1832 29.2197 12.1359 29.2024 12.1122 29.1259C12.1016 29.0623 12.0721 29.0034 12.0275 28.9568C11.9829 28.9103 11.9253 28.8782 11.8622 28.8648C11.8367 28.8564 11.8102 28.8508 11.7834 28.8483C11.7439 28.8456 11.7042 28.8494 11.6659 28.8593C11.578 28.879 11.487 28.8806 11.3985 28.864C11.2337 28.8301 11.1399 28.8948 11.1099 29.058C11.0965 29.1653 11.0531 29.2402 10.9293 29.2465C10.8457 29.2465 10.7676 29.2757 10.7937 29.3901C10.812 29.4058 10.8331 29.4178 10.856 29.4255C10.9036 29.4358 10.9518 29.4429 11.0003 29.4468C11.1462 29.4752 11.0941 29.5872 11.0997 29.6771C11.0902 29.7694 11.0255 29.7773 10.9498 29.7828C10.8441 29.7899 10.7385 29.8049 10.6943 29.9247C10.6612 30.1148 10.74 30.3395 10.5129 30.4649C10.5035 30.4704 10.5129 30.4981 10.5129 30.5154C10.5618 30.5943 10.6588 30.5943 10.7322 30.6447C10.661 30.6616 10.5888 30.6737 10.5161 30.681C10.2077 30.6881 10.1218 30.6148 10.1454 30.3419C10.1864 29.7899 10.1565 29.2378 10.1549 28.6858C10.1549 27.928 10.1438 27.1693 10.1462 26.4122C10.1462 25.5385 10.1368 24.6639 10.1636 23.7893C10.1785 23.3083 10.1226 23.2641 9.64623 23.2641H9.35681C9.35129 22.5007 9.30555 21.7405 9.2677 20.9771C9.24483 20.5245 9.2677 20.0655 9.17228 19.616C9.17228 19.5537 9.16754 19.4898 9.16518 19.4275C9.09736 19.1909 9.19278 18.937 9.10998 18.6988L9.10051 18.6854L9.11155 18.6728C9.0808 18.1941 9.05477 17.7154 9.0043 17.2383C8.94594 16.6863 8.95068 16.1248 8.83869 15.5759V15.5799C8.80873 15.1548 8.75983 14.7313 8.70621 14.3094C8.65889 13.9411 8.67387 13.5642 8.56741 13.2054V13.2101C8.54927 12.9806 8.52325 12.7503 8.48855 12.524C8.44754 12.2661 8.37499 12.0161 8.08636 11.9168C8.00749 11.8379 7.8963 11.9168 7.81428 11.8592C7.64 11.7937 7.45073 11.8095 7.27014 11.7803C7.14475 11.759 7.03356 11.7906 7.03908 11.9562C7.0446 12.0642 7.00438 12.1265 6.88845 12.125C6.78987 12.125 6.67237 12.1399 6.6566 12.0051C6.62269 11.7472 6.46339 11.7567 6.27018 11.7937C6.14084 11.8182 6.0052 11.8064 5.87587 11.8568C5.86483 11.8734 5.85221 11.8742 5.83723 11.8616C5.75285 11.9207 5.63613 11.8355 5.55885 11.9231C5.49782 11.9446 5.44258 11.9799 5.39744 12.0263C5.3523 12.0727 5.31848 12.1288 5.2986 12.1904C5.26164 12.2216 5.2313 12.2598 5.20936 12.3029C5.18741 12.3459 5.17432 12.393 5.17085 12.4412C5.09199 12.9215 5.04782 13.4057 4.99183 13.8891C4.87591 14.8883 4.76156 15.8882 4.69768 16.8921L4.68822 17.0853C4.61961 17.2833 4.62749 17.4915 4.60936 17.6965C4.56257 18.3474 4.5184 18.9982 4.47687 19.6491L4.48712 19.6594L4.48002 19.672C4.39012 19.9622 4.49501 20.2642 4.42403 20.556C4.42403 20.6577 4.41772 20.7595 4.41378 20.8604C4.33492 21.2595 4.35779 21.6648 4.33886 22.067C4.31993 22.4692 4.30968 22.8659 4.29943 23.2665H4.03998C3.8515 23.2665 3.76081 23.3627 3.76081 23.5504C3.76081 24.2869 3.77264 25.0219 3.77973 25.7585C3.75936 25.9581 3.75198 26.1588 3.75765 26.3594C3.77264 26.8152 3.77264 27.2726 3.77658 27.7284C3.78052 28.1843 3.77658 28.6322 3.79314 29.0849C3.8026 29.3459 3.77658 29.6322 3.77264 29.905C3.76633 30.3041 3.71822 30.7062 3.80891 31.1029C3.73794 31.4972 3.79393 31.8963 3.78683 32.2929C3.78683 32.3103 3.79945 32.3268 3.80891 32.3426C3.91616 32.4712 3.73005 32.4948 3.72532 32.5792C3.70858 32.5977 3.68918 32.6137 3.66775 32.6265C3.40925 32.6458 3.14954 32.6419 2.89175 32.6147L2.85706 41.9992C40.3462 41.9992 35.1658 41.9937 40.7042 41.9937L40.5765 27.8609ZM28.5564 31.442C28.5509 31.4617 28.5249 31.4333 28.5564 31.442V31.442Z" fill="#A8C3E1"/>
<path d="M10.5496 29.8631L10.4731 29.8419L10.4763 29.834L10.552 29.8552L10.5496 29.8631Z" fill="#3175B7"/>
<path d="M34.6875 29.6961C34.6881 29.9781 34.6211 30.2561 34.492 30.5068C33.1285 34.0461 29.28 35.9837 26.1201 36.9561V35.0374C28.049 33.9207 30.0884 32.0548 31.2263 29.0896C31.2261 29.0867 31.2261 29.0838 31.2263 29.081C31.3704 28.6876 31.6484 28.3575 32.0114 28.1485C32.3745 27.9395 32.7996 27.8649 33.2121 27.9379C33.6247 28.0109 33.9983 28.2268 34.2677 28.5477C34.537 28.8685 34.6848 29.274 34.6852 29.6929L34.6875 29.6961Z" fill="#275B98"/>
<path fill-rule="evenodd" clip-rule="evenodd" d="M26.4216 20.8739C26.4437 21.0994 26.5793 23.0079 26.5793 24.4376C26.5793 25.8674 26.6211 27.2396 26.6211 27.2396C29.7377 27.8902 31.3417 27.5274 34.3803 27.0487C34.3803 27.0487 34.5782 26.1245 34.2083 24.3674C33.8385 22.6104 34.6815 20.6026 34.6815 20.6026L32.7628 19.2722L26.4216 20.8739Z" fill="#163B63"/>
<path d="M34.5464 23.8856C35.4719 21.6511 34.4108 19.0894 32.1764 18.1639C29.9419 17.2383 27.3802 18.2994 26.4547 20.5339C25.5292 22.7683 26.5902 25.33 28.8247 26.2555C31.0592 27.1811 33.6208 26.12 34.5464 23.8856Z" fill="#3175B7"/>
<path d="M34.8791 22.2097C34.8792 22.7848 34.766 23.3543 34.5459 23.8857C34.3259 24.4171 34.0033 24.8998 33.5967 25.3065C33.19 25.7132 32.7072 26.0357 32.1758 26.2558C31.6445 26.4758 31.075 26.589 30.4999 26.5889C32.4659 26.5889 35.3191 23.5512 32.969 18.4662C33.8964 18.467 34.8791 19.7903 34.8791 22.2097Z" fill="#275B98"/>
<path d="M26.1213 22.2097C26.1212 22.7849 26.2344 23.3544 26.4545 23.8858C26.6746 24.4172 26.9972 24.9001 27.4039 25.3067C27.8107 25.7134 28.2936 26.036 28.825 26.2559C29.3564 26.4759 29.926 26.5891 30.5012 26.5889C28.6811 26.5889 25.0425 23.6868 27.0392 19.444C27.2135 19.0734 27.2853 18.7721 27.0163 18.4669C26.2837 18.4669 26.1213 19.7902 26.1213 22.2097Z" fill="#4B99CD"/>
<path fill-rule="evenodd" clip-rule="evenodd" d="M32.165 17.2471C38.2783 16.2014 32.4915 25.716 35.7201 28.1639C36.1806 28.5132 33.6208 30.0495 32.6665 28.4667C32.068 27.4746 34.0245 25.6616 34.1507 23.1096C34.2769 20.5577 33.381 19.6792 32.829 18.7131C32.277 17.747 32.165 17.2471 32.165 17.2471Z" fill="#1C4377"/>
<path d="M29.9837 25.1206C29.5676 25.1201 29.1687 24.9547 28.8745 24.6605C28.5803 24.3663 28.4148 23.9673 28.4144 23.5513H28.4932C28.4932 23.9466 28.6503 24.3257 28.9298 24.6052C29.2093 24.8847 29.5884 25.0417 29.9837 25.0417C30.379 25.0417 30.7581 24.8847 31.0376 24.6052C31.3172 24.3257 31.4742 23.9466 31.4742 23.5513H31.5531C31.5526 23.9673 31.3872 24.3663 31.0929 24.6605C30.7987 24.9547 30.3998 25.1201 29.9837 25.1206Z" fill="white"/>
<path d="M13.5047 26.2552C15.7391 25.3296 16.8002 22.768 15.8747 20.5335C14.9491 18.2991 12.3875 17.238 10.153 18.1635C7.91856 19.0891 6.85748 21.6507 7.78302 23.8852C8.70855 26.1196 11.2702 27.1807 13.5047 26.2552Z" fill="#4457A7"/>
<path d="M7.44916 22.2097C7.44905 22.7849 7.56228 23.3545 7.78237 23.8859C8.00245 24.4173 8.32509 24.9001 8.73184 25.3068C9.13858 25.7135 9.62147 26.036 10.1529 26.256C10.6844 26.476 11.2539 26.5891 11.8291 26.5889C9.86232 26.5889 7.00911 23.5512 9.35918 18.4662C8.43335 18.467 7.44916 19.7903 7.44916 22.2097Z" fill="#304497"/>
<path d="M16.2083 22.2097C16.2084 22.7848 16.0953 23.3543 15.8752 23.8856C15.6552 24.417 15.3326 24.8998 14.926 25.3065C14.5193 25.7131 14.0365 26.0357 13.5052 26.2557C12.9738 26.4758 12.4043 26.589 11.8292 26.5889C13.6485 26.5889 17.2872 23.6868 15.2912 19.444C15.1161 19.0734 15.0444 18.7721 15.3133 18.4669C16.0427 18.4669 16.2083 19.7902 16.2083 22.2097Z" fill="#5B72B7"/>
<path d="M12.3458 25.1206C11.9297 25.1201 11.5308 24.9547 11.2366 24.6605C10.9424 24.3663 10.7769 23.9673 10.7765 23.5513H10.8554C10.8643 23.9407 11.0253 24.3112 11.3039 24.5835C11.5825 24.8558 11.9567 25.0082 12.3462 25.0082C12.7358 25.0082 13.1099 24.8558 13.3885 24.5835C13.6671 24.3112 13.8281 23.9407 13.8371 23.5513H13.916C13.9155 23.9675 13.75 24.3665 13.4556 24.6607C13.1612 24.955 12.7621 25.1204 12.3458 25.1206Z" fill="white"/>
<path d="M34.8792 35.4718V36.7596C32.37 38.9748 29.3664 40.5563 26.1201 41.3714V40.0844C29.3664 39.2689 32.37 37.6872 34.8792 35.4718Z" fill="#275B98"/>
<path d="M34.8796 29.7023V35.4718C32.3706 37.687 29.3673 39.2687 26.1213 40.0844V29.7023C26.1213 28.9075 26.437 28.1453 26.999 27.5833C27.561 27.0213 28.3232 26.7056 29.118 26.7056H31.8781C32.3592 26.7051 32.8333 26.8206 33.2601 27.0425C33.6869 27.2644 34.0539 27.586 34.3299 27.98C34.3657 28.0266 34.3984 28.0756 34.4277 28.1266C34.7229 28.5992 34.8794 29.1451 34.8796 29.7023Z" fill="#3175B7"/>
<path d="M26.121 34.3868V29.7024C26.121 28.9076 26.4367 28.1454 26.9987 27.5834C27.5607 27.0214 28.3229 26.7057 29.1177 26.7057H30.5112C25.7811 27.3531 26.121 32.211 26.121 34.3868Z" fill="#4B99CD"/>
<path d="M34.8793 29.7023V35.4718C34.2082 36.8345 33.0654 37.2627 31.8407 37.702C32.9874 36.6618 33.5757 33.8662 33.7334 31.5792C34.0118 29.9428 34.5039 28.5896 34.429 28.1259C34.7238 28.5988 34.8798 29.145 34.8793 29.7023Z" fill="#275B98"/>
<path d="M16.06 40.1302V41.4164C12.8246 40.6353 9.8219 39.0944 7.30084 36.9213V35.6304C9.82108 37.8057 12.8239 39.3483 16.06 40.1302Z" fill="#304497"/>
<path d="M16.0598 29.7023V40.1301C12.8237 39.3482 9.82085 37.8056 7.3006 35.6303V29.7023C7.29949 29.1449 7.45497 28.5984 7.74933 28.1251C7.77889 28.0742 7.81155 28.0252 7.84711 27.9784C8.12323 27.5843 8.49037 27.2627 8.91734 27.0408C9.34432 26.819 9.81853 26.7034 10.2997 26.704H13.0599C13.4538 26.7036 13.8439 26.7808 14.208 26.9313C14.572 27.0819 14.9028 27.3027 15.1815 27.5811C15.4601 27.8596 15.6811 28.1903 15.8318 28.5543C15.9825 28.9182 16.06 29.3084 16.0598 29.7023Z" fill="#4457A7"/>
<path d="M7.30084 29.7023V35.6303C7.97196 36.993 9.11466 37.3818 10.3394 37.8219C9.19273 36.7809 8.60442 33.8662 8.4467 31.5792C8.16753 29.9428 7.67544 28.5896 7.75036 28.1259C7.45587 28.5989 7.30012 29.1451 7.30084 29.7023Z" fill="#304497"/>
<path d="M34.6875 29.6961C34.6881 29.9781 34.6211 30.2561 34.492 30.5068C33.1285 34.0461 29.28 35.9837 26.1201 36.9561V35.0374C28.049 33.9207 30.0884 32.0548 31.2263 29.0896C31.2261 29.0867 31.2261 29.0838 31.2263 29.081C31.3704 28.6876 31.6484 28.3575 32.0114 28.1485C32.3745 27.9395 32.7996 27.8649 33.2121 27.9379C33.6247 28.0109 33.9983 28.2268 34.2677 28.5477C34.537 28.8685 34.6848 29.274 34.6852 29.6929L34.6875 29.6961Z" fill="#275B98"/>
<path d="M22.4078 36.5018C22.4078 36.632 22.3692 36.7594 22.2968 36.8677C22.2244 36.976 22.1215 37.0604 22.0011 37.1102C21.8807 37.16 21.7483 37.173 21.6206 37.1475C21.4928 37.1221 21.3755 37.0593 21.2834 36.9671C21.1913 36.8749 21.1287 36.7575 21.1034 36.6297C21.0781 36.502 21.0912 36.3695 21.1412 36.2492C21.1911 36.1289 21.2757 36.0261 21.384 35.9539C21.4924 35.8816 21.6198 35.8431 21.7501 35.8433C21.9246 35.8435 22.0919 35.9129 22.2152 36.0364C22.3385 36.1599 22.4078 36.3273 22.4078 36.5018Z" fill="#CEDFEE"/>
<path d="M34.6883 29.0439C34.6889 29.3259 34.6219 29.6039 34.4927 29.8546C32.2538 35.6706 23.2944 37.161 21.7503 37.161C21.9211 37.1551 22.0829 37.0831 22.2017 36.9602C22.3204 36.8373 22.3868 36.6731 22.3868 36.5022C22.3868 36.3313 22.3204 36.167 22.2017 36.0441C22.0829 35.9212 21.9211 35.8492 21.7503 35.8433C23.2913 35.8433 28.9921 34.2597 31.227 28.4414C31.2266 28.4385 31.2266 28.4356 31.227 28.4327C31.37 28.0377 31.6477 27.7059 32.0113 27.4956C32.3749 27.2853 32.801 27.21 33.2146 27.283C33.6282 27.3561 34.0028 27.5727 34.2724 27.8948C34.542 28.2169 34.6892 28.6238 34.6883 29.0439Z" fill="#3175B7"/>
<path d="M7.49292 29.6961C7.49233 29.9781 7.5594 30.2561 7.6885 30.5068C9.05201 34.0461 12.9044 35.9829 16.0604 36.9561V35.0374C14.1315 33.9207 12.0921 32.0548 10.9541 29.0896C10.9548 29.0868 10.9548 29.0838 10.9541 29.081C10.8101 28.6876 10.5321 28.3575 10.169 28.1485C9.80594 27.9395 9.38088 27.8649 8.96835 27.9379C8.55582 28.0109 8.18213 28.2268 7.9128 28.5477C7.64346 28.8685 7.49566 29.274 7.49529 29.6929L7.49292 29.6961Z" fill="#304497"/>
<path d="M19.7728 36.5018C19.7727 36.6323 19.8112 36.7599 19.8837 36.8684C19.9561 36.977 20.0591 37.0616 20.1796 37.1116C20.3002 37.1616 20.4328 37.1746 20.5608 37.1492C20.6888 37.1237 20.8064 37.0608 20.8986 36.9685C20.9908 36.8761 21.0535 36.7585 21.0789 36.6305C21.1042 36.5025 21.091 36.3698 21.0408 36.2493C20.9907 36.1289 20.906 36.026 20.7973 35.9537C20.6887 35.8814 20.561 35.843 20.4305 35.8433C20.256 35.8435 20.0887 35.9129 19.9654 36.0364C19.8421 36.1599 19.7728 36.3273 19.7728 36.5018Z" fill="#9DA7D4"/>
<path d="M7.49293 29.0439C7.49224 29.3259 7.55931 29.6039 7.6885 29.8546C9.92738 35.6706 18.8868 37.161 20.4309 37.161C20.2601 37.1551 20.0983 37.0831 19.9795 36.9602C19.8608 36.8373 19.7944 36.6731 19.7944 36.5022C19.7944 36.3313 19.8608 36.167 19.9795 36.0441C20.0983 35.9212 20.2601 35.8492 20.4309 35.8433C18.89 35.8433 13.1891 34.2597 10.9542 28.4414C10.955 28.4385 10.955 28.4355 10.9542 28.4327C10.8112 28.0377 10.5335 27.7059 10.1699 27.4956C9.80634 27.2853 9.3802 27.21 8.96658 27.283C8.55295 27.3561 8.17836 27.5727 7.90879 27.8948C7.63921 28.2169 7.49195 28.6238 7.49293 29.0439Z" fill="#4457A7"/>
<path d="M21.0888 34.661C21.0404 34.4422 20.9687 34.2291 20.8751 34.0254C20.8522 33.9773 20.8294 33.9339 20.8057 33.8906L20.8002 33.8811L20.7947 33.8724C20.5949 33.5849 20.3104 33.3668 19.9808 33.2486C20.2642 33.1462 20.515 32.9697 20.7071 32.7376C20.7379 32.6997 20.7655 32.6635 20.7931 32.6248L20.7994 32.6153L20.8049 32.6067C20.9354 32.3644 21.0312 32.1051 21.0896 31.8362C21.1477 32.105 21.2433 32.3644 21.3735 32.6067L21.3845 32.6224C21.584 32.9113 21.8693 33.13 22.1999 33.2478C21.8696 33.3657 21.5844 33.5841 21.3845 33.8724L21.3735 33.889C21.2432 34.1319 21.1474 34.3917 21.0888 34.661Z" fill="#FBBA8D"/>
<path d="M31.6184 29.1173L29.3835 30.4129V27.8263L29.6863 28.0014V29.8862L31.3148 28.9422L31.6184 29.1173Z" fill="white"/>
<path d="M31.1637 28.8546L29.864 29.607V29.2813L30.5998 28.8546L29.864 28.4304V28.1039L31.1637 28.8546Z" fill="white"/>
<path d="M10.54 29.745C10.5081 29.7756 10.4735 29.8033 10.4367 29.8278C10.354 29.8799 10.2597 29.9105 10.1623 29.917C10.0648 29.9235 9.96729 29.9055 9.87852 29.8648C9.78974 29.8241 9.71251 29.7619 9.65382 29.6838C9.59513 29.6058 9.55682 29.5143 9.54236 29.4177C9.53604 29.3744 9.53288 29.3306 9.5329 29.2868C9.5329 28.9761 9.5329 28.6654 9.5329 28.3547C9.5329 28.3318 9.53763 28.3231 9.56208 28.3239C9.62201 28.3239 9.68195 28.3239 9.74188 28.3239C9.76396 28.3239 9.76869 28.3302 9.76869 28.3515C9.76869 28.6628 9.76869 28.9743 9.76869 29.286C9.76422 29.3899 9.79756 29.4919 9.86254 29.5731C9.90735 29.6277 9.96698 29.6683 10.0343 29.6898C10.1016 29.7113 10.1737 29.713 10.2419 29.6945C10.31 29.6805 10.3726 29.6472 10.4222 29.5985C10.4719 29.5498 10.5064 29.4879 10.5218 29.4201C10.5339 29.3759 10.5397 29.3303 10.5392 29.2845C10.5392 28.9743 10.5392 28.6643 10.5392 28.3547C10.5392 28.3294 10.5447 28.3231 10.5707 28.3239C10.6306 28.3239 10.6906 28.3239 10.7505 28.3239C10.7679 28.3239 10.775 28.3239 10.775 28.3468C10.775 28.8531 10.775 29.3594 10.775 29.8657C10.775 29.8838 10.7694 29.8878 10.7529 29.8878C10.6898 29.8878 10.6267 29.8878 10.5636 29.8878C10.5439 29.8878 10.54 29.8814 10.5407 29.8633C10.5407 29.8255 10.54 29.7876 10.54 29.745Z" fill="white"/>
<path d="M12.1625 29.1842C12.1397 29.0856 12.092 28.9945 12.024 28.9196C11.9559 28.8447 11.8699 28.7885 11.7739 28.7563C11.678 28.7241 11.5754 28.7171 11.476 28.7358C11.3766 28.7545 11.2836 28.7984 11.2059 28.8632L11.1728 28.8916C11.1728 28.7078 11.1728 28.5288 11.1728 28.3498C11.1728 28.3301 11.1689 28.323 11.1484 28.3238C11.0908 28.3238 11.034 28.3238 10.9764 28.3238C10.9512 28.3238 10.9449 28.3301 10.9457 28.3553V29.5958C10.9457 29.6857 10.9457 29.7756 10.9457 29.8648C10.9457 29.879 10.9457 29.8876 10.9654 29.8876C11.0324 29.8876 11.1003 29.8876 11.1681 29.8876C11.1736 29.8506 11.1681 29.8135 11.1681 29.7772C11.1681 29.7693 11.1602 29.7567 11.1767 29.7551C11.2412 29.8186 11.32 29.8656 11.4065 29.8922C11.493 29.9188 11.5846 29.9243 11.6736 29.9081C11.7548 29.896 11.8326 29.867 11.9021 29.8232C11.9715 29.7794 12.0311 29.7216 12.0771 29.6536C12.123 29.5855 12.1544 29.5086 12.1691 29.4278C12.1838 29.347 12.1816 29.2641 12.1625 29.1842ZM11.5624 29.7157C11.4844 29.7157 11.4082 29.6926 11.3433 29.6493C11.2785 29.6059 11.2279 29.5443 11.1981 29.4723C11.1682 29.4002 11.1604 29.321 11.1756 29.2445C11.1909 29.168 11.2284 29.0977 11.2836 29.0426C11.3387 28.9874 11.409 28.9499 11.4855 28.9347C11.5619 28.9194 11.6412 28.9273 11.7133 28.9571C11.7853 28.9869 11.8469 29.0375 11.8902 29.1023C11.9336 29.1672 11.9567 29.2434 11.9567 29.3214C11.9567 29.426 11.9151 29.5263 11.8412 29.6002C11.7672 29.6742 11.667 29.7157 11.5624 29.7157Z" fill="white"/>
<path d="M13.4234 29.3711C13.4238 29.3216 13.4214 29.2721 13.4163 29.2229C13.4069 29.1408 13.3795 29.0617 13.3361 28.9914C13.2927 28.9211 13.2343 28.8612 13.1651 28.8161C13.0959 28.7709 13.0176 28.7415 12.9358 28.7301C12.8539 28.7186 12.7706 28.7253 12.6916 28.7497C12.5779 28.7818 12.4766 28.8479 12.4014 28.9391C12.3261 29.0302 12.2805 29.1422 12.2705 29.2599C12.258 29.3607 12.2727 29.463 12.3128 29.5563C12.353 29.6496 12.4174 29.7305 12.4992 29.7907C12.6233 29.8847 12.779 29.9271 12.9337 29.9089C13.0151 29.9028 13.0943 29.8798 13.1663 29.8416C13.2384 29.8033 13.3018 29.7505 13.3525 29.6866C13.3635 29.6739 13.3651 29.6668 13.3525 29.6566C13.3099 29.6274 13.2689 29.5967 13.2286 29.5651C13.2113 29.5517 13.2026 29.5517 13.1884 29.5691C13.1424 29.6248 13.082 29.6668 13.0137 29.6905C12.9454 29.7142 12.872 29.7187 12.8013 29.7035C12.7307 29.6883 12.6656 29.6539 12.6131 29.6042C12.5607 29.5545 12.5229 29.4913 12.5039 29.4216C12.4992 29.4011 12.4992 29.3916 12.5268 29.3916C12.6711 29.3916 12.8162 29.3916 12.9613 29.3916H13.4013C13.414 29.3932 13.4289 29.3932 13.4234 29.3711ZM13.1679 29.2134H12.5276C12.5063 29.2134 12.4984 29.2134 12.5055 29.1858C12.5216 29.1256 12.5533 29.0706 12.5974 29.0266C12.6415 28.9825 12.6965 28.9509 12.7567 28.9349C12.817 28.9189 12.8804 28.9191 12.9405 28.9354C13.0007 28.9518 13.0555 28.9838 13.0993 29.0281C13.1414 29.0729 13.1725 29.1269 13.19 29.1858C13.1971 29.2126 13.1924 29.215 13.1679 29.215V29.2134Z" fill="white"/>
<path d="M13.773 28.8861C13.7967 28.8474 13.8285 28.8144 13.8662 28.7894C13.9039 28.7643 13.9467 28.7478 13.9915 28.741C14.0317 28.7355 14.0703 28.741 14.1113 28.741C14.124 28.741 14.1248 28.7465 14.1248 28.7567C14.1248 28.8159 14.1248 28.875 14.1248 28.9342C14.1248 28.9507 14.1169 28.95 14.1058 28.95C14.0629 28.9476 14.0199 28.9492 13.9773 28.9547C13.9268 28.9659 13.881 28.9923 13.846 29.0304C13.811 29.0685 13.7886 29.1164 13.7817 29.1676C13.7773 29.1937 13.7752 29.2201 13.7754 29.2465C13.7754 29.451 13.7754 29.655 13.7754 29.8584C13.7754 29.8813 13.7707 29.8876 13.7478 29.8868C13.6886 29.8868 13.6295 29.8868 13.5704 29.8868C13.553 29.8868 13.5475 29.8829 13.5475 29.8648C13.5475 29.5004 13.5475 29.1361 13.5475 28.7717C13.5475 28.7536 13.5514 28.7473 13.5711 28.7473C13.6311 28.7473 13.691 28.7473 13.7509 28.7473C13.7675 28.7473 13.773 28.752 13.7722 28.7686C13.7722 28.8072 13.773 28.8435 13.773 28.8861Z" fill="white"/>
<path d="M16.8287 18.6721C16.4581 19.4055 15.4605 19.6799 14.3501 19.7059C12.8975 19.7406 11.2509 19.3503 10.5648 19.0088C9.17366 19.3763 8.86374 21.0458 8.88346 21.2761C8.89686 22.3162 8.05383 23.7925 7.7794 23.996C7.49629 23.429 7.03179 22.1617 6.87407 21.4448C6.73291 20.8005 6.89142 19.4946 7.60827 18.6058C7.69265 17.7533 8.3819 17.2936 9.33296 17.057C10.5388 16.7486 10.7059 16.0957 10.8574 15.9726C11.0088 15.8496 11.0703 16.1564 11.1618 16.5665C11.8147 16.3843 13.6538 14.9403 13.8659 14.9553C14.078 14.9703 14.2941 15.3457 14.2397 16.4119C14.816 16.7327 15.4753 16.8734 16.1324 16.8157C16.2586 17.3046 16.1024 17.8527 15.8351 18.3053C16.1608 18.4047 16.4904 18.5277 16.8287 18.6721Z" fill="#2A3276"/>
<path d="M8.88485 21.2759C8.89826 22.3161 8.05523 23.7924 7.7808 23.9959C7.49769 23.4289 7.0332 22.1616 6.87547 21.4447C6.73431 20.8004 6.89282 19.4945 7.60967 18.6057C8.67429 18.4196 8.76341 20.0189 8.88485 21.2759Z" fill="#262B62"/>
<path d="M16.8287 18.6721C16.3303 19.2202 15.1261 18.6358 15.0094 18.2778C14.7089 17.3464 13.9487 17.0049 13.4471 16.389C11.0221 17.6595 10.978 17.0136 10.754 16.9016C9.34318 18.0562 8.12003 17.7691 7.60901 18.6113C7.6926 17.7533 8.38185 17.2936 9.33292 17.057C10.5387 16.7486 10.7059 16.0957 10.8573 15.9726C11.0087 15.8496 11.0702 16.1564 11.1617 16.5665C11.8147 16.3843 13.6538 14.9403 13.8659 14.9553C14.078 14.9703 14.2941 15.3457 14.2397 16.4119C14.816 16.7327 15.4753 16.8734 16.1324 16.8157C16.2586 17.3046 16.1024 17.8527 15.8351 18.3054C16.1608 18.4047 16.4904 18.5277 16.8287 18.6721Z" fill="#3A4D86"/>
<path d="M16.0551 34.3868V29.7024C16.0551 28.9076 15.7394 28.1454 15.1774 27.5834C14.6154 27.0214 13.8532 26.7057 13.0584 26.7057H11.6625C16.395 27.3531 16.0551 32.211 16.0551 34.3868Z" fill="#5B72B7"/>
<path fill-rule="evenodd" clip-rule="evenodd" d="M33.2106 19.1791C33.2894 18.9094 33.2894 18.5695 33.2366 18.09C33.0584 16.5198 29.0443 16.4859 27.4947 17.7201C26.7715 18.2966 26.1241 19.1325 25.9577 20.28C25.9543 20.3338 25.9543 20.3878 25.9577 20.4416C25.8603 20.0426 25.8709 19.6247 25.9884 19.2311C26.3118 18.1633 26.5799 18.0797 27.1974 17.4583C27.8149 16.8369 28.3582 16.6933 28.3582 16.6933C28.3921 16.579 29.9709 16.3582 30.1208 16.3487C31.0017 16.2943 32.1515 16.4757 32.7027 16.7785C33.254 17.0813 34.0165 17.866 34.1309 18.161C34.2326 18.4251 34.2247 18.4709 33.2106 19.1791Z" fill="#326585"/>
<path fill-rule="evenodd" clip-rule="evenodd" d="M31.9332 17.6524C31.8985 17.8101 31.9293 18.6776 32.9205 19.9938C33.9118 21.31 33.9875 21.429 33.9875 21.429C33.9875 21.429 34.0175 23.8453 34.0293 23.742C34.0412 23.6387 34.564 21.2366 34.564 21.2366C34.6407 20.5487 34.6026 19.8529 34.4513 19.1775C34.1989 18.1445 33.8795 17.758 33.4418 17.5806C33.0041 17.4032 31.9332 17.6524 31.9332 17.6524Z" fill="#163B63"/>
<path fill-rule="evenodd" clip-rule="evenodd" d="M33.2106 19.1791C33.0592 19.7193 32.6286 19.9677 31.8502 20.4842C30.6846 21.2555 30.1807 21.2555 30.37 21.1616C30.4567 21.1191 30.6949 20.761 30.9268 20.3912C30.1113 20.6916 29.5333 20.7997 29.8487 20.6987C30.0774 20.6254 30.2888 20.4227 30.4544 20.2137C29.9989 20.5101 29.5171 20.7641 29.0152 20.9724C27.7865 21.4613 27.3449 21.2721 27.3449 21.2721L27.5121 21.0536C27.3191 21.1021 27.1238 21.1408 26.9269 21.1695C26.4214 21.2421 26.2566 21.1695 26.2566 21.1695C26.1173 20.944 26.0163 20.697 25.9577 20.4385C25.9544 20.3847 25.9544 20.3307 25.9577 20.2768C26.1241 19.1294 26.7716 18.2935 27.4947 17.717C29.0443 16.4828 33.0584 16.5167 33.2366 18.0869C33.2918 18.5695 33.2855 18.9094 33.2106 19.1791Z" fill="#1C4377"/>
<path fill-rule="evenodd" clip-rule="evenodd" d="M27.5751 29.4996C26.3252 30.3261 24.7299 28.7986 24.9901 28.7323C26.8134 28.271 26.0113 21.6348 25.9577 20.4417C26.0163 20.7002 26.1173 20.9472 26.2566 21.1727C26.2566 21.1727 26.4214 21.2429 26.9269 21.1727C26.7779 21.623 26.5373 22.9329 26.6966 24.3618C26.8693 25.9178 28.5049 28.8861 27.5751 29.4996Z" fill="#1C4377"/>
</svg>
