<svg width="45" height="45" viewBox="0 0 45 45" fill="none" xmlns="http://www.w3.org/2000/svg">
<mask id="mask0" mask-type="alpha" maskUnits="userSpaceOnUse" x="0" y="0" width="45" height="45">
<circle cx="22.5" cy="22.5" r="22" fill="white" stroke="#E2E4EA"/>
</mask>
<g mask="url(#mask0)">
<g opacity="0.15">
<path opacity="0.15" d="M22 43.2153C33.598 43.2153 43 33.8132 43 22.2152C43 10.6172 33.598 1.21521 22 1.21521C10.402 1.21521 1 10.6172 1 22.2152C1 33.8132 10.402 43.2153 22 43.2153Z" fill="#B2D0E9"/>
</g>
<g opacity="0.3">
<path opacity="0.3" d="M22.0001 41.2217C32.497 41.2217 41.0065 32.7123 41.0065 22.2153C41.0065 11.7183 32.497 3.20886 22.0001 3.20886C11.5031 3.20886 2.99365 11.7183 2.99365 22.2153C2.99365 32.7123 11.5031 41.2217 22.0001 41.2217Z" fill="#94B7DB"/>
</g>
<g opacity="0.3">
<path opacity="0.3" d="M21.9996 37.92C30.6732 37.92 37.7045 30.8888 37.7045 22.2152C37.7045 13.5417 30.6732 6.51038 21.9996 6.51038C13.3261 6.51038 6.2948 13.5417 6.2948 22.2152C6.2948 30.8888 13.3261 37.92 21.9996 37.92Z" fill="#94B7DB"/>
</g>
<path d="M33.7419 -2H10.2572V46.4313H33.7419V-2Z" fill="#1C4377"/>
<path d="M33.742 -2H32.3237V46.4313H33.742V-2Z" fill="#123356"/>
<path d="M33.7419 37.9484V39.6264C30.2724 41.9651 26.1836 43.2145 21.9995 43.2145C17.8154 43.2145 13.7267 41.9651 10.2572 39.6264V37.9484C13.649 40.4791 17.7676 41.8464 21.9995 41.8464C26.2314 41.8464 30.3501 40.4791 33.7419 37.9484Z" fill="#123356"/>
<path d="M20.3611 25.7845L17.7828 31.5737C17.7756 31.5901 17.7734 31.6082 17.7765 31.6258C17.7796 31.6434 17.7878 31.6597 17.8002 31.6727C17.8125 31.6856 17.8284 31.6947 17.8458 31.6986C17.8632 31.7026 17.8814 31.7013 17.8981 31.6949L19.5108 31.0775C19.5219 31.0732 19.5337 31.0711 19.5455 31.0713C19.5574 31.0716 19.5691 31.0742 19.5799 31.079C19.5908 31.0838 19.6006 31.0907 19.6088 31.0992C19.617 31.1078 19.6234 31.118 19.6276 31.129L20.2464 32.7417C20.253 32.7583 20.2642 32.7726 20.2788 32.7828C20.2934 32.793 20.3106 32.7986 20.3284 32.7991C20.3462 32.7996 20.3637 32.7948 20.3788 32.7854C20.3939 32.7759 20.4059 32.7623 20.4133 32.7461L22.9916 26.954L20.3611 25.7845Z" fill="#E56F2C"/>
<path d="M22.093 28.5631L20.4245 32.3123C20.4174 32.3288 20.4055 32.3428 20.3903 32.3524C20.3752 32.3621 20.3575 32.367 20.3396 32.3665C20.3217 32.3661 20.3043 32.3602 20.2897 32.3498C20.2751 32.3394 20.2639 32.3248 20.2576 32.308L19.723 30.9158C19.7189 30.9047 19.7126 30.8945 19.7045 30.8858C19.6964 30.8772 19.6867 30.8702 19.6759 30.8653C19.6651 30.8605 19.6534 30.8578 19.6416 30.8575C19.6297 30.8572 19.6179 30.8593 19.6069 30.8636L18.214 31.3975C18.1974 31.4037 18.1793 31.4048 18.162 31.4008C18.1447 31.3967 18.1289 31.3877 18.1167 31.3748C18.1045 31.3619 18.0964 31.3457 18.0933 31.3282C18.0902 31.3107 18.0923 31.2927 18.0994 31.2764L19.768 27.5271L19.9247 27.5996L18.4251 30.9688C18.4181 30.9851 18.4159 31.0031 18.419 31.0206C18.4221 31.0381 18.4302 31.0543 18.4425 31.0672C18.4547 31.0801 18.4704 31.0891 18.4877 31.0932C18.505 31.0972 18.5231 31.0961 18.5398 31.0899L19.7048 30.643C19.7159 30.6387 19.7277 30.6366 19.7395 30.6368C19.7514 30.6371 19.7631 30.6397 19.774 30.6445C19.7848 30.6493 19.7946 30.6561 19.8028 30.6647C19.811 30.6733 19.8174 30.6834 19.8216 30.6945L20.2685 31.8596C20.2748 31.8765 20.2859 31.891 20.3005 31.9015C20.3151 31.9119 20.3325 31.9177 20.3505 31.9182C20.3684 31.9186 20.3861 31.9137 20.4012 31.9041C20.4164 31.8944 20.4282 31.8805 20.4354 31.864L21.9356 28.4949L22.093 28.5631Z" fill="white"/>
<path d="M21.0074 26.9554L23.5857 32.7468C23.5931 32.763 23.6051 32.7767 23.6202 32.7861C23.6353 32.7955 23.6528 32.8003 23.6706 32.7998C23.6884 32.7994 23.7057 32.7937 23.7202 32.7835C23.7348 32.7733 23.7461 32.759 23.7526 32.7425L24.3729 31.1305C24.3816 31.1082 24.3988 31.0903 24.4206 31.0805C24.4424 31.0708 24.4672 31.0699 24.4897 31.0783L26.1017 31.6971C26.1184 31.7034 26.1366 31.7047 26.154 31.7008C26.1714 31.6968 26.1873 31.6878 26.1996 31.6749C26.212 31.6619 26.2202 31.6456 26.2233 31.628C26.2264 31.6104 26.2242 31.5923 26.217 31.5759L23.638 25.7845L21.0074 26.9554Z" fill="#E56F2C"/>
<path d="M24.2309 27.5271L25.8994 31.277C25.9068 31.2934 25.9091 31.3115 25.906 31.3292C25.903 31.3469 25.8947 31.3632 25.8823 31.3761C25.8699 31.3891 25.854 31.398 25.8365 31.4018C25.819 31.4056 25.8007 31.4041 25.7841 31.3975L24.3934 30.8635C24.3823 30.8592 24.3705 30.8571 24.3587 30.8573C24.3468 30.8576 24.3351 30.8602 24.3242 30.865C24.3134 30.8698 24.3036 30.8767 24.2954 30.8852C24.2872 30.8938 24.2808 30.904 24.2766 30.915L23.7404 32.3072C23.7342 32.324 23.723 32.3386 23.7084 32.349C23.6938 32.3595 23.6764 32.3653 23.6585 32.3658C23.6406 32.3662 23.6229 32.3613 23.6077 32.3517C23.5926 32.342 23.5807 32.328 23.5736 32.3116L21.905 28.5623L22.0617 28.4898L23.5627 31.864C23.5701 31.8801 23.5821 31.8938 23.5972 31.9032C23.6123 31.9127 23.6298 31.9174 23.6476 31.917C23.6654 31.9165 23.6826 31.9108 23.6972 31.9006C23.7118 31.8904 23.723 31.8762 23.7296 31.8596L24.1757 30.6923C24.18 30.6812 24.1864 30.6711 24.1946 30.6625C24.2027 30.6539 24.2126 30.647 24.2234 30.6423C24.2343 30.6375 24.246 30.6349 24.2578 30.6346C24.2697 30.6344 24.2815 30.6365 24.2925 30.6408L25.4569 31.0877C25.4735 31.0943 25.4918 31.0958 25.5093 31.092C25.5268 31.0882 25.5428 31.0793 25.5551 31.0664C25.5675 31.0534 25.5758 31.0371 25.5788 31.0194C25.5819 31.0018 25.5796 30.9836 25.5722 30.9673L24.072 27.5975L24.2309 27.5271Z" fill="white"/>
<path d="M26.152 26.505C26.6829 24.2126 25.2549 21.9239 22.9625 21.3929C20.6701 20.862 18.3813 22.29 17.8504 24.5824C17.3194 26.8748 18.7474 29.1636 21.0398 29.6945C23.3322 30.2254 25.621 28.7975 26.152 26.505Z" fill="#E56F2C"/>
<g opacity="0.7">
<path opacity="0.7" d="M21.7278 29.7934L21.566 30.1562C20.5862 30.0657 19.6611 29.664 18.926 29.0099L19.0856 28.6472C19.8057 29.3258 20.7403 29.7313 21.7278 29.7934Z" fill="#B65638"/>
<path opacity="0.7" d="M25.0734 29.0098C24.3387 29.6636 23.4141 30.0653 22.4349 30.1561L22.2745 29.7933C23.2615 29.732 24.196 29.3272 24.916 28.6493L25.0734 29.0098Z" fill="#B65638"/>
</g>
<path d="M21.9995 29.488C21.219 29.488 20.4559 29.2565 19.8069 28.8229C19.1579 28.3892 18.6521 27.7729 18.3534 27.0517C18.0547 26.3306 17.9765 25.5371 18.1288 24.7716C18.2811 24.006 18.657 23.3028 19.2089 22.7509C19.7608 22.199 20.464 21.8231 21.2296 21.6708C21.9951 21.5185 22.7887 21.5967 23.5098 21.8954C24.2309 22.1941 24.8473 22.6999 25.2809 23.3489C25.7146 23.9979 25.946 24.7609 25.946 25.5415C25.9449 26.5878 25.5287 27.591 24.7889 28.3308C24.049 29.0707 23.0458 29.4868 21.9995 29.488ZM21.9995 21.772C21.2534 21.772 20.524 21.9932 19.9037 22.4078C19.2833 22.8223 18.7998 23.4114 18.5142 24.1008C18.2287 24.7901 18.154 25.5486 18.2996 26.2803C18.4451 27.0121 18.8044 27.6843 19.332 28.2119C19.8596 28.7395 20.5318 29.0987 21.2636 29.2443C21.9953 29.3899 22.7538 29.3152 23.4432 29.0296C24.1325 28.7441 24.7216 28.2606 25.1362 27.6402C25.5507 27.0199 25.7719 26.2905 25.7719 25.5444C25.7719 24.5439 25.3745 23.5844 24.667 22.8769C23.9596 22.1694 23 21.772 21.9995 21.772Z" fill="white"/>
<path d="M20.9881 23.2433C20.9432 23.2223 20.9033 23.192 20.8709 23.1545C20.8385 23.117 20.8144 23.0731 20.8002 23.0256C20.846 23.0054 20.8957 22.9954 20.9457 22.9961C20.9958 22.9969 21.0451 23.0084 21.0904 23.03C21.1352 23.0511 21.1752 23.0814 21.2077 23.1188C21.2402 23.1563 21.2645 23.2002 21.279 23.2476C21.2331 23.268 21.1833 23.2781 21.133 23.2774C21.0828 23.2766 21.0334 23.265 20.9881 23.2433Z" fill="white"/>
<path d="M21.0174 22.8326C20.9967 22.8779 20.9666 22.9183 20.929 22.951C20.8915 22.9838 20.8475 23.0082 20.7998 23.0227C20.7802 22.9767 20.7705 22.9271 20.7713 22.8772C20.772 22.8272 20.7832 22.7779 20.8041 22.7325C20.8249 22.6873 20.855 22.6469 20.8926 22.6141C20.9301 22.5814 20.9741 22.5569 21.0218 22.5425C21.0415 22.5884 21.0513 22.638 21.0506 22.688C21.0498 22.738 21.0385 22.7873 21.0174 22.8326Z" fill="white"/>
<path d="M20.6142 23.4355C20.5661 23.4224 20.5213 23.3994 20.4827 23.3677C20.4442 23.3361 20.4129 23.2966 20.3907 23.2519C20.4322 23.2244 20.4791 23.2061 20.5282 23.1981C20.5773 23.1902 20.6276 23.1927 20.6756 23.2057C20.7237 23.2187 20.7684 23.2417 20.8069 23.2734C20.8453 23.305 20.8766 23.3444 20.8986 23.389C20.8573 23.4168 20.8105 23.4353 20.7615 23.4433C20.7124 23.4513 20.6621 23.4487 20.6142 23.4355Z" fill="white"/>
<path d="M20.5723 23.0263C20.5594 23.0744 20.5364 23.1193 20.5051 23.1581C20.4737 23.1968 20.4346 23.2285 20.3902 23.2512C20.363 23.2093 20.3449 23.1621 20.337 23.1128C20.3291 23.0634 20.3317 23.013 20.3445 22.9647C20.3572 22.9163 20.38 22.8712 20.4113 22.8323C20.4427 22.7934 20.482 22.7616 20.5266 22.739C20.5536 22.7812 20.5717 22.8284 20.5795 22.8779C20.5874 22.9273 20.5849 22.9779 20.5723 23.0263Z" fill="white"/>
<path d="M20.2776 23.6909C20.2281 23.6865 20.1802 23.6716 20.1369 23.6472C20.0936 23.6228 20.056 23.5895 20.0266 23.5494C20.0624 23.5152 20.1052 23.4889 20.1519 23.4724C20.1986 23.4559 20.2484 23.4496 20.2978 23.4538C20.3472 23.4579 20.3951 23.4726 20.4384 23.4967C20.4817 23.5208 20.5194 23.5539 20.5489 23.5937C20.5133 23.6282 20.4706 23.6548 20.4238 23.6716C20.377 23.6883 20.3272 23.6949 20.2776 23.6909Z" fill="white"/>
<path d="M20.1656 23.2947C20.1614 23.3445 20.1468 23.3928 20.1226 23.4366C20.0985 23.4803 20.0655 23.5185 20.0256 23.5486C19.9916 23.5121 19.9657 23.4687 19.9495 23.4215C19.9332 23.3743 19.9271 23.3242 19.9314 23.2744C19.9357 23.2247 19.9504 23.1764 19.9745 23.1327C19.9986 23.0889 20.0316 23.0507 20.0713 23.0205C20.1051 23.0573 20.1309 23.1006 20.1471 23.1478C20.1633 23.195 20.1696 23.245 20.1656 23.2947Z" fill="white"/>
<path d="M19.9903 24.0021C19.9408 24.0064 19.8909 24.0001 19.8439 23.9836C19.797 23.9671 19.7542 23.9407 19.7183 23.9063C19.7476 23.8662 19.7852 23.8328 19.8286 23.8085C19.8719 23.7841 19.9199 23.7692 19.9694 23.7649C20.019 23.7605 20.0688 23.7669 20.1157 23.7834C20.1626 23.7999 20.2054 23.8262 20.2413 23.8606C20.2119 23.9006 20.1743 23.9339 20.131 23.9583C20.0877 23.9827 20.0398 23.9976 19.9903 24.0021Z" fill="white"/>
<path d="M19.8116 23.6314C19.8159 23.6811 19.8097 23.7312 19.7934 23.7784C19.7772 23.8257 19.7512 23.869 19.7173 23.9056C19.6775 23.8754 19.6446 23.8373 19.6205 23.7936C19.5964 23.75 19.5817 23.7017 19.5774 23.652C19.5731 23.6023 19.5792 23.5523 19.5955 23.5051C19.6117 23.4579 19.6376 23.4147 19.6716 23.3782C19.7114 23.4082 19.7444 23.4462 19.7686 23.4898C19.7927 23.5335 19.8074 23.5817 19.8116 23.6314Z" fill="white"/>
<path d="M19.7601 24.359C19.7121 24.3719 19.6619 24.3745 19.6129 24.3665C19.5639 24.3585 19.5171 24.3401 19.4757 24.3126C19.4979 24.268 19.5293 24.2286 19.5678 24.197C19.6063 24.1653 19.6511 24.1422 19.6992 24.1291C19.747 24.1162 19.7971 24.1136 19.846 24.1216C19.8949 24.1296 19.9416 24.148 19.9828 24.1755C19.9607 24.22 19.9294 24.2594 19.891 24.291C19.8526 24.3226 19.808 24.3458 19.7601 24.359Z" fill="white"/>
<path d="M19.5207 24.0288C19.5335 24.0772 19.5361 24.1276 19.5282 24.177C19.5203 24.2263 19.5022 24.2735 19.475 24.3154C19.4304 24.2931 19.391 24.2614 19.3596 24.2226C19.3282 24.1839 19.3055 24.1388 19.2929 24.0905C19.28 24.0422 19.2775 23.9917 19.2853 23.9424C19.2932 23.893 19.3114 23.8459 19.3386 23.804C19.383 23.8265 19.4222 23.8582 19.4536 23.897C19.485 23.9357 19.5078 23.9807 19.5207 24.0288Z" fill="white"/>
<path d="M19.5943 24.7544C19.5491 24.7761 19.4998 24.7877 19.4496 24.7885C19.3995 24.7893 19.3499 24.7791 19.3041 24.7588C19.3184 24.7114 19.3426 24.6675 19.3749 24.63C19.4073 24.5925 19.4472 24.5623 19.492 24.5412C19.5372 24.5197 19.5866 24.5082 19.6367 24.5076C19.6868 24.507 19.7364 24.5172 19.7822 24.5375C19.7677 24.5848 19.7435 24.6285 19.7112 24.6659C19.6788 24.7032 19.639 24.7334 19.5943 24.7544Z" fill="white"/>
<path d="M19.3013 24.4642C19.3223 24.5096 19.3335 24.5589 19.3343 24.6089C19.335 24.6589 19.3252 24.7085 19.3056 24.7544C19.2579 24.74 19.2139 24.7155 19.1764 24.6828C19.1389 24.65 19.1087 24.6096 19.088 24.5644C19.067 24.519 19.0558 24.4697 19.0551 24.4197C19.0543 24.3697 19.0641 24.3202 19.0836 24.2742C19.1313 24.2886 19.1754 24.313 19.2129 24.3457C19.2505 24.3785 19.2806 24.4189 19.3013 24.4642Z" fill="white"/>
<path d="M19.498 25.1664C19.4574 25.1951 19.4112 25.2148 19.3624 25.2241C19.3136 25.2335 19.2634 25.2324 19.2151 25.2208C19.2206 25.1715 19.2363 25.1239 19.2613 25.0811C19.2863 25.0382 19.32 25.0011 19.3602 24.972C19.4006 24.9432 19.4466 24.9234 19.4953 24.9139C19.544 24.9044 19.5941 24.9054 19.6424 24.9169C19.6371 24.9663 19.6216 25.014 19.5967 25.057C19.5718 25.1 19.5382 25.1373 19.498 25.1664Z" fill="white"/>
<path d="M19.16 24.9357C19.1886 24.9768 19.2082 25.0234 19.2175 25.0725C19.2269 25.1216 19.2259 25.1721 19.2144 25.2208C19.165 25.215 19.1174 25.1987 19.0748 25.1731C19.0321 25.1474 18.9954 25.113 18.9671 25.0721C18.9389 25.0309 18.9195 24.9843 18.9101 24.9352C18.9008 24.8862 18.9016 24.8357 18.9127 24.787C18.9621 24.7928 19.0097 24.8091 19.0523 24.8348C19.095 24.8604 19.1317 24.8948 19.16 24.9357Z" fill="white"/>
<path d="M19.4745 25.593C19.4396 25.6283 19.3975 25.6558 19.351 25.6735C19.3046 25.6913 19.255 25.699 19.2054 25.696C19.2027 25.6461 19.2104 25.5962 19.2282 25.5495C19.2459 25.5028 19.2732 25.4603 19.3084 25.4247C19.3432 25.3893 19.3851 25.3618 19.4314 25.3439C19.4777 25.326 19.5273 25.3182 19.5768 25.321C19.5799 25.371 19.5724 25.4211 19.5548 25.4679C19.5371 25.5148 19.5098 25.5574 19.4745 25.593Z" fill="white"/>
<path d="M19.102 25.4246C19.1368 25.4604 19.1638 25.5029 19.1814 25.5496C19.199 25.5963 19.2068 25.6461 19.2043 25.6959C19.1547 25.6988 19.105 25.6911 19.0586 25.6734C19.0122 25.6556 18.9701 25.6282 18.9351 25.5929C18.8999 25.5573 18.8725 25.5147 18.8549 25.4678C18.8373 25.4209 18.8297 25.3708 18.8328 25.3209C18.8825 25.3181 18.9321 25.3259 18.9785 25.3438C19.0249 25.3617 19.067 25.3892 19.102 25.4246Z" fill="white"/>
<path d="M19.5242 26.013C19.4959 26.054 19.4592 26.0885 19.4166 26.1143C19.3739 26.1401 19.3263 26.1565 19.2768 26.1625C19.2652 26.1139 19.264 26.0634 19.2732 26.0143C19.2824 25.9653 19.3018 25.9187 19.3302 25.8776C19.3586 25.8366 19.3954 25.8019 19.438 25.776C19.4807 25.7501 19.5284 25.7334 19.5779 25.7272C19.5895 25.7759 19.5907 25.8266 19.5815 25.8758C19.5722 25.9251 19.5527 25.9718 19.5242 26.013Z" fill="white"/>
<path d="M19.1283 25.9152C19.1685 25.9444 19.2022 25.9817 19.2272 26.0246C19.2522 26.0676 19.2679 26.1153 19.2734 26.1647C19.225 26.1763 19.1748 26.1774 19.126 26.168C19.0772 26.1586 19.031 26.139 18.9904 26.1103C18.95 26.0813 18.9162 26.044 18.8912 26.001C18.8662 25.958 18.8506 25.9102 18.8453 25.8608C18.8936 25.8491 18.9439 25.848 18.9927 25.8573C19.0415 25.8667 19.0877 25.8864 19.1283 25.9152Z" fill="white"/>
<path d="M19.6462 26.423C19.6253 26.4681 19.5952 26.5083 19.5576 26.5409C19.5201 26.5736 19.4761 26.5979 19.4286 26.6123C19.4089 26.5664 19.3991 26.5168 19.3997 26.4669C19.4003 26.4169 19.4114 26.3676 19.4322 26.3222C19.453 26.2769 19.4832 26.2366 19.5207 26.2038C19.5582 26.1711 19.6022 26.1466 19.6498 26.1321C19.6693 26.1782 19.6791 26.2279 19.6785 26.2779C19.6779 26.328 19.6669 26.3774 19.6462 26.423Z" fill="white"/>
<path d="M19.2424 26.3894C19.2873 26.4104 19.3273 26.4407 19.3596 26.4782C19.392 26.5157 19.4161 26.5596 19.4303 26.6071C19.3845 26.6273 19.3349 26.6373 19.2848 26.6366C19.2347 26.6358 19.1854 26.6243 19.1402 26.6027C19.0952 26.5817 19.0552 26.5515 19.0227 26.514C18.9902 26.4765 18.9659 26.4326 18.9515 26.3851C18.9975 26.3649 19.0473 26.3549 19.0975 26.3556C19.1477 26.3564 19.1971 26.3679 19.2424 26.3894Z" fill="white"/>
<path d="M19.8362 26.7973C19.8236 26.8455 19.801 26.8905 19.7697 26.9292C19.7384 26.968 19.6993 26.9997 19.6549 27.0222C19.6276 26.9804 19.6095 26.9334 19.6016 26.8841C19.5936 26.8349 19.5962 26.7845 19.609 26.7363C19.6217 26.6881 19.6445 26.6431 19.6758 26.6042C19.7071 26.5654 19.7462 26.5335 19.7905 26.5107C19.8178 26.5527 19.8359 26.5998 19.8438 26.6492C19.8516 26.6985 19.8491 26.749 19.8362 26.7973Z" fill="white"/>
<path d="M19.4309 26.8393C19.4788 26.8525 19.5235 26.8756 19.5619 26.9073C19.6002 26.9389 19.6315 26.9783 19.6536 27.0229C19.6123 27.0504 19.5657 27.0687 19.5168 27.0767C19.4679 27.0847 19.4178 27.0822 19.3699 27.0693C19.3219 27.0562 19.2771 27.033 19.2386 27.0014C19.2001 26.9698 19.1687 26.9304 19.1465 26.8858C19.1879 26.8583 19.2347 26.84 19.2837 26.832C19.3327 26.824 19.3829 26.8265 19.4309 26.8393Z" fill="white"/>
<path d="M20.0893 27.1368C20.0851 27.1864 20.0704 27.2347 20.0463 27.2783C20.0222 27.3219 19.9891 27.36 19.9493 27.39C19.9151 27.3535 19.889 27.3103 19.8726 27.2631C19.8563 27.2159 19.85 27.1658 19.8544 27.1161C19.8587 27.0663 19.8734 27.018 19.8977 26.9743C19.9219 26.9306 19.955 26.8926 19.995 26.8625C20.0289 26.8992 20.0549 26.9425 20.0711 26.9897C20.0874 27.0369 20.0936 27.087 20.0893 27.1368Z" fill="white"/>
<path d="M19.6973 27.2492C19.7468 27.2536 19.7948 27.2685 19.8381 27.2929C19.8814 27.3173 19.919 27.3506 19.9484 27.3907C19.9125 27.4251 19.8696 27.4514 19.8228 27.468C19.7759 27.4845 19.726 27.4908 19.6765 27.4864C19.6269 27.4821 19.5789 27.4673 19.5356 27.4429C19.4923 27.4185 19.4547 27.3851 19.4253 27.345C19.4612 27.3106 19.5041 27.2843 19.551 27.2678C19.5979 27.2513 19.6478 27.245 19.6973 27.2492Z" fill="white"/>
<path d="M20.3972 27.427C20.4018 27.4768 20.3958 27.527 20.3795 27.5742C20.3632 27.6215 20.3371 27.6648 20.3029 27.7012C20.2631 27.671 20.2301 27.6328 20.206 27.5891C20.1819 27.5453 20.1673 27.497 20.163 27.4473C20.1586 27.3975 20.1648 27.3474 20.181 27.3002C20.1973 27.253 20.2232 27.2097 20.2572 27.1731C20.2971 27.2031 20.3303 27.2413 20.3544 27.2851C20.3785 27.3288 20.3931 27.3772 20.3972 27.427Z" fill="white"/>
<path d="M20.0307 27.607C20.0801 27.6025 20.1298 27.6087 20.1766 27.6251C20.2234 27.6415 20.2662 27.6677 20.302 27.702C20.2726 27.7421 20.235 27.7754 20.1917 27.7998C20.1484 27.8242 20.1004 27.8391 20.051 27.8435C20.0015 27.8479 19.9516 27.8417 19.9047 27.8253C19.8578 27.8089 19.8149 27.7827 19.7789 27.7485C19.8084 27.7083 19.8461 27.6749 19.8895 27.6505C19.9329 27.6261 19.981 27.6112 20.0307 27.607Z" fill="white"/>
<path d="M20.7513 27.6562C20.7641 27.7045 20.7667 27.755 20.7588 27.8043C20.751 27.8537 20.7328 27.9008 20.7056 27.9428C20.6612 27.9199 20.6221 27.888 20.5908 27.8491C20.5595 27.8101 20.5368 27.7651 20.524 27.7168C20.5112 27.6685 20.5087 27.6181 20.5166 27.5688C20.5245 27.5195 20.5427 27.4724 20.57 27.4305C20.6144 27.4533 20.6534 27.4851 20.6847 27.524C20.7159 27.5629 20.7386 27.6079 20.7513 27.6562Z" fill="white"/>
<path d="M20.4212 27.9007C20.469 27.8878 20.519 27.8851 20.568 27.893C20.6169 27.9009 20.6635 27.9191 20.7048 27.9464C20.683 27.9912 20.6518 28.0308 20.6134 28.0626C20.575 28.0943 20.5302 28.1175 20.4821 28.1305C20.434 28.1434 20.3837 28.146 20.3345 28.1379C20.2853 28.1298 20.2384 28.1113 20.197 28.0835C20.2192 28.0389 20.2507 27.9995 20.2894 27.9679C20.328 27.9364 20.373 27.9135 20.4212 27.9007Z" fill="white"/>
<path d="M21.1401 27.8261C21.1611 27.8715 21.1723 27.9207 21.173 27.9707C21.1738 28.0207 21.164 28.0703 21.1445 28.1162C21.0968 28.102 21.0527 28.0778 21.0152 28.0451C20.9776 28.0125 20.9475 27.9722 20.9268 27.9269C20.9058 27.8815 20.8946 27.8323 20.8938 27.7823C20.8931 27.7323 20.9028 27.6827 20.9225 27.6367C20.97 27.6513 21.0139 27.6757 21.0514 27.7083C21.0889 27.7409 21.1191 27.781 21.1401 27.8261Z" fill="white"/>
<path d="M20.8555 28.122C20.9007 28.1004 20.95 28.0888 21.0001 28.0881C21.0502 28.0873 21.0999 28.0974 21.1457 28.1176C21.1313 28.165 21.1072 28.2089 21.0748 28.2464C21.0425 28.2839 21.0026 28.3142 20.9578 28.3353C20.9125 28.3567 20.8632 28.3682 20.8132 28.3689C20.7631 28.3697 20.7135 28.3597 20.6676 28.3396C20.6818 28.2922 20.7059 28.2482 20.7383 28.2107C20.7707 28.1732 20.8106 28.143 20.8555 28.122Z" fill="white"/>
<path d="M21.4837 22.8943C21.4367 22.912 21.3864 22.9193 21.3363 22.9157C21.2862 22.912 21.2374 22.8976 21.1935 22.8733C21.2116 22.8268 21.2394 22.7847 21.2751 22.7498C21.3107 22.7149 21.3534 22.688 21.4002 22.6709C21.4472 22.6531 21.4975 22.6457 21.5477 22.6493C21.5978 22.653 21.6465 22.6675 21.6904 22.6919C21.6722 22.7383 21.6444 22.7804 21.6088 22.8153C21.5731 22.8502 21.5305 22.8771 21.4837 22.8943Z" fill="white"/>
<path d="M22.3953 28.7713L22.3641 28.8025C22.2511 28.7019 22.1298 28.6111 22.0013 28.5312C21.9874 28.5237 21.9738 28.5155 21.9607 28.5065C21.7001 28.3557 21.4238 28.2341 21.1366 28.1438L21.0495 28.1133C21.0285 28.1046 21.0075 28.0981 20.9864 28.0886C20.8869 28.0527 20.79 28.01 20.6962 27.961C20.6529 27.9406 20.6108 27.9178 20.57 27.8928C20.5243 27.8667 20.4808 27.8405 20.4387 27.8108C20.3966 27.781 20.34 27.7455 20.2936 27.71C20.2595 27.6853 20.2254 27.6592 20.192 27.6316C20.1048 27.5585 20.0217 27.4805 19.9432 27.398C19.9142 27.3683 19.8852 27.3371 19.8576 27.3059C19.7806 27.2184 19.7096 27.1258 19.645 27.0287C19.6196 26.991 19.595 26.9562 19.5725 26.9156C19.5125 26.8191 19.4589 26.7187 19.4122 26.6152C19.3928 26.5698 19.3739 26.5241 19.3556 26.4781C19.3161 26.3763 19.2832 26.2721 19.2569 26.1662C19.2438 26.1139 19.2322 26.0617 19.2214 26.0095C19.2019 25.9058 19.1884 25.8012 19.1807 25.6961C19.1807 25.6402 19.1742 25.5865 19.1742 25.5307V25.506C19.174 25.409 19.1794 25.3122 19.1902 25.2158C19.1952 25.1599 19.2032 25.1063 19.2134 25.0526C19.2317 24.9492 19.2559 24.847 19.2859 24.7464C19.3004 24.6942 19.3178 24.6441 19.336 24.5934C19.3719 24.4943 19.4135 24.3974 19.4608 24.3032C19.4832 24.2575 19.5057 24.2132 19.5333 24.1697C19.5862 24.0756 19.6451 23.9849 19.7096 23.8984C19.7372 23.8606 19.7647 23.8258 19.7937 23.7888C19.8647 23.7008 19.941 23.6172 20.0223 23.5385C20.0527 23.5095 20.0854 23.4783 20.1195 23.4493C20.2041 23.3734 20.2938 23.3034 20.3879 23.2396C20.4264 23.2135 20.4655 23.1874 20.5062 23.1635C20.5999 23.1063 20.6968 23.0545 20.7963 23.0082C20.8428 22.9857 20.8914 22.9647 20.9414 22.9451C21.0293 22.9101 21.1189 22.8796 21.2099 22.8537C21.286 22.8305 21.3637 22.8123 21.4413 22.7964L21.4514 22.837C21.3789 22.8515 21.3063 22.8697 21.2338 22.8907C21.1297 22.92 21.0275 22.9556 20.9277 22.9973C20.8886 23.0128 20.8503 23.0303 20.813 23.0496C20.715 23.0933 20.6202 23.144 20.5294 23.2012C20.4887 23.2259 20.4488 23.252 20.4097 23.281C20.3223 23.3408 20.2384 23.4057 20.1587 23.4754C20.1202 23.5066 20.0861 23.5407 20.0491 23.5755C19.9721 23.6506 19.8994 23.7301 19.8315 23.8135C19.801 23.8512 19.772 23.886 19.7444 23.9281C19.6779 24.0176 19.6173 24.1114 19.563 24.2089C19.5406 24.248 19.521 24.2872 19.5014 24.3264C19.4484 24.4323 19.4026 24.5416 19.3643 24.6536C19.351 24.6899 19.3396 24.727 19.3302 24.7646C19.2958 24.8791 19.2698 24.9959 19.2525 25.1142C19.246 25.1512 19.2409 25.1868 19.238 25.2267C19.2267 25.3203 19.2211 25.4146 19.2214 25.5089C19.2214 25.535 19.2214 25.5611 19.2214 25.5872C19.2214 25.625 19.2214 25.6598 19.2257 25.699C19.2338 25.8136 19.25 25.9276 19.2743 26.0399C19.2823 26.0806 19.291 26.1219 19.3019 26.1625C19.3282 26.2687 19.3619 26.373 19.4027 26.4745C19.4187 26.5187 19.4361 26.5608 19.4557 26.6036C19.4993 26.7014 19.549 26.7964 19.6044 26.888C19.6291 26.9301 19.6552 26.9693 19.682 27.0099C19.7416 27.0973 19.806 27.1814 19.875 27.2616C19.9076 27.2993 19.941 27.3342 19.9751 27.3726C20.0479 27.4496 20.1252 27.5223 20.2065 27.5903C20.2443 27.6214 20.2827 27.6526 20.3233 27.6838C20.364 27.715 20.4024 27.739 20.443 27.7673C20.4837 27.7956 20.5453 27.8326 20.5997 27.8652C20.6389 27.8862 20.6795 27.9095 20.7194 27.9305C20.8251 27.9837 20.9339 28.0305 21.0452 28.0705L21.0648 28.077L21.1518 28.1082C21.4485 28.2018 21.7337 28.3283 22.0021 28.4855L22.042 28.5116C22.1666 28.5885 22.2847 28.6753 22.3953 28.7713Z" fill="white"/>
<path d="M23.0108 23.2433C23.0556 23.2223 23.0956 23.192 23.128 23.1545C23.1603 23.117 23.1844 23.0731 23.1987 23.0256C23.1528 23.0054 23.1032 22.9954 23.0531 22.9961C23.003 22.9969 22.9537 23.0084 22.9085 23.03C22.8636 23.0511 22.8236 23.0814 22.7911 23.1188C22.7586 23.1563 22.7344 23.2002 22.7198 23.2476C22.7658 23.268 22.8156 23.2781 22.8658 23.2774C22.916 23.2766 22.9655 23.265 23.0108 23.2433Z" fill="white"/>
<path d="M22.9822 22.8326C23.0029 22.8779 23.033 22.9183 23.0705 22.951C23.1081 22.9838 23.1521 23.0082 23.1998 23.0227C23.2193 22.9767 23.229 22.9271 23.2283 22.8772C23.2275 22.8272 23.2163 22.7779 23.1954 22.7325C23.1747 22.6873 23.1445 22.6469 23.107 22.6141C23.0695 22.5814 23.0255 22.5569 22.9778 22.5425C22.9581 22.5884 22.9483 22.638 22.949 22.688C22.9498 22.738 22.9611 22.7873 22.9822 22.8326Z" fill="white"/>
<path d="M23.3851 23.4355C23.4332 23.4224 23.478 23.3994 23.5165 23.3677C23.5551 23.3361 23.5864 23.2966 23.6085 23.2519C23.567 23.2244 23.5202 23.2061 23.4711 23.1981C23.4219 23.1902 23.3717 23.1927 23.3236 23.2057C23.2756 23.2187 23.2309 23.2417 23.1924 23.2734C23.154 23.305 23.1227 23.3444 23.1007 23.389C23.142 23.4168 23.1887 23.4353 23.2378 23.4433C23.2869 23.4513 23.3371 23.4487 23.3851 23.4355Z" fill="white"/>
<path d="M23.4274 23.0263C23.4403 23.0744 23.4632 23.1193 23.4946 23.1581C23.5259 23.1968 23.5651 23.2285 23.6094 23.2512C23.6367 23.2093 23.6548 23.1621 23.6627 23.1128C23.6705 23.0634 23.668 23.013 23.6551 22.9647C23.6425 22.9163 23.6197 22.8712 23.5883 22.8323C23.5569 22.7934 23.5176 22.7616 23.4731 22.739C23.446 22.7812 23.428 22.8284 23.4202 22.8779C23.4123 22.9273 23.4147 22.9779 23.4274 23.0263Z" fill="white"/>
<path d="M23.7219 23.6909C23.7713 23.6865 23.8193 23.6716 23.8626 23.6472C23.9059 23.6228 23.9435 23.5895 23.9729 23.5494C23.937 23.5152 23.8943 23.4889 23.8476 23.4724C23.8008 23.4559 23.7511 23.4496 23.7017 23.4538C23.6523 23.4579 23.6044 23.4726 23.5611 23.4967C23.5178 23.5208 23.4801 23.5539 23.4506 23.5937C23.4863 23.6282 23.5289 23.6548 23.5757 23.6716C23.6225 23.6883 23.6723 23.6949 23.7219 23.6909Z" fill="white"/>
<path d="M23.8334 23.2947C23.8377 23.3445 23.8523 23.3928 23.8764 23.4366C23.9005 23.4803 23.9336 23.5185 23.9734 23.5486C24.0074 23.5121 24.0333 23.4687 24.0496 23.4215C24.0658 23.3743 24.072 23.3242 24.0677 23.2744C24.0633 23.2247 24.0487 23.1764 24.0246 23.1327C24.0005 23.0889 23.9675 23.0507 23.9277 23.0205C23.894 23.0573 23.8682 23.1006 23.852 23.1478C23.8358 23.195 23.8294 23.245 23.8334 23.2947Z" fill="white"/>
<path d="M24.0088 24.0021C24.0584 24.0064 24.1083 24.0001 24.1552 23.9836C24.2022 23.9671 24.245 23.9407 24.2809 23.9063C24.2515 23.8662 24.2139 23.8328 24.1706 23.8085C24.1273 23.7841 24.0793 23.7692 24.0297 23.7649C23.9802 23.7605 23.9303 23.7669 23.8834 23.7834C23.8365 23.7999 23.7937 23.8262 23.7578 23.8606C23.7873 23.9006 23.8249 23.9339 23.8681 23.9583C23.9114 23.9827 23.9594 23.9976 24.0088 24.0021Z" fill="white"/>
<path d="M24.1876 23.6314C24.1833 23.6811 24.1895 23.7312 24.2058 23.7784C24.222 23.8257 24.2479 23.869 24.2819 23.9056C24.3216 23.8754 24.3546 23.8373 24.3787 23.7936C24.4028 23.75 24.4175 23.7017 24.4218 23.652C24.4261 23.6023 24.4199 23.5523 24.4037 23.5051C24.3875 23.4579 24.3616 23.4147 24.3276 23.3782C24.2878 23.4082 24.2547 23.4462 24.2306 23.4898C24.2065 23.5335 24.1918 23.5817 24.1876 23.6314Z" fill="white"/>
<path d="M24.2393 24.359C24.2873 24.3719 24.3375 24.3744 24.3865 24.3664C24.4355 24.3584 24.4823 24.34 24.5237 24.3126C24.5015 24.268 24.4701 24.2286 24.4316 24.197C24.3931 24.1653 24.3483 24.1422 24.3003 24.1291C24.2524 24.1162 24.2023 24.1136 24.1534 24.1216C24.1045 24.1296 24.0579 24.148 24.0166 24.1755C24.0388 24.22 24.07 24.2593 24.1084 24.291C24.1468 24.3226 24.1914 24.3458 24.2393 24.359Z" fill="white"/>
<path d="M24.4787 24.0288C24.4658 24.0772 24.4633 24.1276 24.4711 24.177C24.479 24.2263 24.4971 24.2735 24.5244 24.3154C24.569 24.2931 24.6083 24.2614 24.6397 24.2226C24.6711 24.1839 24.6938 24.1388 24.7064 24.0905C24.7193 24.0422 24.7218 23.9917 24.7139 23.9424C24.7061 23.893 24.6879 23.8459 24.6607 23.804C24.6163 23.8265 24.5771 23.8582 24.5457 23.897C24.5143 23.9357 24.4915 23.9807 24.4787 24.0288Z" fill="white"/>
<path d="M24.4055 24.7544C24.4507 24.7761 24.5001 24.7877 24.5502 24.7885C24.6003 24.7893 24.6499 24.7791 24.6957 24.7588C24.6814 24.7114 24.6572 24.6675 24.6249 24.63C24.5925 24.5925 24.5526 24.5623 24.5078 24.5412C24.4626 24.5197 24.4132 24.5082 24.3631 24.5076C24.3131 24.507 24.2634 24.5172 24.2177 24.5375C24.2321 24.5848 24.2563 24.6285 24.2886 24.6659C24.321 24.7032 24.3608 24.7334 24.4055 24.7544Z" fill="white"/>
<path d="M24.6982 24.4642C24.6772 24.5096 24.666 24.5589 24.6652 24.6089C24.6645 24.6589 24.6742 24.7085 24.6938 24.7544C24.7415 24.74 24.7856 24.7155 24.8231 24.6828C24.8606 24.65 24.8907 24.6096 24.9115 24.5644C24.9324 24.519 24.9436 24.4697 24.9443 24.4197C24.9451 24.3697 24.9354 24.3202 24.9158 24.2742C24.8681 24.2886 24.824 24.313 24.7865 24.3457C24.749 24.3785 24.7189 24.4189 24.6982 24.4642Z" fill="white"/>
<path d="M24.5007 25.1664C24.5413 25.1951 24.5875 25.2148 24.6363 25.2241C24.6851 25.2335 24.7353 25.2324 24.7836 25.2208C24.7781 25.1715 24.7624 25.1239 24.7374 25.0811C24.7124 25.0382 24.6787 25.0011 24.6385 24.972C24.5981 24.9432 24.5521 24.9234 24.5034 24.9139C24.4547 24.9044 24.4046 24.9054 24.3563 24.9169C24.3616 24.9663 24.3771 25.014 24.402 25.057C24.4269 25.1 24.4605 25.1373 24.5007 25.1664Z" fill="white"/>
<path d="M24.839 24.9357C24.8104 24.9768 24.7908 25.0234 24.7815 25.0725C24.7721 25.1216 24.7732 25.1721 24.7846 25.2208C24.834 25.215 24.8816 25.1987 24.9243 25.1731C24.9669 25.1474 25.0036 25.113 25.032 25.0721C25.0604 25.031 25.0798 24.9844 25.0891 24.9352C25.0983 24.8861 25.0972 24.8356 25.0857 24.787C25.0364 24.7929 24.9889 24.8093 24.9464 24.8349C24.9038 24.8605 24.8672 24.8949 24.839 24.9357Z" fill="white"/>
<path d="M24.5251 25.593C24.5601 25.6283 24.6022 25.6558 24.6486 25.6735C24.695 25.6913 24.7446 25.699 24.7943 25.696C24.797 25.6461 24.7892 25.5962 24.7714 25.5495C24.7537 25.5028 24.7264 25.4603 24.6912 25.4247C24.6564 25.3893 24.6145 25.3618 24.5682 25.3439C24.5219 25.326 24.4723 25.3182 24.4228 25.321C24.4197 25.371 24.4272 25.4211 24.4449 25.4679C24.4625 25.5148 24.4898 25.5574 24.5251 25.593Z" fill="white"/>
<path d="M24.8974 25.4246C24.8626 25.4604 24.8356 25.5029 24.818 25.5496C24.8004 25.5963 24.7926 25.6461 24.7951 25.6959C24.8447 25.6988 24.8944 25.6911 24.9408 25.6734C24.9872 25.6556 25.0293 25.6282 25.0643 25.5929C25.0996 25.5573 25.1269 25.5147 25.1445 25.4678C25.1622 25.4209 25.1697 25.3708 25.1666 25.3209C25.117 25.3181 25.0673 25.3259 25.0209 25.3438C24.9745 25.3617 24.9324 25.3892 24.8974 25.4246Z" fill="white"/>
<path d="M24.4748 26.013C24.5031 26.054 24.5398 26.0885 24.5824 26.1143C24.6251 26.1401 24.6727 26.1565 24.7222 26.1625C24.7338 26.1139 24.735 26.0634 24.7258 26.0143C24.7166 25.9653 24.6972 25.9187 24.6688 25.8776C24.6404 25.8366 24.6037 25.8019 24.561 25.776C24.5183 25.7501 24.4706 25.7334 24.4211 25.7272C24.4095 25.7759 24.4083 25.8266 24.4175 25.8758C24.4268 25.9251 24.4463 25.9718 24.4748 26.013Z" fill="white"/>
<path d="M24.8709 25.9152C24.8307 25.9444 24.797 25.9817 24.772 26.0246C24.747 26.0676 24.7313 26.1153 24.7258 26.1647C24.7741 26.1763 24.8244 26.1774 24.8731 26.168C24.9219 26.1586 24.9681 26.139 25.0087 26.1103C25.0491 26.0813 25.0829 26.044 25.1079 26.001C25.1329 25.958 25.1486 25.9102 25.1538 25.8608C25.1055 25.8491 25.0553 25.848 25.0065 25.8573C24.9577 25.8667 24.9115 25.8864 24.8709 25.9152Z" fill="white"/>
<path d="M24.3528 26.423C24.3737 26.4681 24.4039 26.5083 24.4414 26.5409C24.479 26.5736 24.5229 26.5979 24.5705 26.6123C24.5902 26.5664 24.6 26.5168 24.5994 26.4669C24.5988 26.4169 24.5877 26.3676 24.5669 26.3222C24.5461 26.2769 24.5159 26.2366 24.4784 26.2038C24.4409 26.1711 24.3969 26.1466 24.3492 26.1321C24.3297 26.1782 24.32 26.2279 24.3206 26.2779C24.3212 26.328 24.3322 26.3774 24.3528 26.423Z" fill="white"/>
<path d="M24.7601 26.3894C24.7153 26.4104 24.6753 26.4407 24.643 26.4782C24.6106 26.5157 24.5865 26.5596 24.5723 26.6071C24.6181 26.6273 24.6677 26.6373 24.7178 26.6366C24.7679 26.6358 24.8172 26.6243 24.8624 26.6027C24.9074 26.5817 24.9474 26.5515 24.9799 26.514C25.0124 26.4765 25.0366 26.4326 25.051 26.3851C25.0051 26.3649 24.9553 26.3549 24.9051 26.3556C24.8549 26.3564 24.8055 26.3679 24.7601 26.3894Z" fill="white"/>
<path d="M24.163 26.7973C24.1756 26.8455 24.1983 26.8905 24.2295 26.9292C24.2608 26.968 24.2999 26.9997 24.3444 27.0222C24.3716 26.9804 24.3898 26.9334 24.3977 26.8841C24.4056 26.8349 24.4031 26.7845 24.3903 26.7363C24.3775 26.6881 24.3547 26.6431 24.3235 26.6042C24.2922 26.5654 24.2531 26.5335 24.2087 26.5107C24.1815 26.5527 24.1633 26.5998 24.1555 26.6492C24.1476 26.6985 24.1502 26.749 24.163 26.7973Z" fill="white"/>
<path d="M24.5688 26.8393C24.5208 26.8525 24.4762 26.8756 24.4378 26.9073C24.3994 26.9389 24.3681 26.9783 24.3461 27.0229C24.3873 27.0504 24.434 27.0687 24.4829 27.0767C24.5318 27.0847 24.5819 27.0822 24.6298 27.0693C24.6778 27.0562 24.7226 27.033 24.7611 27.0014C24.7996 26.9698 24.831 26.9304 24.8532 26.8858C24.8118 26.8583 24.765 26.84 24.716 26.832C24.667 26.824 24.6168 26.8265 24.5688 26.8393Z" fill="white"/>
<path d="M23.9099 27.1368C23.9141 27.1864 23.9288 27.2347 23.9529 27.2783C23.977 27.3219 24.0101 27.36 24.0499 27.39C24.0841 27.3535 24.1102 27.3103 24.1265 27.2631C24.1429 27.2159 24.1491 27.1658 24.1448 27.1161C24.1405 27.0663 24.1257 27.018 24.1015 26.9743C24.0773 26.9306 24.0441 26.8926 24.0042 26.8625C23.9702 26.8992 23.9443 26.9425 23.9281 26.9897C23.9118 27.0369 23.9056 27.087 23.9099 27.1368Z" fill="white"/>
<path d="M24.3025 27.2492C24.253 27.2536 24.2051 27.2685 24.1618 27.2929C24.1185 27.3173 24.0809 27.3506 24.0515 27.3907C24.0874 27.4251 24.1302 27.4514 24.1771 27.468C24.224 27.4845 24.2739 27.4908 24.3234 27.4864C24.3729 27.4821 24.421 27.4673 24.4643 27.4429C24.5076 27.4185 24.5452 27.3851 24.5746 27.345C24.5386 27.3106 24.4958 27.2843 24.4489 27.2678C24.402 27.2513 24.3521 27.245 24.3025 27.2492Z" fill="white"/>
<path d="M23.6026 27.427C23.598 27.4768 23.604 27.527 23.6203 27.5742C23.6365 27.6215 23.6626 27.6648 23.6969 27.7012C23.7366 27.671 23.7696 27.6328 23.7937 27.5891C23.8178 27.5453 23.8325 27.497 23.8368 27.4473C23.8411 27.3975 23.835 27.3474 23.8187 27.3002C23.8025 27.253 23.7766 27.2097 23.7426 27.1731C23.7026 27.2031 23.6695 27.2413 23.6454 27.2851C23.6212 27.3288 23.6067 27.3772 23.6026 27.427Z" fill="white"/>
<path d="M23.9686 27.607C23.9192 27.6025 23.8694 27.6087 23.8226 27.6251C23.7758 27.6415 23.7331 27.6677 23.6973 27.702C23.7267 27.7421 23.7642 27.7754 23.8075 27.7998C23.8508 27.8242 23.8988 27.8391 23.9483 27.8435C23.9978 27.8479 24.0477 27.8417 24.0946 27.8253C24.1415 27.8089 24.1843 27.7827 24.2203 27.7485C24.1909 27.7083 24.1532 27.6749 24.1098 27.6505C24.0664 27.6261 24.0182 27.6112 23.9686 27.607Z" fill="white"/>
<path d="M23.2482 27.6562C23.2354 27.7045 23.2328 27.755 23.2407 27.8043C23.2485 27.8537 23.2667 27.9008 23.2939 27.9428C23.3383 27.9199 23.3774 27.888 23.4086 27.8491C23.4399 27.8101 23.4627 27.7651 23.4755 27.7168C23.4883 27.6685 23.4908 27.6181 23.4829 27.5688C23.4749 27.5195 23.4568 27.4724 23.4295 27.4305C23.3851 27.4533 23.346 27.4851 23.3148 27.524C23.2835 27.5629 23.2608 27.6079 23.2482 27.6562Z" fill="white"/>
<path d="M23.5781 27.9007C23.5303 27.8878 23.4803 27.8851 23.4313 27.893C23.3824 27.9009 23.3357 27.9191 23.2944 27.9464C23.3163 27.9912 23.3474 28.0308 23.3859 28.0626C23.4243 28.0943 23.4691 28.1175 23.5172 28.1305C23.5653 28.1434 23.6156 28.146 23.6648 28.1379C23.714 28.1298 23.7609 28.1113 23.8023 28.0835C23.7801 28.0389 23.7486 27.9995 23.71 27.9679C23.6713 27.9364 23.6263 27.9135 23.5781 27.9007Z" fill="white"/>
<path d="M22.8592 27.8261C22.8383 27.8715 22.8271 27.9207 22.8263 27.9707C22.8256 28.0207 22.8353 28.0703 22.8548 28.1162C22.9025 28.102 22.9466 28.0778 22.9842 28.0451C23.0217 28.0125 23.0518 27.9722 23.0725 27.9269C23.0935 27.8815 23.1048 27.8323 23.1055 27.7823C23.1063 27.7323 23.0965 27.6827 23.0769 27.6367C23.0294 27.6513 22.9854 27.6757 22.948 27.7083C22.9105 27.7409 22.8802 27.781 22.8592 27.8261Z" fill="white"/>
<path d="M23.1437 28.122C23.0985 28.1004 23.0492 28.0888 22.9991 28.0881C22.949 28.0873 22.8993 28.0974 22.8535 28.1176C22.8679 28.165 22.892 28.2089 22.9244 28.2464C22.9568 28.2839 22.9966 28.3142 23.0414 28.3353C23.0867 28.3567 23.136 28.3682 23.1861 28.3689C23.2361 28.3697 23.2858 28.3597 23.3316 28.3396C23.3174 28.2922 23.2933 28.2482 23.2609 28.2107C23.2286 28.1732 23.1886 28.143 23.1437 28.122Z" fill="white"/>
<path d="M22.5158 22.8943C22.5628 22.912 22.6131 22.9193 22.6632 22.9157C22.7133 22.912 22.7621 22.8976 22.806 22.8733C22.7879 22.8268 22.7601 22.7847 22.7244 22.7498C22.6888 22.7149 22.6461 22.688 22.5993 22.6709C22.5523 22.6531 22.502 22.6457 22.4519 22.6493C22.4017 22.653 22.353 22.6675 22.3091 22.6919C22.3273 22.7383 22.3551 22.7804 22.3907 22.8153C22.4264 22.8502 22.469 22.8771 22.5158 22.8943Z" fill="white"/>
<path d="M24.8288 25.506V25.5343C24.8288 25.588 24.8288 25.6417 24.8223 25.6961C24.8149 25.8018 24.8008 25.907 24.7802 26.011C24.77 26.0632 24.7591 26.114 24.7461 26.1648C24.7195 26.2706 24.6865 26.3748 24.6474 26.4767C24.6293 26.5224 24.6097 26.5681 24.5908 26.6138C24.5444 26.7168 24.4913 26.8166 24.432 26.9127C24.4109 26.9519 24.3863 26.9896 24.3594 27.0273C24.2946 27.1222 24.2244 27.2133 24.149 27.3001C24.1215 27.3327 24.0925 27.3639 24.0613 27.3951C23.9834 27.4771 23.9008 27.5543 23.8139 27.6266C23.7798 27.6548 23.7413 27.6824 23.7087 27.7071C23.6601 27.7441 23.6129 27.7796 23.5636 27.8115C23.5143 27.8435 23.4794 27.8652 23.4352 27.8899C23.3944 27.9149 23.3523 27.9377 23.309 27.9581C23.2139 28.0087 23.1158 28.0533 23.0152 28.0916C22.9941 28.0995 22.9731 28.1061 22.952 28.1148L22.865 28.1453C22.5784 28.2359 22.3025 28.3575 22.0423 28.508C22.0286 28.5155 22.0153 28.5237 22.0024 28.5326C21.8727 28.6114 21.7503 28.7017 21.6368 28.8025L21.6063 28.7713C21.7174 28.6732 21.8365 28.5846 21.9625 28.5065C21.9756 28.4971 21.9891 28.4884 22.0031 28.4804C22.2712 28.3231 22.5562 28.1966 22.8527 28.1032C22.8846 28.0916 22.9136 28.0821 22.9397 28.072C22.9477 28.072 22.9542 28.0676 22.9622 28.064C23.0723 28.0243 23.1798 27.9781 23.2843 27.9254C23.3264 27.9022 23.367 27.8812 23.4076 27.8565C23.4599 27.8268 23.5099 27.7963 23.5585 27.7637C23.6071 27.731 23.639 27.7093 23.6782 27.6802C23.7174 27.6512 23.7573 27.62 23.7965 27.5867C23.8778 27.5187 23.9551 27.446 24.0279 27.369C24.0634 27.332 24.0954 27.2965 24.1295 27.2566C24.197 27.1771 24.2602 27.094 24.3188 27.0077C24.3485 26.9671 24.3739 26.925 24.4 26.8808C24.4542 26.7908 24.5027 26.6975 24.5451 26.6015C24.5625 26.5609 24.5807 26.5217 24.5966 26.4789C24.6374 26.3755 24.6715 26.2696 24.6989 26.1618C24.7098 26.1212 24.7185 26.0799 24.7265 26.0392C24.7508 25.9279 24.7671 25.8149 24.7751 25.7012C24.7751 25.6664 24.7751 25.6286 24.7795 25.596C24.7795 25.5684 24.7795 25.5423 24.7795 25.5126C24.7797 25.4182 24.7742 25.324 24.7628 25.2304C24.7628 25.1941 24.7548 25.1578 24.7497 25.1223C24.7325 25.0024 24.7061 24.884 24.6706 24.7682C24.6612 24.7307 24.6499 24.6936 24.6365 24.6572C24.5982 24.5452 24.5524 24.4359 24.4994 24.3301C24.4813 24.2909 24.4603 24.2539 24.4392 24.2162C24.3845 24.1176 24.3234 24.0226 24.2564 23.9318C24.2288 23.8926 24.1998 23.8549 24.1694 23.8172C24.1014 23.7338 24.0287 23.6543 23.9517 23.5792C23.9162 23.5444 23.8792 23.5103 23.8422 23.4791C23.7634 23.4095 23.6803 23.3451 23.5933 23.2861C23.5542 23.2571 23.5143 23.231 23.4736 23.2063C23.3829 23.149 23.2881 23.0983 23.19 23.0547C23.1534 23.0353 23.1156 23.0183 23.0768 23.0039C22.977 22.9622 22.8748 22.9266 22.7707 22.8973C22.6981 22.8762 22.6256 22.8581 22.553 22.8436L22.561 22.803C22.6408 22.8189 22.7184 22.8385 22.7946 22.8617C22.886 22.8863 22.9757 22.9168 23.063 22.9531C23.1116 22.9727 23.1588 22.9938 23.2081 23.0148C23.3096 23.0628 23.4085 23.1163 23.5041 23.1751C23.5426 23.1984 23.5803 23.2245 23.6173 23.2477C23.7104 23.3096 23.8 23.3767 23.8857 23.4486C23.9162 23.4769 23.9474 23.5059 23.9778 23.5357C24.0603 23.6139 24.1371 23.6978 24.2078 23.7867C24.2368 23.8215 24.2644 23.8571 24.2905 23.8933C24.355 23.9799 24.4139 24.0705 24.4668 24.1647C24.4934 24.2073 24.5176 24.2514 24.5393 24.2967C24.5881 24.3914 24.6298 24.4896 24.6641 24.5905C24.6837 24.6406 24.6997 24.6899 24.7142 24.7407C24.7449 24.8408 24.7692 24.9428 24.7867 25.0461C24.7961 25.0998 24.8048 25.1535 24.8092 25.2079C24.8219 25.3068 24.8284 25.4063 24.8288 25.506Z" fill="white"/>
<path d="M20.9839 24.5462C21.2356 24.4221 21.4337 24.3518 21.7551 23.9658H22.5393V26.46H22.9492V27.0461H21.1863V26.46H21.6266V24.8269L21.1863 25.0344L20.9839 24.5462Z" fill="white"/>
<path d="M30.8503 8.62875V24.7544C30.8503 24.8583 30.8298 24.9613 30.7899 25.0573C30.7501 25.1533 30.6917 25.2406 30.6181 25.314C30.5446 25.3875 30.4572 25.4457 30.3611 25.4853C30.265 25.525 30.162 25.5453 30.0581 25.5451H26.9581C26.9581 24.23 26.4357 22.9688 25.5058 22.0389C24.5759 21.109 23.3147 20.5866 21.9996 20.5866C20.6845 20.5866 19.4233 21.109 18.4934 22.0389C17.5635 22.9688 17.041 24.23 17.041 25.5451H13.939C13.7294 25.5449 13.5284 25.4615 13.3803 25.3133C13.2321 25.165 13.1489 24.964 13.1489 24.7544V8.62875C13.1489 8.41865 13.2324 8.21715 13.381 8.06858C13.5295 7.92001 13.731 7.83655 13.9411 7.83655H30.0602C30.27 7.83712 30.4709 7.92084 30.619 8.06935C30.7671 8.21785 30.8503 8.41902 30.8503 8.62875Z" fill="white"/>
<path d="M27.6132 24.8436C27.4399 23.4771 26.774 22.2207 25.7406 21.3101C24.7071 20.3994 23.377 19.897 21.9995 19.897C20.6221 19.897 19.292 20.3994 18.2585 21.3101C17.2251 22.2207 16.5592 23.4771 16.3859 24.8436H14.544C14.3587 24.8436 14.181 24.77 14.05 24.639C13.9189 24.5079 13.8453 24.3302 13.8453 24.145V9.23305C13.8455 9.04789 13.9192 8.87038 14.0502 8.73952C14.1812 8.60866 14.3588 8.53516 14.544 8.53516H29.4551C29.6403 8.53516 29.8179 8.60866 29.9489 8.73952C30.0799 8.87038 30.1536 9.04789 30.1538 9.23305V24.145C30.1538 24.3302 30.0802 24.5079 29.9491 24.639C29.8181 24.77 29.6404 24.8436 29.4551 24.8436H27.6132Z" fill="#1C4377"/>
<path d="M15.7659 14.0096V11.4581H16.5211C16.8229 11.4581 17.042 11.5104 17.1783 11.6148C17.3147 11.7193 17.3832 11.8886 17.3837 12.1227C17.3837 12.3548 17.3155 12.5238 17.1783 12.6305C17.0412 12.7371 16.8229 12.7872 16.5211 12.7872H15.9552V14.0154L15.7659 14.0096ZM15.9552 12.6312H16.5211C16.7721 12.6312 16.9491 12.592 17.0507 12.5122C17.1522 12.4324 17.203 12.3018 17.203 12.1198C17.203 11.9377 17.1486 11.7991 17.0405 11.7186C16.9324 11.638 16.7598 11.6018 16.5211 11.6098H15.9552V12.6312Z" fill="white"/>
<path d="M17.937 14.0096V11.4581H18.1264V14.0096H17.937Z" fill="white"/>
<path d="M19.4126 14.0096V11.609H18.5609V11.4581H20.4536V11.609H19.6056V14.0096H19.4126Z" fill="white"/>
<path d="M21.8897 14.0487C21.5154 14.0487 21.2175 13.9338 20.996 13.7041C20.774 13.4741 20.663 13.1672 20.663 12.7813C20.663 12.3653 20.7761 12.0336 21.0025 11.7859C21.2296 11.5378 21.5328 11.4145 21.9144 11.4145C22.1805 11.4036 22.4415 11.49 22.6486 11.6575L22.5709 11.7772C22.3829 11.6332 22.1511 11.5582 21.9144 11.5647C21.7693 11.5585 21.6246 11.585 21.4911 11.6423C21.3577 11.6996 21.2388 11.7861 21.1432 11.8955C20.9498 12.1155 20.853 12.4108 20.853 12.7813C20.853 13.1198 20.9469 13.3902 21.1345 13.5923C21.231 13.6939 21.3481 13.7735 21.4781 13.8259C21.608 13.8782 21.7476 13.902 21.8875 13.8956C22.1538 13.9 22.4152 13.8242 22.6377 13.678L22.6986 13.81C22.4584 13.9675 22.177 14.0506 21.8897 14.0487Z" fill="white"/>
<path d="M23.297 14.0096V11.4581H23.4929V12.6327H25.0599V11.4581H25.242V14.0096H25.0526V12.7843H23.4863V14.011L23.297 14.0096Z" fill="white"/>
<path d="M27.2103 14.1256C26.7867 14.1256 26.4503 14.0093 26.2012 13.7766C25.9522 13.544 25.8276 13.2238 25.8276 12.8161C25.8222 12.5642 25.8795 12.3149 25.9945 12.0906C26.1018 11.8847 26.2677 11.7151 26.4711 11.6031C26.6915 11.4843 26.9389 11.4246 27.1893 11.4298C27.5665 11.4298 27.8644 11.5345 28.0831 11.7439C28.3017 11.9533 28.411 12.2369 28.411 12.5948C28.4125 12.7282 28.394 12.861 28.3558 12.9888C28.3249 13.094 28.2744 13.1924 28.2071 13.279C28.1477 13.3531 28.0736 13.4141 27.9895 13.4581C27.9103 13.4997 27.8221 13.5214 27.7327 13.5213C27.694 13.5234 27.6554 13.5164 27.6199 13.5008C27.5845 13.4851 27.5533 13.4613 27.5288 13.4313C27.504 13.3951 27.4879 13.3537 27.4819 13.3103C27.4759 13.2668 27.48 13.2226 27.494 13.181C27.4533 13.2804 27.3829 13.3648 27.2923 13.4226C27.1986 13.484 27.0887 13.5158 26.9767 13.514C26.9084 13.5165 26.8404 13.5037 26.7777 13.4766C26.7149 13.4495 26.659 13.4087 26.614 13.3573C26.5179 13.2391 26.469 13.0894 26.4769 12.9373C26.4769 12.6471 26.5482 12.4135 26.6909 12.2365C26.7572 12.1514 26.8439 12.0845 26.9429 12.0419C27.042 11.9993 27.1502 11.9824 27.2575 11.9927C27.3622 11.9952 27.4621 12.0369 27.5375 12.1095C27.6103 12.1838 27.6516 12.2834 27.6529 12.3874L27.7341 12.0631H27.8618L27.6231 13.0301C27.5993 13.1149 27.5847 13.202 27.5796 13.2898C27.5788 13.3089 27.5825 13.3278 27.5903 13.3452C27.5981 13.3625 27.6098 13.3779 27.6246 13.39C27.6591 13.4155 27.7014 13.4283 27.7443 13.4262C27.8239 13.4259 27.902 13.4045 27.9705 13.3641C28.0391 13.3237 28.0957 13.2657 28.1346 13.1963C28.2398 13.0129 28.2901 12.8031 28.2796 12.5919C28.2854 12.4513 28.2618 12.3111 28.2102 12.1801C28.1586 12.0492 28.0802 11.9305 27.98 11.8317C27.7798 11.6382 27.5138 11.5415 27.182 11.5415C26.9591 11.537 26.7391 11.5934 26.5458 11.7047C26.3645 11.811 26.2179 11.9674 26.1236 12.1552C26.0239 12.3582 25.9742 12.582 25.9785 12.8081C25.9785 13.1772 26.0893 13.4685 26.3108 13.6823C26.5323 13.8961 26.8304 14.0025 27.2053 14.0015C27.3947 14.0038 27.583 13.9706 27.7602 13.9036C27.9043 13.8549 28.0316 13.7663 28.1273 13.6482L28.2274 13.7106C28.1382 13.851 28.0031 13.9561 27.8451 14.008C27.6428 14.0868 27.4274 14.1267 27.2103 14.1256ZM26.9862 13.4052C27.0659 13.4056 27.1446 13.3866 27.2154 13.3499C27.2862 13.3131 27.3469 13.2596 27.3924 13.1941C27.5091 13.0275 27.574 12.8301 27.5789 12.6268C27.5949 12.5012 27.5694 12.3738 27.5063 12.264C27.4783 12.221 27.4403 12.1854 27.3956 12.1601C27.3509 12.1349 27.3008 12.1207 27.2495 12.1189C27.1616 12.1099 27.0729 12.1245 26.9926 12.1613C26.9122 12.198 26.8432 12.2555 26.7925 12.3279C26.6691 12.5058 26.6082 12.7196 26.6191 12.9358C26.6125 13.0573 26.6464 13.1775 26.7156 13.2775C26.7471 13.319 26.7881 13.3523 26.8352 13.3745C26.8823 13.3967 26.9341 13.4073 26.9862 13.4052Z" fill="white"/>
<path d="M15.7941 17.2726V14.7212H16.5493C16.8501 14.7212 17.0692 14.7734 17.2065 14.8779C17.3439 14.9824 17.4121 15.1504 17.4111 15.3821C17.4111 15.6142 17.3429 15.7833 17.2065 15.8899C17.0702 15.9965 16.8503 16.0466 16.5493 16.0466H15.9827V17.2748L15.7941 17.2726ZM15.9827 15.8943H16.5493C16.8003 15.8943 16.9766 15.8546 17.0781 15.7753C17.1797 15.696 17.2305 15.5651 17.2305 15.3828C17.2305 15.1956 17.1768 15.0622 17.0687 14.9809C16.9606 14.8997 16.7872 14.8641 16.5493 14.8728H15.9827V15.8943Z" fill="white"/>
<path d="M17.6567 17.2726L18.5853 14.7212H18.8204L19.7504 17.2726H19.5538L19.3035 16.5733H18.1189L17.8686 17.2726H17.6567ZM18.1646 16.4442H19.2491L18.9778 15.6607L18.7043 14.8786L18.4344 15.6607L18.1646 16.4442Z" fill="white"/>
<path d="M20.2585 17.2726V14.7212H20.4479V17.1225H21.6413V17.2726H20.2585Z" fill="white"/>
<path d="M21.8171 17.2726L22.7457 14.7212H22.9808L23.9079 17.2726H23.7113L23.461 16.5733H22.28L22.029 17.2726H21.8171ZM22.325 16.4442H23.4132L23.1418 15.6607L22.8698 14.8786L22.5999 15.6607L22.325 16.4442Z" fill="white"/>
<path d="M25.4471 17.3111C25.0737 17.3111 24.7758 17.1965 24.5533 16.9673C24.3309 16.738 24.2199 16.4304 24.2203 16.0445C24.2203 15.629 24.3335 15.2972 24.5599 15.0491C24.7862 14.801 25.0902 14.677 25.4718 14.677C25.7386 14.6652 26.0004 14.7519 26.2074 14.9207L26.1305 15.0404C25.9421 14.8965 25.7102 14.8215 25.4732 14.8279C25.3281 14.8217 25.1835 14.8482 25.05 14.9055C24.9165 14.9627 24.7976 15.0493 24.702 15.1587C24.5086 15.3782 24.4119 15.6735 24.4119 16.0445C24.4119 16.383 24.5054 16.6534 24.6926 16.8555C24.7891 16.9571 24.9063 17.0367 25.0362 17.089C25.1661 17.1413 25.3057 17.1651 25.4456 17.1588C25.7119 17.1632 25.9732 17.0874 26.1958 16.9411L26.2574 17.0725C26.0168 17.2304 25.7349 17.3134 25.4471 17.3111Z" fill="white"/>
<path d="M26.8546 17.2726V14.7212H28.2743V14.8721H27.0411V15.8935H28.2018V16.0444H27.0403V17.1225H28.3265V17.2726H26.8546Z" fill="white"/>
<path d="M24.2265 37.3238L20.3649 39.5611V35.093L20.8894 35.3955V38.6514L23.7027 37.0213L24.2265 37.3238Z" fill="white"/>
<path d="M23.4406 36.8696L21.196 38.1697V37.6067L22.4671 36.8704L21.196 36.1362V35.5732L23.4406 36.8696Z" fill="white"/>
<path d="M26.7155 27.0221C27.248 27.0103 27.774 27.141 28.239 27.4008C28.4731 27.5316 28.6904 27.6904 28.8861 27.8738C28.9828 27.9672 29.0741 28.066 29.1596 28.1698L29.2865 28.3272L29.399 28.4955C29.9975 29.4031 30.131 30.5776 29.8713 31.636C29.6116 32.6945 29.0007 33.6507 28.2716 34.4487C27.5219 35.2302 26.6708 35.9077 25.7412 36.4633C25.6997 36.4911 25.653 36.5102 25.6039 36.5195C25.5548 36.5288 25.5043 36.5281 25.4555 36.5174C25.4067 36.5067 25.3606 36.4862 25.3199 36.4573C25.2792 36.4283 25.2448 36.3914 25.2187 36.3488C25.1926 36.3062 25.1754 36.2587 25.1681 36.2093C25.1609 36.1599 25.1636 36.1095 25.1763 36.0611C25.189 36.0128 25.2113 35.9676 25.242 35.9281C25.2726 35.8886 25.3109 35.8557 25.3545 35.8314L25.3719 35.8213C26.2798 35.3487 27.1203 34.7568 27.8712 34.0613C28.5966 33.3547 29.2162 32.5124 29.5107 31.5403C29.6601 31.0559 29.7169 30.5477 29.6783 30.0422C29.6413 29.5318 29.4908 29.0361 29.2379 28.5913C28.7468 27.6924 27.7718 27.0526 26.7155 27.0221Z" fill="white"/>
<path d="M17.2839 27.0222C16.2248 27.0527 15.2483 27.6926 14.7579 28.5921C14.505 29.037 14.3545 29.5327 14.3175 30.0431C14.2789 30.5485 14.3357 31.0567 14.4851 31.5411C14.7796 32.5133 15.3992 33.3548 16.1246 34.0621C16.8755 34.7577 17.716 35.3496 18.6239 35.8221C18.6695 35.8434 18.7104 35.8738 18.7439 35.9114C18.7775 35.949 18.803 35.993 18.8189 36.0408C18.8349 36.0886 18.8409 36.1392 18.8367 36.1894C18.8324 36.2396 18.818 36.2884 18.7942 36.3328C18.7705 36.3773 18.7379 36.4164 18.6985 36.4479C18.6591 36.4793 18.6138 36.5024 18.5651 36.5157C18.5165 36.529 18.4657 36.5322 18.4158 36.5252C18.3659 36.5182 18.318 36.5012 18.2749 36.475C18.2684 36.4718 18.2621 36.4682 18.256 36.4641C17.3264 35.9086 16.4754 35.231 15.7256 34.4495C14.9965 33.6515 14.3828 32.7084 14.126 31.6369C13.8692 30.5654 13.9998 29.4039 14.5983 28.4964L14.7107 28.3281L14.8377 28.1706C14.9231 28.0668 15.0144 27.968 15.1112 27.8747C15.3068 27.6913 15.5242 27.5324 15.7583 27.4017C16.2238 27.1412 16.7506 27.0102 17.2839 27.0222Z" fill="white"/>
</g>
</svg>
