<svg width="47" height="34" viewBox="0 0 47 34" fill="none" xmlns="http://www.w3.org/2000/svg">
<g opacity="0.15">
<path opacity="0.15" d="M22.9535 33.4793C13.8523 33.4793 6.47434 26.1014 6.47434 17.0002C6.47434 7.89897 13.8523 0.520996 22.9535 0.520996C32.0547 0.520996 39.4327 7.89897 39.4327 17.0002C39.4327 26.1014 32.0547 33.4793 22.9535 33.4793Z" fill="#B2D0E9"/>
</g>
<g opacity="0.6">
<g opacity="0.3">
<path opacity="0.3" d="M10.2953 24.2721H24.039C24.0949 24.2721 24.1402 24.3174 24.1402 24.3732V24.7024C24.1402 24.7583 24.0949 24.8036 24.039 24.8036H10.2953C10.2394 24.8036 10.1941 24.7583 10.1941 24.7024V24.3732C10.1941 24.3174 10.2394 24.2721 10.2953 24.2721Z" fill="#94B7DB"/>
</g>
<g opacity="0.3">
<path opacity="0.3" d="M10.6518 29.7358H24.3956C24.4515 29.7358 24.4968 29.7811 24.4968 29.837V30.1662C24.4968 30.222 24.4515 30.2673 24.3956 30.2673H10.6518C10.596 30.2673 10.5507 30.222 10.5507 30.1662V29.837C10.5507 29.7811 10.596 29.7358 10.6518 29.7358Z" fill="#94B7DB"/>
</g>
<g opacity="0.3">
<path opacity="0.3" d="M33.5967 8.22729H47.3404C47.3962 8.22729 47.4415 8.27258 47.4415 8.32844V8.65762C47.4415 8.71348 47.3962 8.75877 47.3404 8.75877H33.5967C33.5408 8.75877 33.4955 8.71348 33.4955 8.65762V8.32844C33.4955 8.27258 33.5408 8.22729 33.5967 8.22729Z" fill="#94B7DB"/>
</g>
<g opacity="0.3">
<path opacity="0.3" d="M31.3744 8.2229H32.4698C32.5256 8.2229 32.5709 8.26819 32.5709 8.32405V8.65322C32.5709 8.70909 32.5256 8.75437 32.4698 8.75437H31.3744C31.3186 8.75437 31.2733 8.70909 31.2733 8.65322V8.32405C31.2733 8.26819 31.3186 8.2229 31.3744 8.2229Z" fill="#94B7DB"/>
</g>
<g opacity="0.3">
<path opacity="0.3" d="M25.6329 29.7358H26.7282C26.7841 29.7358 26.8293 29.7811 26.8293 29.837V30.1662C26.8293 30.222 26.7841 30.2673 26.7282 30.2673H25.6329C25.577 30.2673 25.5317 30.222 25.5317 30.1662V29.837C25.5317 29.7811 25.577 29.7358 25.6329 29.7358Z" fill="#94B7DB"/>
</g>
<g opacity="0.3">
<path opacity="0.3" d="M9.71508 5.89331H23.4588C23.5147 5.89331 23.56 5.9386 23.56 5.99446V6.32363C23.56 6.3795 23.5147 6.42478 23.4588 6.42478H9.71508C9.65922 6.42478 9.61393 6.3795 9.61393 6.32363V5.99446C9.61393 5.9386 9.65922 5.89331 9.71508 5.89331Z" fill="#94B7DB"/>
</g>
<g opacity="0.3">
<path opacity="0.3" d="M16.687 1.04883H30.4308C30.4866 1.04883 30.5319 1.09411 30.5319 1.14998V1.47916C30.5319 1.53502 30.4866 1.58031 30.4308 1.58031H16.687C16.6312 1.58031 16.5859 1.53502 16.5859 1.47916V1.14998C16.5859 1.09411 16.6312 1.04883 16.687 1.04883Z" fill="#94B7DB"/>
</g>
<g opacity="0.3">
<path opacity="0.3" d="M31.12 11.2745H42.2077C42.2292 11.2745 42.2467 11.292 42.2467 11.3136V11.4409C42.2467 11.4625 42.2292 11.4799 42.2077 11.4799H31.12C31.0984 11.4799 31.0809 11.4625 31.0809 11.4409V11.3136C31.0809 11.292 31.0984 11.2745 31.12 11.2745Z" fill="#94B7DB"/>
</g>
<g opacity="0.3">
<path opacity="0.3" d="M32.0231 19.9249H43.1108C43.1324 19.9249 43.1498 19.9424 43.1498 19.964V20.0913C43.1498 20.1128 43.1324 20.1303 43.1108 20.1303H32.0231C32.0015 20.1303 31.9841 20.1128 31.9841 20.0913V19.964C31.9841 19.9424 32.0015 19.9249 32.0231 19.9249Z" fill="#94B7DB"/>
</g>
<g opacity="0.3">
<path opacity="0.3" d="M20.4408 31.989H31.5285C31.5501 31.989 31.5676 32.0065 31.5676 32.0281V32.1554C31.5676 32.1769 31.5501 32.1944 31.5285 32.1944H20.4408C20.4192 32.1944 20.4017 32.1769 20.4017 32.1554V32.0281C20.4017 32.0065 20.4192 31.989 20.4408 31.989Z" fill="#94B7DB"/>
</g>
<g opacity="0.3">
<path opacity="0.3" d="M17.0433 8.39014H28.131C28.1526 8.39014 28.17 8.40762 28.17 8.42918V8.5565C28.17 8.57806 28.1526 8.59554 28.131 8.59554H17.0433C17.0217 8.59554 17.0043 8.57806 17.0043 8.5565V8.42918C17.0043 8.40762 17.0217 8.39014 17.0433 8.39014Z" fill="#94B7DB"/>
</g>
<g opacity="0.3">
<path opacity="0.3" d="M15.4539 8.39014H16.3811C16.4026 8.39014 16.4201 8.40762 16.4201 8.42918V8.5565C16.4201 8.57806 16.4026 8.59554 16.3811 8.59554H15.4539C15.4323 8.59554 15.4148 8.57806 15.4148 8.5565V8.42918C15.4148 8.40762 15.4323 8.39014 15.4539 8.39014Z" fill="#94B7DB"/>
</g>
<g opacity="0.3">
<path opacity="0.3" d="M7.12379 9.22583H13.1736C13.1952 9.22583 13.2126 9.24331 13.2126 9.26487V9.39219C13.2126 9.41375 13.1952 9.43123 13.1736 9.43123H7.12379C7.10223 9.43123 7.08476 9.41375 7.08476 9.39219V9.26487C7.08476 9.24331 7.10223 9.22583 7.12379 9.22583Z" fill="#94B7DB"/>
</g>
<g opacity="0.3">
<path opacity="0.3" d="M20.1341 4.10632H33.7194C33.741 4.10632 33.7585 4.1238 33.7585 4.14536V4.27268C33.7585 4.29425 33.741 4.31172 33.7194 4.31172H20.1341C20.1125 4.31172 20.0951 4.29425 20.0951 4.27268V4.14536C20.0951 4.1238 20.1125 4.10632 20.1341 4.10632Z" fill="#94B7DB"/>
</g>
<g opacity="0.3">
<path opacity="0.3" d="M18.324 4.10632H19.2578C19.2794 4.10632 19.2969 4.1238 19.2969 4.14536V4.27268C19.2969 4.29425 19.2794 4.31172 19.2578 4.31172H18.324C18.3024 4.31172 18.285 4.29425 18.285 4.27268V4.14536C18.285 4.1238 18.3024 4.10632 18.324 4.10632Z" fill="#94B7DB"/>
</g>
<g opacity="0.3">
<path opacity="0.3" d="M29.0117 11.2745H29.9456C29.9671 11.2745 29.9846 11.292 29.9846 11.3136V11.4409C29.9846 11.4625 29.9671 11.4799 29.9456 11.4799H29.0117C28.9902 11.4799 28.9727 11.4625 28.9727 11.4409V11.3136C28.9727 11.292 28.9902 11.2745 29.0117 11.2745Z" fill="#94B7DB"/>
</g>
<g opacity="0.3">
<path opacity="0.3" d="M37.0999 15.9456H38.0338C38.0553 15.9456 38.0728 15.963 38.0728 15.9846V16.1119C38.0728 16.1335 38.0553 16.151 38.0338 16.151H37.0999C37.0784 16.151 37.0609 16.1335 37.0609 16.1119V15.9846C37.0609 15.963 37.0784 15.9456 37.0999 15.9456Z" fill="#94B7DB"/>
</g>
<g opacity="0.3">
<path opacity="0.3" d="M9.29579 12.8458H10.2296C10.2512 12.8458 10.2687 12.8633 10.2687 12.8849V13.0122C10.2687 13.0337 10.2512 13.0512 10.2296 13.0512H9.29579C9.27423 13.0512 9.25675 13.0337 9.25675 13.0122V12.8849C9.25675 12.8633 9.27423 12.8458 9.29579 12.8458Z" fill="#94B7DB"/>
</g>
<g opacity="0.3">
<path opacity="0.3" d="M18.7092 31.989H19.6431C19.6647 31.989 19.6821 32.0065 19.6821 32.0281V32.1554C19.6821 32.1769 19.6647 32.1944 19.6431 32.1944H18.7092C18.6877 32.1944 18.6702 32.1769 18.6702 32.1554V32.0281C18.6702 32.0065 18.6877 31.989 18.7092 31.989Z" fill="#94B7DB"/>
</g>
<g opacity="0.3">
<path opacity="0.3" d="M5.77868 12.8458H8.88277C8.90434 12.8458 8.92181 12.8633 8.92181 12.8849V13.0122C8.92181 13.0337 8.90434 13.0512 8.88277 13.0512H5.77868C5.75712 13.0512 5.73964 13.0337 5.73964 13.0122V12.8849C5.73964 12.8633 5.75712 12.8458 5.77868 12.8458Z" fill="#94B7DB"/>
</g>
<g opacity="0.3">
<path opacity="0.3" d="M2.38669 18.3274H13.4744C13.4959 18.3274 13.5134 18.3449 13.5134 18.3664V18.4938C13.5134 18.5154 13.4959 18.5328 13.4744 18.5328H2.38669C2.36512 18.5328 2.34764 18.5154 2.34764 18.4938V18.3664C2.34764 18.3449 2.36512 18.3274 2.38669 18.3274Z" fill="#94B7DB"/>
</g>
</g>
<path d="M6.83638 25.9415H38.8205V26.0578H6.83638V25.9415Z" fill="#3175B7"/>
<path d="M-8.39233e-05 26.7919H31.9839V26.9081H-8.39233e-05V26.7919Z" fill="#3175B7"/>
<path d="M19.7726 28.1321H51.7567V28.2483H19.7726V28.1321Z" fill="#3175B7"/>
<path d="M8.42008 28.1321H18.0975V28.2483H8.42008V28.1321Z" fill="#3175B7"/>
<path d="M33.9817 26.7919H43.6591V26.9081H33.9817V26.7919Z" fill="#3175B7"/>
<path d="M27.9848 14.2798V21.1845C27.9847 21.2321 27.9967 21.279 28.0199 21.3207C28.5952 20.9239 29.2821 20.7211 29.9807 20.7418C30.6792 20.7625 31.353 21.0055 31.9038 21.4356C31.928 21.4545 31.9579 21.4649 31.9886 21.4649H35.924C35.9609 21.4649 35.9974 21.4577 36.0314 21.4436C36.0654 21.4296 36.0964 21.4089 36.1224 21.3829C36.1485 21.3568 36.1691 21.3259 36.1832 21.2919C36.1973 21.2578 36.2045 21.2213 36.2044 21.1845V18.1678C36.2043 18.0637 36.1753 17.9618 36.1206 17.8732L34.6637 15.5198C34.377 15.0553 33.9761 14.6718 33.4993 14.406C33.0225 14.1402 32.4857 14.0009 31.9398 14.0012H28.2652C28.1911 14.0011 28.12 14.0304 28.0674 14.0826C28.0149 14.1348 27.9852 14.2057 27.9848 14.2798Z" fill="#3175B7"/>
<g opacity="0.7">
<path opacity="0.7" d="M27.9848 20.4534V21.1845C27.9847 21.2322 27.9967 21.2791 28.0199 21.3207C28.5952 20.924 29.2821 20.7212 29.9807 20.7418C30.6792 20.7625 31.353 21.0056 31.9038 21.4356C31.928 21.4546 31.9579 21.4649 31.9886 21.4649H35.924C35.9609 21.465 35.9974 21.4578 36.0314 21.4437C36.0654 21.4296 36.0964 21.409 36.1224 21.3829C36.1485 21.3569 36.1691 21.3259 36.1832 21.2919C36.1973 21.2579 36.2045 21.2214 36.2044 21.1845V20.4534H32.0946C31.4735 19.9876 30.7003 19.748 29.8835 19.748C28.9218 19.748 28.1467 20.2591 27.9848 20.4534Z" fill="#275B98"/>
</g>
<path d="M30.0359 15.0668V16.797C30.2254 16.797 32.9125 17.8919 34.2837 18.4282L35.2673 18.4225V18.0676C35.2671 17.9873 35.2447 17.9087 35.2025 17.8404L34.0779 16.0215C33.8565 15.6628 33.547 15.3667 33.1789 15.1615C32.8107 14.9563 32.3961 14.8487 31.9746 14.849H30.2524C30.2239 14.849 30.1956 14.8546 30.1693 14.8656C30.1429 14.8766 30.119 14.8926 30.0989 14.9129C30.0788 14.9331 30.0628 14.9571 30.052 14.9836C30.0412 15.01 30.0358 15.0383 30.0359 15.0668Z" fill="#94B7DB"/>
<path d="M22.6824 13.7949H25.9156C25.9891 13.7949 26.0486 13.8545 26.0486 13.928V17.1612C26.0486 17.2347 25.9891 17.2943 25.9156 17.2943H22.6824C22.6089 17.2943 22.5493 17.2347 22.5493 17.1612V13.928C22.5493 13.8545 22.6089 13.7949 22.6824 13.7949Z" fill="#E56F2C"/>
<path d="M22.6824 17.5747H25.9156C25.9891 17.5747 26.0486 17.6343 26.0486 17.7078V20.941C26.0486 21.0145 25.9891 21.0741 25.9156 21.0741H22.6824C22.6089 21.0741 22.5493 21.0145 22.5493 20.941V17.7078C22.5493 17.6343 22.6089 17.5747 22.6824 17.5747Z" fill="#E56F2C"/>
<path d="M18.9028 17.5747H22.1361C22.2096 17.5747 22.2692 17.6343 22.2692 17.7078V20.941C22.2692 21.0145 22.2096 21.0741 22.1361 21.0741H18.9028C18.8293 21.0741 18.7698 21.0145 18.7698 20.941V17.7078C18.7698 17.6343 18.8293 17.5747 18.9028 17.5747Z" fill="#E56F2C"/>
<path d="M15.1227 17.5747H18.3559C18.4294 17.5747 18.489 17.6343 18.489 17.7078V20.941C18.489 21.0145 18.4294 21.0741 18.3559 21.0741H15.1227C15.0492 21.0741 14.9896 21.0145 14.9896 20.941V17.7078C14.9896 17.6343 15.0492 17.5747 15.1227 17.5747Z" fill="#E56F2C"/>
<path d="M11.3428 17.5747H14.576C14.6495 17.5747 14.7091 17.6343 14.7091 17.7078V20.941C14.7091 21.0145 14.6495 21.0741 14.576 21.0741H11.3428C11.2693 21.0741 11.2097 21.0145 11.2097 20.941V17.7078C11.2097 17.6343 11.2693 17.5747 11.3428 17.5747Z" fill="#E56F2C"/>
<path d="M18.9028 13.7949H22.1361C22.2096 13.7949 22.2692 13.8545 22.2692 13.928V17.1612C22.2692 17.2347 22.2096 17.2943 22.1361 17.2943H18.9028C18.8293 17.2943 18.7698 17.2347 18.7698 17.1612V13.928C18.7698 13.8545 18.8293 13.7949 18.9028 13.7949Z" fill="#E56F2C"/>
<path d="M15.1227 13.7949H18.3559C18.4294 13.7949 18.489 13.8545 18.489 13.928V17.1612C18.489 17.2347 18.4294 17.2943 18.3559 17.2943H15.1227C15.0492 17.2943 14.9896 17.2347 14.9896 17.1612V13.928C14.9896 13.8545 15.0492 13.7949 15.1227 13.7949Z" fill="#E56F2C"/>
<path d="M11.3428 13.7949H14.576C14.6495 13.7949 14.7091 13.8545 14.7091 13.928V17.1612C14.7091 17.2347 14.6495 17.2943 14.576 17.2943H11.3428C11.2693 17.2943 11.2097 17.2347 11.2097 17.1612V13.928C11.2097 13.8545 11.2693 13.7949 11.3428 13.7949Z" fill="#E56F2C"/>
<path d="M22.6824 10.0151H25.9156C25.9891 10.0151 26.0486 10.0747 26.0486 10.1482V13.3814C26.0486 13.4549 25.9891 13.5145 25.9156 13.5145H22.6824C22.6089 13.5145 22.5493 13.4549 22.5493 13.3814V10.1482C22.5493 10.0747 22.6089 10.0151 22.6824 10.0151Z" fill="#E56F2C"/>
<path d="M18.9028 10.0151H22.1361C22.2096 10.0151 22.2692 10.0747 22.2692 10.1482V13.3814C22.2692 13.4549 22.2096 13.5145 22.1361 13.5145H18.9028C18.8293 13.5145 18.7698 13.4549 18.7698 13.3814V10.1482C18.7698 10.0747 18.8293 10.0151 18.9028 10.0151Z" fill="#E56F2C"/>
<path d="M15.1227 10.0151H18.3559C18.4294 10.0151 18.489 10.0747 18.489 10.1482V13.3814C18.489 13.4549 18.4294 13.5145 18.3559 13.5145H15.1227C15.0492 13.5145 14.9896 13.4549 14.9896 13.3814V10.1482C14.9896 10.0747 15.0492 10.0151 15.1227 10.0151Z" fill="#E56F2C"/>
<path d="M11.3428 10.0151H14.576C14.6495 10.0151 14.7091 10.0747 14.7091 10.1482V13.3814C14.7091 13.4549 14.6495 13.5145 14.576 13.5145H11.3428C11.2693 13.5145 11.2097 13.4549 11.2097 13.3814V10.1482C11.2097 10.0747 11.2693 10.0151 11.3428 10.0151Z" fill="#E56F2C"/>
<path d="M11.5584 17.2943C11.4659 17.2943 11.3772 17.2576 11.3118 17.1922C11.2465 17.1268 11.2097 17.0381 11.2097 16.9457V14.1446C11.2097 14.0521 11.2465 13.9634 11.3118 13.898C11.3772 13.8326 11.4659 13.7959 11.5584 13.7959V17.2943Z" fill="#CA6643"/>
<path d="M15.3383 17.2943C15.2458 17.2943 15.1571 17.2576 15.0917 17.1922C15.0263 17.1268 14.9896 17.0381 14.9896 16.9457V14.1446C14.9896 14.0521 15.0263 13.9634 15.0917 13.898C15.1571 13.8326 15.2458 13.7959 15.3383 13.7959V17.2943Z" fill="#CA6643"/>
<path d="M19.1182 17.2944C19.0724 17.2944 19.027 17.2854 18.9846 17.2679C18.9423 17.2505 18.9038 17.2248 18.8714 17.1924C18.8389 17.16 18.8132 17.1215 18.7957 17.0792C18.7781 17.0369 18.7691 16.9915 18.7691 16.9457V14.1446C18.7691 14.0988 18.7781 14.0534 18.7957 14.011C18.8132 13.9687 18.8389 13.9303 18.8714 13.8979C18.9038 13.8655 18.9423 13.8398 18.9846 13.8223C19.027 13.8048 19.0724 13.7958 19.1182 13.7959V17.2944Z" fill="#CA6643"/>
<path d="M22.8981 17.2943C22.8056 17.2943 22.7169 17.2576 22.6515 17.1922C22.586 17.1268 22.5493 17.0381 22.5493 16.9457V14.1446C22.5493 14.0521 22.586 13.9634 22.6515 13.898C22.7169 13.8326 22.8056 13.7959 22.8981 13.7959V17.2943Z" fill="#CA6643"/>
<path d="M11.5584 13.5145C11.4659 13.5145 11.3772 13.4778 11.3118 13.4124C11.2465 13.347 11.2097 13.2583 11.2097 13.1658V10.3638C11.2097 10.2714 11.2465 10.1827 11.3118 10.1173C11.3772 10.0519 11.4659 10.0151 11.5584 10.0151V13.5145Z" fill="#CA6643"/>
<path d="M15.3383 13.5145C15.2458 13.5145 15.1571 13.4778 15.0917 13.4124C15.0263 13.347 14.9896 13.2583 14.9896 13.1658V10.3638C14.9896 10.2714 15.0263 10.1827 15.0917 10.1173C15.1571 10.0519 15.2458 10.0151 15.3383 10.0151V13.5145Z" fill="#CA6643"/>
<path d="M19.1182 13.5145C19.0724 13.5146 19.027 13.5056 18.9846 13.4881C18.9423 13.4706 18.9038 13.4449 18.8714 13.4126C18.8389 13.3802 18.8132 13.3417 18.7957 13.2994C18.7781 13.257 18.7691 13.2117 18.7691 13.1658V10.3638C18.7691 10.318 18.7781 10.2726 18.7957 10.2303C18.8132 10.188 18.8389 10.1495 18.8714 10.1171C18.9038 10.0847 18.9423 10.059 18.9846 10.0416C19.027 10.0241 19.0724 10.0151 19.1182 10.0151V13.5145Z" fill="#CA6643"/>
<path d="M22.8981 13.5145C22.8056 13.5145 22.7169 13.4778 22.6515 13.4124C22.586 13.347 22.5493 13.2583 22.5493 13.1658V10.3638C22.5493 10.2714 22.586 10.1827 22.6515 10.1173C22.7169 10.0519 22.8056 10.0151 22.8981 10.0151V13.5145Z" fill="#CA6643"/>
<g opacity="0.7">
<path opacity="0.7" d="M22.5493 16.8747V16.6289H26.0486V16.8738L22.5493 16.8747Z" fill="#B65638"/>
</g>
<g opacity="0.7">
<path opacity="0.7" d="M18.7693 16.8747V16.6289H22.2692V16.8738L18.7693 16.8747Z" fill="#B65638"/>
</g>
<g opacity="0.7">
<path opacity="0.7" d="M14.9887 16.8747V16.6289H18.489V16.8738L14.9887 16.8747Z" fill="#B65638"/>
</g>
<g opacity="0.7">
<path opacity="0.7" d="M11.2097 16.8747V16.6289H14.7091V16.8738L11.2097 16.8747Z" fill="#B65638"/>
</g>
<path d="M10.1676 21.3429V16.9953C10.1705 16.9607 10.1867 16.9285 10.2129 16.9057C10.2391 16.8829 10.2731 16.8713 10.3078 16.8733H27.3353C27.37 16.8713 27.4041 16.8829 27.4303 16.9057C27.4564 16.9285 27.4727 16.9607 27.4755 16.9953V21.3429C27.4728 21.3776 27.4566 21.4098 27.4304 21.4327C27.4042 21.4556 27.3701 21.4673 27.3353 21.4653H10.3078C10.2731 21.4673 10.2389 21.4556 10.2127 21.4327C10.1865 21.4098 10.1703 21.3776 10.1676 21.3429Z" fill="#3175B7"/>
<path d="M26.7258 11.7489H27.3353C27.4128 11.7489 27.4755 11.8117 27.4755 11.8891V21.3251C27.4755 21.4026 27.4128 21.4653 27.3353 21.4653H26.7258C26.6484 21.4653 26.5856 21.4026 26.5856 21.3251V11.8891C26.5856 11.8117 26.6484 11.7489 26.7258 11.7489Z" fill="#275B98"/>
<path d="M26.7258 11.7489H27.3353C27.4128 11.7489 27.4755 11.8117 27.4755 11.8891V13.8593C27.4755 13.9367 27.4128 13.9994 27.3353 13.9994H26.7258C26.6484 13.9994 26.5856 13.9367 26.5856 13.8593V11.8891C26.5856 11.8117 26.6484 11.7489 26.7258 11.7489Z" fill="#3175B7"/>
<path d="M10.164 21.3887V16.2247C10.1677 16.2013 10.1802 16.1802 10.1991 16.1659C10.218 16.1516 10.2417 16.1452 10.2652 16.148H10.7048C10.7283 16.1452 10.752 16.1516 10.7709 16.1659C10.7898 16.1802 10.8023 16.2013 10.806 16.2247V21.3887C10.8022 21.412 10.7896 21.4331 10.7708 21.4474C10.752 21.4616 10.7283 21.4681 10.7048 21.4654H10.2652C10.2417 21.4681 10.218 21.4616 10.1992 21.4474C10.1804 21.4331 10.1678 21.412 10.164 21.3887Z" fill="#3175B7"/>
<path d="M21.2753 21.9777C21.552 22.1469 21.789 22.3739 21.97 22.6431C21.9826 22.6624 21.9997 22.6783 22.0199 22.6894C22.0401 22.7005 22.0627 22.7064 22.0858 22.7066L23.4375 22.7106C23.4729 22.7107 23.507 22.7242 23.5329 22.7483L24.5892 23.7407C24.6153 23.7652 24.6497 23.7788 24.6855 23.7788H27.5132C27.5483 23.7785 27.582 23.7651 27.6078 23.7412C27.6336 23.7174 27.6495 23.6847 27.6525 23.6497C27.7121 23.0999 27.9728 22.5914 28.3845 22.222C28.7961 21.8526 29.3297 21.6483 29.8829 21.6483C30.436 21.6483 30.9696 21.8526 31.3812 22.222C31.7929 22.5914 32.0536 23.0999 32.1132 23.6497C32.1164 23.6846 32.1324 23.7171 32.1581 23.7409C32.1839 23.7646 32.2175 23.778 32.2525 23.7784H36.0642C36.0826 23.7785 36.1009 23.7749 36.1179 23.7678C36.135 23.7608 36.1504 23.7505 36.1635 23.7375C36.1765 23.7244 36.1868 23.709 36.1939 23.6919C36.2009 23.6749 36.2045 23.6566 36.2044 23.6382V21.9892C36.2044 21.9521 36.1896 21.9164 36.1633 21.8901C36.1371 21.8638 36.1014 21.849 36.0642 21.849H31.8559C31.8215 21.8491 31.7883 21.8361 31.7632 21.8127C31.2484 21.3461 30.5785 21.0878 29.8837 21.0878C29.189 21.0878 28.5191 21.3461 28.0043 21.8127C27.9791 21.8361 27.946 21.8491 27.9116 21.849H21.313C21.2978 21.8489 21.283 21.8537 21.2708 21.8627C21.2586 21.8718 21.2497 21.8845 21.2454 21.8991C21.2412 21.9137 21.2418 21.9292 21.2471 21.9434C21.2525 21.9576 21.2624 21.9696 21.2753 21.9777Z" fill="#275B98"/>
<path d="M10.8059 21.9893V22.566C10.8059 22.5845 10.8096 22.6027 10.8166 22.6198C10.8237 22.6368 10.8341 22.6523 10.8472 22.6653C10.8602 22.6783 10.8757 22.6887 10.8928 22.6957C10.9098 22.7027 10.9281 22.7063 10.9466 22.7062H11.8964C11.9194 22.7061 11.942 22.7002 11.9622 22.6892C11.9824 22.6782 11.9996 22.6624 12.0122 22.6432C12.1931 22.3739 12.4301 22.1469 12.7069 21.9777C12.7197 21.9695 12.7295 21.9574 12.7348 21.9432C12.7401 21.929 12.7406 21.9134 12.7363 21.8989C12.732 21.8843 12.7231 21.8715 12.7109 21.8625C12.6988 21.8534 12.684 21.8486 12.6688 21.8486H10.9466C10.9093 21.8486 10.8735 21.8635 10.8471 21.8898C10.8208 21.9162 10.8059 21.952 10.8059 21.9893Z" fill="#275B98"/>
<path d="M15.0436 21.9782C15.3204 22.1474 15.5573 22.3744 15.7383 22.6437C15.7509 22.6629 15.768 22.6787 15.7883 22.6897C15.8085 22.7007 15.8311 22.7065 15.8541 22.7067H18.1281C18.1511 22.7065 18.1737 22.7007 18.1939 22.6897C18.2141 22.6787 18.2313 22.6629 18.2439 22.6437C18.4248 22.3744 18.6618 22.1474 18.9386 21.9782C18.9514 21.97 18.9611 21.958 18.9664 21.9438C18.9717 21.9296 18.9723 21.9141 18.9681 21.8996C18.9638 21.885 18.955 21.8723 18.9429 21.8632C18.9308 21.8541 18.9161 21.8491 18.9009 21.8491H15.0813C15.0661 21.8491 15.0514 21.8541 15.0393 21.8632C15.0272 21.8723 15.0184 21.885 15.0141 21.8996C15.0099 21.9141 15.0104 21.9296 15.0158 21.9438C15.0211 21.958 15.0308 21.97 15.0436 21.9782Z" fill="#275B98"/>
<path d="M29.8834 25.7904C28.835 25.7904 27.9851 24.9405 27.9851 23.8921C27.9851 22.8437 28.835 21.9938 29.8834 21.9938C30.9318 21.9938 31.7817 22.8437 31.7817 23.8921C31.7817 24.9405 30.9318 25.7904 29.8834 25.7904Z" fill="#3175B7"/>
<path d="M27.9869 23.8921C28.2251 23.2266 28.8369 22.4347 29.8852 22.4347C30.9335 22.4347 31.469 23.1503 31.7817 23.8921C31.7817 23.3886 31.5817 22.9058 31.2257 22.5498C30.8697 22.1938 30.3869 21.9938 29.8834 21.9938C29.38 21.9938 28.8971 22.1938 28.5411 22.5498C28.1851 22.9058 27.9851 23.3886 27.9851 23.8921H27.9869Z" fill="#275B98"/>
<path d="M20.1073 25.7904C19.0588 25.7904 18.209 24.9405 18.209 23.8921C18.209 22.8437 19.0588 21.9938 20.1073 21.9938C21.1557 21.9938 22.0056 22.8437 22.0056 23.8921C22.0056 24.9405 21.1557 25.7904 20.1073 25.7904Z" fill="#3175B7"/>
<path d="M18.2085 23.8921C18.4467 23.2266 19.0585 22.4347 20.1073 22.4347C21.156 22.4347 21.6928 23.1503 22.0056 23.8921C21.9979 23.3936 21.7946 22.9181 21.4393 22.5682C21.0841 22.2184 20.6056 22.0223 20.107 22.0223C19.6085 22.0223 19.1299 22.2184 18.7747 22.5682C18.4195 22.9181 18.2161 23.3936 18.2085 23.8921Z" fill="#275B98"/>
<path d="M13.8755 25.7904C12.8271 25.7904 11.9772 24.9405 11.9772 23.8921C11.9772 22.8437 12.8271 21.9938 13.8755 21.9938C14.9239 21.9938 15.7738 22.8437 15.7738 23.8921C15.7738 24.9405 14.9239 25.7904 13.8755 25.7904Z" fill="#3175B7"/>
<path d="M11.9772 23.8921C12.2154 23.2266 12.8272 22.4347 13.8755 22.4347C14.9238 22.4347 15.461 23.1503 15.7738 23.8921C15.7738 23.3886 15.5738 22.9058 15.2178 22.5498C14.8618 22.1938 14.379 21.9938 13.8755 21.9938C13.372 21.9938 12.8892 22.1938 12.5332 22.5498C12.1772 22.9058 11.9772 23.3886 11.9772 23.8921Z" fill="#275B98"/>
<path d="M20.1072 24.8033C19.604 24.8033 19.196 24.3953 19.196 23.8921C19.196 23.3888 19.604 22.9808 20.1072 22.9808C20.6105 22.9808 21.0184 23.3888 21.0184 23.8921C21.0184 24.3953 20.6105 24.8033 20.1072 24.8033Z" fill="#94B7DB"/>
<path d="M29.8835 24.8033C29.3802 24.8033 28.9722 24.3953 28.9722 23.8921C28.9722 23.3888 29.3802 22.9808 29.8835 22.9808C30.3867 22.9808 30.7947 23.3888 30.7947 23.8921C30.7947 24.3953 30.3867 24.8033 29.8835 24.8033Z" fill="#94B7DB"/>
<path d="M13.8755 24.8033C13.3723 24.8033 12.9643 24.3953 12.9643 23.8921C12.9643 23.3888 13.3723 22.9808 13.8755 22.9808C14.3788 22.9808 14.7867 23.3888 14.7867 23.8921C14.7867 24.3953 14.3788 24.8033 13.8755 24.8033Z" fill="#94B7DB"/>
<path d="M25.3601 19.5869C25.3755 19.5869 25.3903 19.5808 25.4012 19.5699C25.4121 19.559 25.4182 19.5442 25.4182 19.5288V17.5919C25.4182 17.5765 25.4121 17.5617 25.4012 17.5508C25.3903 17.5399 25.3755 17.5338 25.3601 17.5338C25.3447 17.5338 25.3299 17.5399 25.319 17.5508C25.3081 17.5617 25.302 17.5765 25.302 17.5919V19.5288C25.302 19.5442 25.3081 19.559 25.319 19.5699C25.3299 19.5808 25.3447 19.5869 25.3601 19.5869Z" fill="#275B98"/>
<path d="M22.7229 19.5869C22.7383 19.5869 22.7531 19.5808 22.764 19.5699C22.7749 19.559 22.781 19.5442 22.781 19.5288V17.5919C22.781 17.5765 22.7749 17.5617 22.764 17.5508C22.7531 17.5399 22.7383 17.5338 22.7229 17.5338C22.7075 17.5338 22.6927 17.5399 22.6818 17.5508C22.6709 17.5617 22.6648 17.5765 22.6648 17.5919V19.5288C22.6648 19.5442 22.6709 19.559 22.6818 19.5699C22.6927 19.5808 22.7075 19.5869 22.7229 19.5869Z" fill="#275B98"/>
<path d="M14.811 19.5869C14.8264 19.5869 14.8412 19.5808 14.8521 19.5699C14.863 19.559 14.8691 19.5442 14.8691 19.5288V17.5919C14.8691 17.5765 14.863 17.5617 14.8521 17.5508C14.8412 17.5399 14.8264 17.5338 14.811 17.5338C14.7956 17.5338 14.7808 17.5399 14.7699 17.5508C14.759 17.5617 14.7529 17.5765 14.7529 17.5919V19.5288C14.7529 19.5442 14.759 19.559 14.7699 19.5699C14.7808 19.5808 14.7956 19.5869 14.811 19.5869Z" fill="#275B98"/>
<path d="M12.1737 19.5869C12.1891 19.5869 12.2039 19.5808 12.2148 19.5699C12.2257 19.559 12.2318 19.5442 12.2318 19.5288V17.5919C12.2318 17.5765 12.2257 17.5617 12.2148 17.5508C12.2039 17.5399 12.1891 17.5338 12.1737 17.5338C12.1583 17.5338 12.1435 17.5399 12.1326 17.5508C12.1217 17.5617 12.1156 17.5765 12.1156 17.5919V19.5288C12.1156 19.5442 12.1217 19.559 12.1326 19.5699C12.1435 19.5808 12.1583 19.5869 12.1737 19.5869Z" fill="#275B98"/>
<path d="M10.8063 20.18C10.8217 20.18 10.8365 20.1739 10.8474 20.163C10.8583 20.1521 10.8644 20.1373 10.8644 20.1219V16.8728C10.8632 16.8582 10.8565 16.8446 10.8457 16.8347C10.8349 16.8248 10.8208 16.8193 10.8061 16.8193C10.7915 16.8193 10.7773 16.8248 10.7665 16.8347C10.7557 16.8446 10.749 16.8582 10.7478 16.8728V20.1219C10.7479 20.1374 10.7541 20.1522 10.7651 20.163C10.776 20.1739 10.7909 20.18 10.8063 20.18Z" fill="#275B98"/>
<g opacity="0.7">
<path opacity="0.7" d="M10.1676 21.4272V20.0662C10.1676 20.0449 10.2306 20.0276 10.3078 20.0276H27.3353C27.413 20.0276 27.4755 20.0449 27.4755 20.0662V21.4272C27.4755 21.4481 27.413 21.4654 27.3353 21.4654H10.3078C10.2306 21.4645 10.1676 21.4481 10.1676 21.4272Z" fill="#275B98"/>
</g>
<path d="M34.3705 16.9616L33.851 16.1209C33.6648 15.8195 33.4046 15.5707 33.0951 15.3982C32.7855 15.2258 32.437 15.1354 32.0827 15.1356H31.7722C33.2663 15.1356 34.1678 16.7376 34.3705 16.9616Z" fill="white"/>
<path d="M17.7501 18.6066L19.6125 19.6855V17.5308L19.3596 17.6767V19.2468L18.003 18.4606L17.7501 18.6066Z" fill="white"/>
<path d="M18.1295 18.3874L19.212 19.0147V18.7428L18.5989 18.3879L19.212 18.0338V17.7623L18.1295 18.3874Z" fill="white"/>
</svg>
