<svg width="42" height="42" viewBox="0 0 42 42" fill="none" xmlns="http://www.w3.org/2000/svg">
<g opacity="0.15">
<path opacity="0.15" d="M21 42C32.598 42 42 32.598 42 21C42 9.40202 32.598 0 21 0C9.40202 0 0 9.40202 0 21C0 32.598 9.40202 42 21 42Z" fill="#B2D0E9"/>
</g>
<g opacity="0.3">
<path opacity="0.3" d="M22.3934 39.4753L22.3824 39.3277C22.9903 39.2823 23.6016 39.2063 24.1999 39.1013L24.2254 39.2472C23.6222 39.3547 23.0059 39.4299 22.3934 39.4753ZM18.706 39.3862C18.4019 39.3486 18.0946 39.3029 17.7927 39.2504L17.8182 39.1045C18.1177 39.1567 18.4214 39.2021 18.7245 39.2393L18.706 39.3862ZM25.131 39.0648L25.098 38.9204C26.2905 38.6486 27.4529 38.258 28.5675 37.7544L28.6285 37.8892C27.5048 38.3971 26.333 38.7909 25.1306 39.0648H25.131ZM15.9919 38.8423C14.805 38.5093 13.6545 38.0583 12.5575 37.4961L12.6253 37.3641C13.7132 37.9219 14.8544 38.3692 16.0317 38.6993L15.9919 38.8423ZM11.7456 37.0536C11.2134 36.7467 10.6929 36.4096 10.1943 36.0512L10.2809 35.9309C10.7752 36.2857 11.2932 36.621 11.8194 36.9244L11.7456 37.0536ZM30.2678 37.0451L30.1937 36.917C30.4563 36.7648 30.7188 36.604 30.9743 36.4387L31.0549 36.5632C30.7983 36.7289 30.5336 36.8918 30.2707 37.0451H30.2678ZM33.9365 34.2611L33.8332 34.1546C34.2686 33.7288 34.688 33.2782 35.0794 32.8119L35.1929 32.9074C34.7994 33.3775 34.3768 33.8328 33.9375 34.2611H33.9365ZM7.42627 33.611C7.21763 33.3868 7.01183 33.154 6.81454 32.9194L6.92809 32.824C7.1236 33.0568 7.32798 33.2874 7.53485 33.5102L7.42627 33.611ZM35.7706 32.1871L35.6524 32.0977C36.3914 31.1229 37.0313 30.0768 37.5628 28.9751L37.6963 29.0394C37.1606 30.15 36.5156 31.2045 35.7706 32.1871ZM5.6986 31.449C5.00257 30.4319 4.4099 29.3479 3.92941 28.213L4.06566 28.1555C4.54246 29.2812 5.13037 30.3566 5.82066 31.3656L5.6986 31.449ZM3.59161 27.3553C3.38119 26.7791 3.19774 26.1844 3.04623 25.5915L3.18994 25.556C3.34076 26.1481 3.52136 26.7321 3.73106 27.306L3.59161 27.3553ZM38.4144 27.3376L38.275 27.2872C38.3793 27.0005 38.4776 26.7078 38.5674 26.4164L38.7093 26.4601C38.6185 26.7535 38.5195 27.0491 38.4144 27.3376ZM39.436 22.844L39.2887 22.8295C39.3483 22.2262 39.3785 21.6106 39.3785 21.0003V20.9584H39.5265V20.9999C39.5268 21.6152 39.4963 22.2358 39.436 22.844ZM2.49802 21.9445C2.48276 21.6393 2.47495 21.3289 2.47424 21.0219H2.62256C2.62256 21.3275 2.63072 21.6354 2.64598 21.9381L2.49802 21.9445ZM39.3544 20.0426C39.2917 18.8216 39.1074 17.6099 38.8044 16.4255L38.9463 16.39C39.2515 17.584 39.4371 18.8054 39.5002 20.0362L39.3544 20.0426ZM2.7095 19.191L2.56189 19.1765C2.68178 17.9499 2.92391 16.7384 3.28468 15.56L3.42661 15.6033C3.0683 16.7724 2.82795 17.9744 2.70914 19.1914L2.7095 19.191ZM3.71757 14.7329L3.57812 14.6822C3.78747 14.1059 4.02805 13.5332 4.29417 12.979L4.42759 13.0432C4.16395 13.5939 3.92479 14.1616 3.71757 14.7329ZM38.2615 14.6761C38.1572 14.3923 38.0443 14.1059 37.9255 13.8245L38.0621 13.7667C38.1817 14.0488 38.2956 14.3373 38.4006 14.6236L38.2615 14.6761ZM36.168 10.6176C35.8242 10.1158 35.4505 9.62404 35.0581 9.16028L35.1716 9.06483C35.5669 9.53391 35.9434 10.0282 36.2904 10.5338L36.168 10.6176ZM6.33481 9.92103L6.21665 9.83268C6.40152 9.5882 6.59526 9.34514 6.79219 9.10989L6.90574 9.20498C6.70987 9.4374 6.51826 9.67868 6.33481 9.92103ZM34.4495 8.47474C33.6158 7.58018 32.6955 6.7704 31.7021 6.05727L31.7887 5.93699C32.7894 6.65601 33.7164 7.47232 34.5563 8.37397L34.4495 8.47474ZM8.15048 7.85982L8.04687 7.75337C8.92819 6.89124 9.89285 6.11866 10.9267 5.44696L11.0072 5.57151C9.98161 6.23787 9.02467 7.0044 8.15048 7.85982ZM11.7872 5.09391L11.7126 4.96546C12.2449 4.65746 12.7956 4.37289 13.3537 4.11954L13.4162 4.25473C12.8594 4.50696 12.3157 4.78704 11.7872 5.09391ZM30.1642 5.06445C29.9002 4.91259 29.6288 4.76533 29.3581 4.62659L29.4255 4.4946C29.6987 4.6344 29.9719 4.78307 30.238 4.93636L30.1642 5.06445ZM25.9478 3.29526C25.3623 3.13169 24.7609 2.9965 24.1612 2.89218L24.1864 2.74634C24.7896 2.85279 25.3971 2.98798 25.9879 3.15262L25.9478 3.29526ZM16.8818 3.0845L16.8488 2.94008C17.148 2.8716 17.452 2.80986 17.7536 2.75663L17.7795 2.90282C17.4808 2.95534 17.1774 3.01672 16.8818 3.0845ZM23.255 2.7584C22.0413 2.6112 20.8161 2.58304 19.597 2.67431L19.5856 2.5267C20.8146 2.43442 22.0496 2.46282 23.2731 2.6115L23.255 2.7584Z" fill="#94B7DB"/>
</g>
<path d="M40.2741 36.8077H1.72559V37.048H40.2741V36.8077Z" fill="#3175B7"/>
<path d="M40.5691 8.43046V9.50205H35.2995L33.8447 8.65046C33.7684 8.60603 33.6834 8.5785 33.5956 8.56975C33.5077 8.56099 33.419 8.57121 33.3355 8.59972L32.8966 8.76187L31.7966 9.16638C31.7752 9.17416 31.7557 9.18638 31.7394 9.20225C31.7231 9.21812 31.7103 9.23728 31.702 9.25844C31.6936 9.2796 31.6899 9.3023 31.691 9.32503C31.692 9.34776 31.6979 9.37 31.7082 9.39028L31.9829 9.92608C31.9927 9.94571 32.0066 9.96303 32.0236 9.97692C32.0406 9.9908 32.0603 10.0009 32.0815 10.0066C32.113 10.0154 32.1464 10.0145 32.1773 10.0038C32.3593 9.93814 32.6982 9.82176 32.9626 9.77101C33.382 9.69047 33.7953 10.4306 32.7685 10.8068C32.5818 10.8756 32.4221 10.9292 32.2862 10.9696C31.7054 11.1414 31.528 11.0665 31.3488 10.81C30.1991 9.14225 30.0544 8.73207 30.6171 8.43649C33.5622 6.88694 33.6147 6.74643 34.3134 6.94336C39.2346 8.58268 39.8158 8.43046 40.5691 8.43046Z" fill="#3175B7"/>
<path d="M13.0302 14.7347C12.7352 15.0349 12.3381 15.2116 11.8387 15.2648V15.751H11.3682V15.2648C11.0586 15.2445 10.7538 15.1787 10.4634 15.0697C10.1885 14.9684 9.92749 14.8331 9.68628 14.6669L10.029 14.0531C10.2251 14.1945 10.4379 14.311 10.6628 14.3998C10.8878 14.4941 11.1255 14.5546 11.3682 14.5793V12.4908C10.9379 12.3207 10.5964 12.124 10.3438 11.9007C10.0911 11.6774 9.96494 11.3612 9.96518 10.9522C9.96518 10.5219 10.1086 10.1698 10.3956 9.89588C10.6825 9.62195 11.0598 9.46381 11.5275 9.42147V8.91016H11.9969V9.42821C12.4916 9.47254 12.9706 9.62492 13.3999 9.87459L13.1051 10.4725C12.7283 10.2716 12.3589 10.153 11.9969 10.1166V11.9262H12.0047C12.267 12.0159 12.5194 12.132 12.7581 12.2729C12.9671 12.4023 13.1421 12.5799 13.2683 12.7909C13.4038 13.0117 13.4716 13.2921 13.4716 13.6323C13.4723 14.067 13.3252 14.4345 13.0302 14.7347ZM10.9658 11.3585C11.1013 11.4912 11.2886 11.6134 11.5275 11.725V10.1166C11.2883 10.1537 11.1011 10.2401 10.9658 10.3756C10.8986 10.4429 10.8459 10.5232 10.811 10.6117C10.776 10.7001 10.7595 10.7947 10.7625 10.8898C10.7623 10.9777 10.7802 11.0647 10.8152 11.1453C10.8502 11.226 10.9015 11.2986 10.9658 11.3585ZM12.4323 14.2521C12.5892 14.0981 12.6676 13.8935 12.6676 13.6383C12.6703 13.5347 12.6523 13.4317 12.6146 13.3351C12.577 13.2386 12.5204 13.1506 12.4483 13.0762C12.3021 12.9246 12.0989 12.7931 11.8387 12.6817V14.5552C12.0622 14.5154 12.2689 14.4101 12.4323 14.2525V14.2521Z" fill="#B65638"/>
<path d="M16.9726 11.5902C17.2529 11.7583 17.4802 12.0019 17.6284 12.2931C17.7789 12.5928 17.8554 12.9241 17.8516 13.2594C17.8558 13.6169 17.7665 13.9693 17.5925 14.2816C17.4258 14.5832 17.1817 14.8349 16.8854 15.0108C16.5882 15.1884 16.2479 15.2808 15.9018 15.278C15.5654 15.2775 15.232 15.2147 14.9185 15.0928C14.5963 14.9688 14.3432 14.8151 14.1592 14.6315L14.8075 13.6294C14.9282 13.7685 15.0805 13.8764 15.2517 13.9442C15.4266 14.0238 15.616 14.0664 15.8081 14.0694C16.0061 14.075 16.1983 14.002 16.3428 13.8665C16.4864 13.7316 16.5583 13.5433 16.5586 13.3016C16.5586 13.0255 16.478 12.8027 16.3169 12.6331C16.1558 12.4635 15.9372 12.3785 15.6612 12.3783C15.4889 12.3776 15.3174 12.4024 15.1524 12.4518C14.956 12.5161 14.7659 12.5985 14.5846 12.6977H14.5761V9.48962H17.4314V10.6961H15.6516V11.3443C15.7545 11.3308 15.8583 11.3249 15.9621 11.3269C16.3481 11.3269 16.685 11.4147 16.9726 11.5902Z" fill="#B65638"/>
<path d="M18.6031 14.1436C18.6589 14.0854 18.7258 14.0389 18.7998 14.0071C18.8739 13.9753 18.9536 13.9587 19.0343 13.9584C19.1835 13.9584 19.3215 14.0201 19.4483 14.1436C19.509 14.2004 19.5573 14.2692 19.5899 14.3456C19.6226 14.422 19.639 14.5044 19.6382 14.5875C19.6388 14.7493 19.576 14.905 19.4632 15.0211C19.3505 15.1373 19.1968 15.2046 19.035 15.2088C18.8744 15.209 18.7199 15.1473 18.6038 15.0364C18.5413 14.9799 18.4918 14.9105 18.4589 14.833C18.426 14.7555 18.4104 14.6717 18.4133 14.5875C18.4124 14.5044 18.4289 14.422 18.4615 14.3456C18.4942 14.2692 18.5424 14.2004 18.6031 14.1436Z" fill="#B65638"/>
<path d="M22.9256 11.5902C23.2059 11.7581 23.433 12.0018 23.5809 12.2931C23.7321 12.5926 23.8092 12.9239 23.8055 13.2594C23.8096 13.6168 23.7203 13.9692 23.5465 14.2816C23.3798 14.5832 23.1357 14.8349 22.8393 15.0108C22.5422 15.1884 22.2019 15.2808 21.8557 15.278C21.5194 15.2775 21.186 15.2147 20.8725 15.0928C20.5503 14.9688 20.2972 14.8151 20.1132 14.6315L20.7611 13.6294C20.882 13.7684 21.0345 13.8763 21.2057 13.9442C21.3806 14.0238 21.57 14.0664 21.7621 14.0694C21.9601 14.075 22.1523 14.002 22.2968 13.8665C22.4404 13.7316 22.5123 13.5433 22.5125 13.3016C22.5125 13.0255 22.432 12.8027 22.2709 12.6331C22.1098 12.4635 21.8904 12.3789 21.6127 12.3794C21.4404 12.3787 21.2689 12.4034 21.1038 12.4528C20.9075 12.5172 20.7174 12.5995 20.5361 12.6987H20.5276V9.48962H23.3829V10.6961H21.6049V11.3443C21.7078 11.3307 21.8116 11.3249 21.9154 11.3269C22.3007 11.3269 22.6374 11.4147 22.9256 11.5902Z" fill="#B65638"/>
<path d="M28.8605 12.6026C29.0188 12.7507 29.1016 12.9458 29.1089 13.1881V15.2106H28.2534V13.5454C28.2453 13.4098 28.2229 13.3084 28.1857 13.2402C28.1484 13.1721 28.0767 13.1338 27.9703 13.1263C27.7687 13.1263 27.6115 13.2239 27.4987 13.4191C27.382 13.6289 27.3236 13.866 27.3294 14.106V15.2092H26.4665V13.5454C26.4583 13.4098 26.4339 13.3084 26.3927 13.2402C26.3515 13.1721 26.2756 13.1338 26.1645 13.1263C25.9715 13.1263 25.8195 13.2239 25.7086 13.4191C25.595 13.6253 25.5376 13.8578 25.5422 14.0933V15.2085H24.6796V12.5164H25.4623L25.5237 12.9422C25.7416 12.5684 26.0661 12.3815 26.4974 12.3815C26.7152 12.3815 26.895 12.4257 27.0367 12.5139C27.1791 12.6034 27.2834 12.7424 27.3294 12.9042C27.4382 12.75 27.5776 12.6199 27.7389 12.5221C27.8861 12.4307 28.0557 12.3816 28.2289 12.3801C28.492 12.3806 28.7025 12.4548 28.8605 12.6026Z" fill="#B65638"/>
<path d="M30.1238 11.25C30.214 11.1682 30.3316 11.1231 30.4534 11.1237C30.572 11.124 30.6861 11.1691 30.7728 11.25C30.8179 11.2882 30.854 11.3359 30.8786 11.3897C30.9031 11.4435 30.9155 11.502 30.9147 11.5612C30.9158 11.6199 30.9036 11.6782 30.879 11.7316C30.8545 11.785 30.8181 11.8321 30.7728 11.8695C30.6852 11.9487 30.5715 11.9925 30.4534 11.9926C30.3322 11.9932 30.215 11.9494 30.1238 11.8695C30.0779 11.8324 30.0411 11.7854 30.016 11.732C29.9909 11.6786 29.9783 11.6202 29.979 11.5612C29.9784 11.5018 29.9911 11.443 30.0161 11.3892C30.0412 11.3353 30.078 11.2878 30.1238 11.25ZM30.8601 12.5164V15.2092H29.9975V12.5164H30.8601Z" fill="#B65638"/>
<path d="M32.6098 10.3473V15.2085H31.7472V10.3473H32.6098Z" fill="#B65638"/>
<path d="M35.3114 9.50202C34.9247 9.52756 34.5993 9.57298 34.2824 9.61556L32.8986 8.76184L33.3375 8.60039C33.421 8.57189 33.5097 8.56167 33.5976 8.57042C33.6854 8.57917 33.7704 8.6067 33.8467 8.65113L35.3015 9.50273L35.3114 9.50202Z" fill="#1C4377"/>
<path d="M12.8839 14.5875C12.5887 14.8877 12.1914 15.0643 11.692 15.1173V15.6038H11.2197V15.1166C10.9103 15.0962 10.6056 15.0304 10.3153 14.9214C10.0404 14.8202 9.7792 14.685 9.53784 14.519L9.88061 13.9052C10.0767 14.0465 10.2896 14.1629 10.5143 14.2518C10.7395 14.3454 10.9772 14.4052 11.2197 14.4293V12.3425C10.7895 12.1724 10.4481 11.9758 10.1957 11.7528C9.9433 11.5297 9.81709 11.2134 9.81709 10.8039C9.81709 10.3737 9.96056 10.0217 10.2475 9.74796C10.5344 9.47427 10.9117 9.31613 11.3794 9.27355V8.76331H11.8496V9.28136C12.3442 9.32525 12.8231 9.47715 13.2526 9.72632L12.9577 10.3242C12.5792 10.1224 12.2098 10.003 11.8496 9.96583V11.7755H11.8577C12.1198 11.8656 12.3722 11.9817 12.611 12.1221C12.82 12.2518 12.995 12.4295 13.1213 12.6406C13.2568 12.8608 13.3246 13.1411 13.3246 13.4815C13.3246 13.9179 13.1777 14.2866 12.8839 14.5875ZM10.8191 11.2113C10.9547 11.3445 11.142 11.4666 11.3812 11.5778V9.96725C11.142 10.0042 10.9547 10.0905 10.8191 10.2263C10.7515 10.2933 10.6982 10.3736 10.6628 10.462C10.6273 10.5504 10.6104 10.6452 10.613 10.7404C10.6126 10.8287 10.6306 10.9161 10.6658 10.997C10.7009 11.0779 10.7526 11.1507 10.8174 11.2106L10.8191 11.2113ZM12.286 14.1049C12.4424 13.9509 12.5208 13.7463 12.5213 13.4911C12.5239 13.3876 12.5059 13.2846 12.4682 13.1881C12.4306 13.0917 12.3741 13.0037 12.302 12.9294C12.1556 12.778 11.9522 12.6465 11.692 12.5348V14.408C11.9152 14.3676 12.1213 14.2619 12.2842 14.1042L12.286 14.1049Z" fill="#E56F2C"/>
<path d="M16.8244 11.4419C17.1049 11.6098 17.3322 11.8536 17.4801 12.1452C17.631 12.4447 17.7079 12.776 17.7044 13.1114C17.7085 13.4688 17.6193 13.8212 17.4457 14.1337C17.279 14.4353 17.0347 14.687 16.7381 14.8625C16.4412 15.0403 16.101 15.1329 15.7549 15.13C15.4184 15.1294 15.0849 15.0665 14.7713 14.9445C14.4491 14.821 14.1961 14.6672 14.0123 14.4832L14.6581 13.4822C14.7788 13.6213 14.9312 13.7292 15.1024 13.7969C15.2772 13.8766 15.4666 13.9192 15.6587 13.9222C15.8568 13.9279 16.049 13.8551 16.1935 13.7196C16.3373 13.5845 16.4092 13.3961 16.4092 13.1543C16.4092 12.8783 16.3288 12.6554 16.1679 12.4858C16.0071 12.3162 15.7889 12.2314 15.5133 12.2314C15.3408 12.2305 15.1692 12.2553 15.0041 12.3049C14.8076 12.3689 14.6175 12.4513 14.4364 12.5508H14.4278V9.34131H17.2832V10.5477H15.5048V11.1946C15.6077 11.1812 15.7115 11.1755 15.8152 11.1776C16.2003 11.1785 16.5367 11.2666 16.8244 11.4419Z" fill="#E56F2C"/>
<path d="M18.4548 13.9956C18.5106 13.9373 18.5775 13.8908 18.6517 13.8589C18.7258 13.827 18.8056 13.8104 18.8863 13.8101C19.0358 13.8101 19.1738 13.8719 19.3004 13.9956C19.3611 14.0525 19.4092 14.1214 19.4418 14.1978C19.4745 14.2743 19.4908 14.3567 19.4899 14.4399C19.4907 14.6018 19.4279 14.7575 19.3151 14.8736C19.2023 14.9897 19.0485 15.0569 18.8867 15.0608C18.7259 15.0612 18.5712 14.9994 18.4548 14.8884C18.3924 14.832 18.3431 14.7626 18.3103 14.6851C18.2775 14.6077 18.2621 14.524 18.265 14.4399C18.264 14.3567 18.2804 14.2742 18.3131 14.1978C18.3458 14.1213 18.3941 14.0524 18.4548 13.9956Z" fill="#E56F2C"/>
<path d="M22.7768 11.4419C23.0573 11.6098 23.2846 11.8536 23.4325 12.1452C23.5834 12.4447 23.6603 12.776 23.6567 13.1114C23.6609 13.4688 23.5717 13.8212 23.3981 14.1337C23.2313 14.4353 22.9871 14.6869 22.6905 14.8625C22.3936 15.0403 22.0534 15.1329 21.7073 15.13C21.3708 15.1294 21.0373 15.0665 20.7237 14.9445C20.4015 14.821 20.1485 14.6672 19.9647 14.4832L20.6116 13.4825C20.7322 13.6216 20.8846 13.7296 21.0558 13.7973C21.2309 13.877 21.4206 13.9195 21.6129 13.9222C21.8109 13.9278 22.0031 13.855 22.1476 13.7196C22.2915 13.5845 22.3634 13.3961 22.3634 13.1543C22.3634 12.8783 22.283 12.6554 22.1221 12.4858C21.9612 12.3162 21.7427 12.2314 21.4664 12.2314C21.2939 12.2305 21.1223 12.2553 20.9572 12.3049C20.7607 12.3689 20.5706 12.4513 20.3895 12.5508H20.3809V9.34131H23.2363V10.5477H21.4568V11.1946C21.5598 11.1812 21.6637 11.1755 21.7676 11.1776C22.1527 11.1785 22.4891 11.2666 22.7768 11.4419Z" fill="#E56F2C"/>
<path d="M28.7122 12.4545C28.8705 12.6021 28.9533 12.7972 28.9606 13.0397V15.0622H28.1062V13.3973C28.0979 13.2618 28.0753 13.1601 28.0384 13.0922C28.0015 13.0243 27.9295 12.9863 27.8223 12.9783C27.6213 12.9783 27.4642 13.0758 27.3511 13.271C27.2342 13.4807 27.1756 13.7179 27.1815 13.958V15.0608H26.3185V13.3973C26.31 13.2618 26.2855 13.1599 26.2444 13.0922C26.2032 13.0244 26.1273 12.9857 26.0166 12.9783C25.8236 12.9783 25.6716 13.0758 25.5606 13.271C25.4468 13.4772 25.3894 13.7097 25.3942 13.9452V15.0604H24.5316V12.368H25.3122L25.374 12.7938C25.5914 12.4198 25.9159 12.2328 26.3476 12.2328C26.565 12.2328 26.7447 12.277 26.8866 12.3655C27.0292 12.4548 27.1335 12.5939 27.1794 12.7558C27.2881 12.6015 27.4276 12.4715 27.5892 12.374C27.7363 12.2826 27.9057 12.2335 28.0789 12.2321C28.3431 12.2323 28.5542 12.3065 28.7122 12.4545Z" fill="#E56F2C"/>
<path d="M29.9755 11.1019C30.0658 11.0202 30.1834 10.9751 30.3051 10.9756C30.4237 10.9758 30.5378 11.0209 30.6245 11.1019C30.6696 11.1401 30.7058 11.1878 30.7303 11.2416C30.7549 11.2954 30.7672 11.354 30.7664 11.4131C30.7675 11.4718 30.7552 11.53 30.7307 11.5833C30.7061 11.6366 30.6698 11.6837 30.6245 11.7211C30.5371 11.8005 30.4232 11.8444 30.3051 11.8442C30.1839 11.8451 30.0665 11.8012 29.9755 11.7211C29.9295 11.6841 29.8926 11.6372 29.8675 11.5838C29.8424 11.5305 29.8299 11.4721 29.8307 11.4131C29.83 11.3537 29.8427 11.2949 29.8677 11.241C29.8928 11.1872 29.9296 11.1396 29.9755 11.1019ZM30.7118 12.3679V15.0608H29.8492V12.3679H30.7118Z" fill="#E56F2C"/>
<path d="M32.4617 10.1992V15.0604H31.5991V10.1992H32.4617Z" fill="#E56F2C"/>
<path d="M40.5689 9.02441V10.7443C39.8316 10.7443 38.7135 10.5339 37.7864 10.9128C36.8592 11.2918 36.031 11.2996 35.3547 11.1474C34.8068 11.025 32.8318 11.0501 32.614 11.0501C32.5009 11.0512 32.3894 11.0234 32.29 10.9696C31.9451 10.783 31.8241 10.3096 32.0839 10.0066C32.2212 9.84691 32.4646 9.73372 32.8365 9.73372C33.4042 9.73372 33.8367 9.67518 34.2813 9.61556C34.5978 9.57227 34.9232 9.52757 35.3103 9.50202C35.5254 9.48711 35.7596 9.47824 36.0225 9.47824V9.02441H40.5689Z" fill="#3175B7"/>
<path d="M40.5689 10.2103V10.7443C39.8316 10.7443 38.7135 10.5339 37.7864 10.9128C36.8592 11.2918 36.031 11.2996 35.3547 11.1474C34.8068 11.025 32.8318 11.0502 32.614 11.0502C32.5009 11.0512 32.3894 11.0234 32.29 10.9696C31.9451 10.783 31.8241 10.3096 32.0839 10.0066C31.9895 10.4171 32.1548 10.789 32.6789 10.789C33.2466 10.789 34.3636 10.6825 34.8977 10.7503C36.064 10.883 36.8709 10.883 37.6845 10.5374C38.0748 10.3721 38.578 10.1964 39.0581 10.1964C39.9398 10.1961 40.5689 10.2103 40.5689 10.2103Z" fill="#275B98"/>
<g opacity="0.5">
<g opacity="0.3">
<path opacity="0.3" d="M18.1589 36.8469C18.1589 36.8469 30.5649 36.9487 32.6006 36.9487C35.1596 34.3896 36.2965 26.5276 26.8679 28.4625C17.4393 30.3974 15.5583 36.2064 18.1589 36.8469Z" fill="#94B7DB"/>
</g>
<g opacity="0.3">
<path opacity="0.3" d="M21.9882 36.9806L21.897 36.9167C23.2322 35.0141 25.122 34.4418 26.9501 33.8886C29.2399 33.1956 31.6076 32.4789 32.9982 29.1587L33.1004 29.2016C31.69 32.57 29.2966 33.2946 26.9821 33.9968C25.0901 34.5681 23.301 35.1092 21.9882 36.9806Z" fill="#7B99BB"/>
</g>
<g opacity="0.3">
<path opacity="0.3" d="M20.1604 36.8468C23.3638 32.0882 19.6761 28.2106 16.5571 27.7049C13.4381 27.1993 14.0165 25.5238 14.0609 23.1471C14.1446 18.6876 8.7178 17.2768 7.49647 20.5799C6.10908 24.3291 9.78549 26.8604 8.16533 30.1958C6.78539 33.0395 10.9742 36.845 12.0057 36.845L20.1604 36.8468Z" fill="#94B7DB"/>
</g>
<g opacity="0.3">
<path opacity="0.3" d="M15.0889 36.8653L14.9825 36.8316C15.8734 34.0089 14.5584 30.1867 12.8293 28.2642C11.1176 26.3616 10.1064 22.1217 9.73059 18.7884L9.84094 18.776C10.2146 22.0923 11.2177 26.3066 12.912 28.19C14.7011 30.1782 16.004 33.9667 15.0889 36.8653Z" fill="#7B99BB"/>
</g>
<g opacity="0.3">
<path opacity="0.3" d="M33.0494 27.3125C33.1533 27.3125 33.2374 27.2283 33.2374 27.1245C33.2374 27.0206 33.1533 26.9364 33.0494 26.9364C32.9455 26.9364 32.8613 27.0206 32.8613 27.1245C32.8613 27.2283 32.9455 27.3125 33.0494 27.3125Z" fill="#94B7DB"/>
</g>
<g opacity="0.3">
<path opacity="0.3" d="M27.2334 23.8511C27.3372 23.8511 27.4214 23.7669 27.4214 23.663C27.4214 23.5592 27.3372 23.475 27.2334 23.475C27.1295 23.475 27.0453 23.5592 27.0453 23.663C27.0453 23.7669 27.1295 23.8511 27.2334 23.8511Z" fill="#94B7DB"/>
</g>
<g opacity="0.3">
<path opacity="0.3" d="M31.7163 27.9625C31.9477 27.9625 32.1354 27.7749 32.1354 27.5434C32.1354 27.312 31.9477 27.1244 31.7163 27.1244C31.4849 27.1244 31.2972 27.312 31.2972 27.5434C31.2972 27.7749 31.4849 27.9625 31.7163 27.9625Z" fill="#94B7DB"/>
</g>
<g opacity="0.3">
<path opacity="0.3" d="M34.4048 36.493C34.6362 36.493 34.8238 36.3054 34.8238 36.074C34.8238 35.8425 34.6362 35.6549 34.4048 35.6549C34.1733 35.6549 33.9857 35.8425 33.9857 36.074C33.9857 36.3054 34.1733 36.493 34.4048 36.493Z" fill="#94B7DB"/>
</g>
</g>
<path d="M15.7638 31.3696H14.7316C14.5092 31.3696 14.3289 31.5499 14.3289 31.7724V36.5459C14.3289 36.7683 14.5092 36.9486 14.7316 36.9486H15.7638C15.9862 36.9486 16.1665 36.7683 16.1665 36.5459V31.7724C16.1665 31.5499 15.9862 31.3696 15.7638 31.3696Z" fill="#1C4377"/>
<path d="M17.4602 31.3696H16.9347C16.7595 31.3696 16.6174 31.5117 16.6174 31.6868V36.531C16.6174 36.7062 16.7595 36.8482 16.9347 36.8482H17.4602C17.6354 36.8482 17.7774 36.7062 17.7774 36.531V31.6868C17.7774 31.5117 17.6354 31.3696 17.4602 31.3696Z" fill="#1C4377"/>
<path d="M25.0645 31.3696H24.539C24.3638 31.3696 24.2218 31.5117 24.2218 31.6868V36.531C24.2218 36.7062 24.3638 36.8482 24.539 36.8482H25.0645C25.2397 36.8482 25.3817 36.7062 25.3817 36.531V31.6868C25.3817 31.5117 25.2397 31.3696 25.0645 31.3696Z" fill="#1C4377"/>
<path d="M27.2681 31.3696H26.2359C26.0134 31.3696 25.8331 31.5499 25.8331 31.7724V36.5459C25.8331 36.7683 26.0134 36.9486 26.2359 36.9486H27.2681C27.4905 36.9486 27.6708 36.7683 27.6708 36.5459V31.7724C27.6708 31.5499 27.4905 31.3696 27.2681 31.3696Z" fill="#1C4377"/>
<path d="M15.9876 19.6237H26.0127C26.4399 19.6237 26.8497 19.7934 27.1518 20.0955C27.4539 20.3976 27.6236 20.8073 27.6236 21.2346L28.4295 25.5451V30.3917C28.4295 30.4452 28.4082 30.4965 28.3704 30.5342C28.3326 30.572 28.2814 30.5933 28.2279 30.5933H13.771C13.7175 30.5933 13.6663 30.572 13.6285 30.5342C13.5907 30.4965 13.5695 30.4452 13.5695 30.3917V25.5451L14.3749 21.2346C14.375 21.0229 14.4167 20.8133 14.4978 20.6178C14.5789 20.4222 14.6977 20.2446 14.8475 20.095C14.9973 19.9454 15.175 19.8267 15.3707 19.7459C15.5663 19.665 15.7759 19.6235 15.9876 19.6237Z" fill="#3175B7"/>
<path d="M26.0127 19.6237C26.4399 19.6237 26.8497 19.7934 27.1518 20.0955C27.4539 20.3976 27.6236 20.8073 27.6236 21.2346L28.4294 25.5451V30.3917C28.4294 30.4452 28.4082 30.4964 28.3704 30.5342C28.3326 30.572 28.2813 30.5933 28.2279 30.5933H27.0215V25.5451L26.1794 21.2584C26.1713 21.2165 26.1524 21.1776 26.1247 21.1452C26.0969 21.1129 26.0613 21.0883 26.0212 21.0739L22.0116 19.6244L26.0127 19.6237Z" fill="#275B98"/>
<path d="M14.9806 26.1333V25.6756L15.7861 21.3647C15.7861 21.3211 15.7947 21.278 15.8113 21.2377C15.828 21.1974 15.8525 21.1608 15.8834 21.13C15.9142 21.0992 15.9508 21.0748 15.9911 21.0581C16.0314 21.0415 16.0746 21.0329 16.1182 21.033H25.8814C25.925 21.0329 25.9681 21.0415 26.0084 21.0581C26.0487 21.0748 26.0854 21.0992 26.1162 21.13C26.147 21.1608 26.1715 21.1974 26.1882 21.2377C26.2049 21.278 26.2135 21.3211 26.2135 21.3647L27.019 25.6752V26.133L14.9806 26.1333Z" fill="#94B7DB"/>
<path d="M13.5709 29.1047V30.3917C13.5709 30.4452 13.5922 30.4964 13.63 30.5342C13.6678 30.572 13.719 30.5933 13.7725 30.5933H28.2272C28.2807 30.5933 28.332 30.572 28.3698 30.5342C28.4076 30.4964 28.4288 30.4452 28.4288 30.3917V29.1047H13.5709Z" fill="#275B98"/>
<path d="M28.2269 31.1577H13.7725C13.6612 31.1577 13.5709 31.2479 13.5709 31.3593V33.7948C13.5709 33.9061 13.6612 33.9964 13.7725 33.9964H28.2269C28.3382 33.9964 28.4284 33.9061 28.4284 33.7948V31.3593C28.4284 31.2479 28.3382 31.1577 28.2269 31.1577Z" fill="#275B98"/>
<path d="M22.3115 28.2971L20.0909 29.5841V27.0148L20.3925 27.1886V29.0604L22.0102 28.1233L22.3115 28.2971Z" fill="white"/>
<path d="M21.8594 28.0359L20.5688 28.7839V28.4599L21.2994 28.0366L20.5688 27.6147V27.2908L21.8594 28.0359Z" fill="white"/>
<path d="M12.8872 26.1689L12.8108 26.2957L13.8025 26.8932L13.8789 26.7664L12.8872 26.1689Z" fill="#3175B7"/>
<path d="M13.0418 23.3696H12.171C12.0891 23.3696 12.0227 23.436 12.0227 23.5179V26.3321C12.0227 26.414 12.0891 26.4804 12.171 26.4804H13.0418C13.1237 26.4804 13.1901 26.414 13.1901 26.3321V23.5179C13.1901 23.436 13.1237 23.3696 13.0418 23.3696Z" fill="#3175B7"/>
<path d="M29.1124 26.1684L28.1205 26.7656L28.1968 26.8924L29.1887 26.2952L29.1124 26.1684Z" fill="#3175B7"/>
<path d="M28.9577 26.48H29.8285C29.9104 26.48 29.9768 26.4136 29.9768 26.3317V23.5175C29.9768 23.4356 29.9104 23.3692 29.8285 23.3692H28.9577C28.8758 23.3692 28.8094 23.4356 28.8094 23.5175V26.3317C28.8094 26.4136 28.8758 26.48 28.9577 26.48Z" fill="#3175B7"/>
<path d="M15.4586 25.4453C15.6176 24.2474 15.8429 23.0637 16.0838 21.8828L16.1073 21.7725L16.1193 21.7161C16.1249 21.6926 16.1319 21.6695 16.1403 21.6469C16.1747 21.5564 16.2349 21.4779 16.3134 21.4212C16.3919 21.3644 16.4853 21.3319 16.582 21.3275C16.6686 21.3275 16.736 21.3275 16.8137 21.3275C17.115 21.3335 17.4169 21.3357 17.7175 21.346C18.32 21.3606 18.9225 21.3895 19.525 21.4325C18.9225 21.4758 18.32 21.5048 17.7175 21.5195C17.4162 21.5298 17.1143 21.5315 16.8137 21.5379L16.593 21.5408C16.5383 21.5437 16.4857 21.5628 16.4419 21.5958C16.3981 21.6282 16.3648 21.6727 16.3461 21.7239C16.3415 21.7366 16.3378 21.7497 16.3351 21.7629L16.3237 21.8172L16.3013 21.9279C16.0533 23.1081 15.789 24.284 15.4586 25.4453Z" fill="white"/>
<g opacity="0.9">
<path opacity="0.9" d="M8.33216 14.8358C7.5824 15.7843 6.96499 16.8353 6.56936 17.9629C6.17372 19.0906 5.98743 20.2811 6.06372 21.4495C6.14001 22.618 6.47355 23.7591 7.0796 24.7243C7.67163 25.6849 8.52439 26.4576 9.53859 26.9522C9.6024 26.983 9.65954 27.026 9.70674 27.0788C9.75393 27.1316 9.79026 27.1932 9.81366 27.26C9.83705 27.3269 9.84705 27.3977 9.84308 27.4684C9.83911 27.5391 9.82125 27.6084 9.79052 27.6722C9.75979 27.736 9.71679 27.7932 9.66397 27.8404C9.61116 27.8875 9.54957 27.9239 9.48272 27.9473C9.41586 27.9707 9.34506 27.9807 9.27434 27.9767C9.20362 27.9727 9.13438 27.9549 9.07056 27.9241C9.05874 27.9185 9.04691 27.9124 9.03508 27.906L9.03011 27.9032C7.89976 27.2466 6.97911 26.2825 6.37526 25.1231C5.77595 23.9876 5.51231 22.7102 5.52367 21.4637C5.53502 20.2172 5.82563 18.9859 6.31778 17.8639C6.80993 16.742 7.51463 15.7229 8.33216 14.8358Z" fill="#E56F2C"/>
<path opacity="0.9" d="M8.63452 28.2118L10.6283 27.962L9.41551 26.36L8.63452 28.2118Z" fill="#E56F2C"/>
</g>
<g opacity="0.9">
<path opacity="0.9" d="M33.6674 14.8358C34.4835 15.7257 35.1892 16.7384 35.6803 17.8639C36.1714 18.9895 36.461 20.2133 36.4744 21.4637C36.4879 22.7141 36.2222 23.9866 35.6228 25.1231C35.0185 26.2819 34.0976 27.2454 32.9673 27.9014L32.9634 27.9036C32.8396 27.9722 32.6938 27.9895 32.5574 27.9516C32.421 27.9138 32.305 27.8238 32.2343 27.7011C32.1637 27.5785 32.1441 27.4329 32.1798 27.296C32.2155 27.159 32.3036 27.0415 32.4251 26.9689C32.4365 26.9625 32.4489 26.9558 32.4606 26.9505C33.4748 26.4558 34.3275 25.6831 34.9196 24.7225C35.5256 23.7573 35.8595 22.6134 35.9354 21.4477C36.0114 20.2821 35.8265 19.086 35.4298 17.9612C35.0331 16.8364 34.4171 15.7825 33.6674 14.8358Z" fill="#E56F2C"/>
<path opacity="0.9" d="M32.584 26.36L31.3712 27.962L33.365 28.2118L32.584 26.36Z" fill="#E56F2C"/>
</g>
</svg>
