<svg width="47" height="47" viewBox="0 0 47 47" fill="none" xmlns="http://www.w3.org/2000/svg">
<mask id="mask0" mask-type="alpha" maskUnits="userSpaceOnUse" x="0" y="0" width="47" height="47">
<circle cx="23.5" cy="23.5" r="23" fill="white" stroke="#E2E4EA"/>
</mask>
<g mask="url(#mask0)">
<path opacity="0.15" d="M24.0002 44.205C35.5981 44.205 45 34.8031 45 23.2052C45 11.6073 35.5981 2.20532 24.0002 2.20532C12.4023 2.20532 3.00037 11.6073 3.00037 23.2052C3.00037 34.8031 12.4023 44.205 24.0002 44.205Z" fill="#B2D0E9"/>
<g opacity="0.4">
<g opacity="0.4">
<path opacity="0.3" d="M15.4067 37.6443L15.4067 20.5494C15.4067 20.3625 15.2552 20.2109 15.0683 20.2109C14.8814 20.2109 14.7299 20.3625 14.7299 20.5494L14.7299 37.6443C14.7299 37.8312 14.8814 37.9827 15.0683 37.9827C15.2552 37.9827 15.4067 37.8312 15.4067 37.6443Z" fill="#94B7DB"/>
<path opacity="0.3" d="M11.3519 -1.23616L11.3519 15.8587C11.3519 16.0456 11.5035 16.1971 11.6904 16.1971C11.8773 16.1971 12.0288 16.0456 12.0288 15.8587L12.0288 -1.23616C12.0288 -1.42308 11.8773 -1.57461 11.6904 -1.57461C11.5035 -1.57461 11.3519 -1.42308 11.3519 -1.23616Z" fill="#94B7DB"/>
<path opacity="0.3" d="M6.86597 26.9406L6.86597 44.0355C6.86597 44.2224 7.0175 44.3739 7.20441 44.3739C7.39133 44.3739 7.54286 44.2224 7.54286 44.0355L7.54286 26.9406C7.54286 26.7537 7.39133 26.6021 7.20441 26.6021C7.0175 26.6021 6.86597 26.7537 6.86597 26.9406Z" fill="#94B7DB"/>
<path opacity="0.3" d="M35.8518 9.43332V-7.66155C35.8518 -7.84847 35.7003 -8 35.5134 -8C35.3265 -8 35.1749 -7.84847 35.1749 -7.66155V9.43332C35.1749 9.62024 35.3265 9.77177 35.5134 9.77177C35.7003 9.77177 35.8518 9.62024 35.8518 9.43332Z" fill="#94B7DB"/>
<path opacity="0.3" d="M35.8583 12.2645V11.2879C35.8583 11.101 35.7067 10.9495 35.5198 10.9495C35.3329 10.9495 35.1814 11.101 35.1814 11.2879V12.2645C35.1814 12.4514 35.3329 12.603 35.5198 12.603C35.7067 12.603 35.8583 12.4514 35.8583 12.2645Z" fill="#94B7DB"/>
<path opacity="0.3" d="M32.1764 35.1501V18.0552C32.1764 17.8683 32.0249 17.7168 31.8379 17.7168C31.651 17.7168 31.4995 17.8683 31.4995 18.0552V35.1501C31.4995 35.337 31.651 35.4886 31.8379 35.4886C32.0249 35.4886 32.1764 35.337 32.1764 35.1501Z" fill="#94B7DB"/>
<path opacity="0.3" d="M32.1764 37.9806V37.004C32.1764 36.8171 32.0249 36.6655 31.838 36.6655C31.6511 36.6655 31.4995 36.8171 31.4995 37.004V37.9806C31.4995 38.1675 31.6511 38.319 31.838 38.319C32.0249 38.319 32.1764 38.1675 32.1764 37.9806Z" fill="#94B7DB"/>
<path opacity="0.3" d="M26.8165 18.0816V0.986762C26.8165 0.799843 26.665 0.648315 26.4781 0.648315C26.2911 0.648315 26.1396 0.799843 26.1396 0.986762V18.0816C26.1396 18.2686 26.2911 18.4201 26.4781 18.4201C26.665 18.4201 26.8165 18.2686 26.8165 18.0816Z" fill="#94B7DB"/>
<path opacity="0.3" d="M26.8173 20.912V19.9354C26.8173 19.7485 26.6657 19.5969 26.4788 19.5969C26.2919 19.5969 26.1404 19.7485 26.1404 19.9354V20.912C26.1404 21.0989 26.2919 21.2504 26.4788 21.2504C26.6657 21.2504 26.8173 21.0989 26.8173 20.912Z" fill="#94B7DB"/>
<path opacity="0.3" d="M21.2848 39.3227V38.3461C21.2848 38.1592 21.1333 38.0077 20.9463 38.0077C20.7594 38.0077 20.6079 38.1592 20.6079 38.3461V39.3227C20.6079 39.5097 20.7594 39.6612 20.9463 39.6612C21.1333 39.6612 21.2848 39.5097 21.2848 39.3227Z" fill="#94B7DB"/>
<path opacity="0.3" d="M15.406 40.5282V39.5516C15.406 39.3647 15.2545 39.2131 15.0676 39.2131C14.8807 39.2131 14.7291 39.3647 14.7291 39.5516V40.5282C14.7291 40.7151 14.8807 40.8666 15.0676 40.8666C15.2545 40.8666 15.406 40.7151 15.406 40.5282Z" fill="#94B7DB"/>
<path opacity="0.3" d="M11.3519 17.8536V18.8301C11.3519 19.0171 11.5035 19.1686 11.6904 19.1686C11.8773 19.1686 12.0288 19.0171 12.0288 18.8301V17.8536C12.0288 17.6666 11.8773 17.5151 11.6904 17.5151C11.5035 17.5151 11.3519 17.6666 11.3519 17.8536Z" fill="#94B7DB"/>
<path opacity="0.3" d="M38.8259 39.8651V22.7702C38.8259 22.5833 38.6744 22.4318 38.4875 22.4318C38.3005 22.4318 38.149 22.5833 38.149 22.7702V39.8651C38.149 40.052 38.3005 40.2035 38.4875 40.2035C38.6744 40.2035 38.8259 40.052 38.8259 39.8651Z" fill="#94B7DB"/>
<path opacity="0.3" d="M45 30.9806V13.8857C45 13.6988 44.8485 13.5472 44.6616 13.5472C44.4746 13.5472 44.3231 13.6988 44.3231 13.8857V30.9806C44.3231 31.1675 44.4746 31.319 44.6616 31.319C44.8485 31.319 45 31.1675 45 30.9806Z" fill="#94B7DB"/>
<path opacity="0.3" d="M3.67688 30.9807L3.67688 13.8858C3.67688 13.6989 3.52535 13.5474 3.33843 13.5474C3.15152 13.5474 2.99999 13.6989 2.99999 13.8858L2.99999 30.9807C2.99999 31.1676 3.15152 31.3192 3.33843 31.3192C3.52535 31.3192 3.67688 31.1676 3.67688 30.9807Z" fill="#94B7DB"/>
<path opacity="0.3" d="M31.9686 12.717V-1.25001C31.9686 -1.32228 31.91 -1.38086 31.8377 -1.38086C31.7655 -1.38086 31.7069 -1.32228 31.7069 -1.25001V12.717C31.7069 12.7892 31.7655 12.8478 31.8377 12.8478C31.91 12.8478 31.9686 12.7892 31.9686 12.717Z" fill="#94B7DB"/>
<path opacity="0.3" d="M20.9462 11.5656V-2.40138C20.9462 -2.47364 20.8876 -2.53223 20.8153 -2.53223C20.743 -2.53223 20.6845 -2.47364 20.6845 -2.40138V11.5656C20.6845 11.6379 20.743 11.6964 20.8153 11.6964C20.8876 11.6964 20.9462 11.6379 20.9462 11.5656Z" fill="#94B7DB"/>
<path opacity="0.3" d="M7.33582 22.1569L7.33582 8.18993C7.33582 8.11766 7.27723 8.05908 7.20497 8.05908C7.1327 8.05908 7.07412 8.11766 7.07412 8.18993L7.07412 22.1569C7.07412 22.2292 7.1327 22.2878 7.20497 22.2878C7.27723 22.2878 7.33582 22.2292 7.33582 22.1569Z" fill="#94B7DB"/>
<path opacity="0.3" d="M35.6439 30.6546V16.6876C35.6439 16.6153 35.5853 16.5568 35.5131 16.5568C35.4408 16.5568 35.3823 16.6153 35.3823 16.6876V30.6546C35.3823 30.7268 35.4408 30.7854 35.5131 30.7854C35.5853 30.7854 35.6439 30.7268 35.6439 30.6546Z" fill="#94B7DB"/>
<path opacity="0.3" d="M35.6439 32.6808V31.6611C35.6439 31.5889 35.5853 31.5303 35.5131 31.5303C35.4408 31.5303 35.3823 31.5889 35.3823 31.6611V32.6808C35.3823 32.7531 35.4408 32.8117 35.5131 32.8117C35.5853 32.8117 35.6439 32.7531 35.6439 32.6808Z" fill="#94B7DB"/>
<path opacity="0.3" d="M34.5797 43.295V35.7482C34.5797 35.6759 34.5211 35.6173 34.4489 35.6173C34.3766 35.6173 34.318 35.6759 34.318 35.7482V43.295C34.318 43.3672 34.3766 43.4258 34.4489 43.4258C34.5211 43.4258 34.5797 43.3672 34.5797 43.295Z" fill="#94B7DB"/>
<path opacity="0.3" d="M41.1031 30.8272V13.6775C41.1031 13.6052 41.0446 13.5466 40.9723 13.5466C40.9 13.5466 40.8415 13.6052 40.8415 13.6775V30.8272C40.8415 30.8994 40.9 30.958 40.9723 30.958C41.0446 30.958 41.1031 30.8994 41.1031 30.8272Z" fill="#94B7DB"/>
<path opacity="0.3" d="M41.1039 33.1335V32.1057C41.1039 32.0334 41.0453 31.9749 40.9731 31.9749C40.9008 31.9749 40.8422 32.0334 40.8422 32.1057V33.1335C40.8422 33.2058 40.9008 33.2644 40.9731 33.2644C41.0453 33.2644 41.1039 33.2058 41.1039 33.1335Z" fill="#94B7DB"/>
<path opacity="0.3" d="M38.6184 17.2622V0.112537C38.6184 0.0402721 38.5598 -0.0183105 38.4875 -0.0183105C38.4152 -0.0183105 38.3566 0.0402721 38.3566 0.112537V17.2622C38.3566 17.3345 38.4152 17.3931 38.4875 17.3931C38.5598 17.3931 38.6184 17.3345 38.6184 17.2622Z" fill="#94B7DB"/>
<path opacity="0.3" d="M38.6184 19.5691V18.5414C38.6184 18.4691 38.5598 18.4105 38.4875 18.4105C38.4153 18.4105 38.3567 18.4691 38.3567 18.5414V19.5691C38.3567 19.6414 38.4153 19.7 38.4875 19.7C38.5598 19.7 38.6184 19.6414 38.6184 19.5691Z" fill="#94B7DB"/>
<path opacity="0.3" d="M31.9686 15.4033V14.3755C31.9686 14.3032 31.91 14.2446 31.8378 14.2446C31.7655 14.2446 31.7069 14.3032 31.7069 14.3755V15.4033C31.7069 15.4756 31.7655 15.5341 31.8378 15.5341C31.91 15.5341 31.9686 15.4756 31.9686 15.4033Z" fill="#94B7DB"/>
<path opacity="0.3" d="M22.9818 31.2994V30.2716C22.9818 30.1993 22.9232 30.1407 22.851 30.1407C22.7787 30.1407 22.7201 30.1993 22.7201 30.2716V31.2994C22.7201 31.3716 22.7787 31.4302 22.851 31.4302C22.9232 31.4302 22.9818 31.3716 22.9818 31.2994Z" fill="#94B7DB"/>
<path opacity="0.3" d="M31.9686 55.0637V41.0968C31.9686 41.0245 31.91 40.9659 31.8377 40.9659C31.7654 40.9659 31.7068 41.0245 31.7068 41.0968V55.0637C31.7068 55.136 31.7654 55.1946 31.8377 55.1946C31.91 55.1946 31.9686 55.136 31.9686 55.0637Z" fill="#94B7DB"/>
<path opacity="0.3" d="M29.9667 40.5281V39.5004C29.9667 39.4281 29.9081 39.3695 29.8358 39.3695C29.7635 39.3695 29.7049 39.4281 29.7049 39.5004V40.5281C29.7049 40.6004 29.7635 40.659 29.8358 40.659C29.9081 40.659 29.9667 40.6004 29.9667 40.5281Z" fill="#94B7DB"/>
<path opacity="0.3" d="M7.33569 24.3637V23.3359C7.33569 23.2637 7.27711 23.2051 7.20485 23.2051C7.13258 23.2051 7.074 23.2637 7.074 23.3359V24.3637C7.074 24.4359 7.13258 24.4945 7.20485 24.4945C7.27711 24.4945 7.33569 24.4359 7.33569 24.3637Z" fill="#94B7DB"/>
<path opacity="0.3" d="M11.8213 35.6678V21.7008C11.8213 21.6285 11.7627 21.5699 11.6904 21.5699C11.6182 21.5699 11.5596 21.6285 11.5596 21.7008V35.6678C11.5596 35.74 11.6182 35.7986 11.6904 35.7986C11.7627 35.7986 11.8213 35.74 11.8213 35.6678Z" fill="#94B7DB"/>
<path opacity="0.3" d="M11.8213 37.8747V36.8469C11.8213 36.7747 11.7627 36.7161 11.6904 36.7161C11.6182 36.7161 11.5596 36.7747 11.5596 36.8469V37.8747C11.5596 37.947 11.6182 38.0056 11.6904 38.0056C11.7627 38.0056 11.8213 37.947 11.8213 37.8747Z" fill="#94B7DB"/>
<path opacity="0.3" d="M29.9674 45.0098V41.2167C29.9674 41.1444 29.9088 41.0858 29.8366 41.0858C29.7643 41.0858 29.7057 41.1444 29.7057 41.2167V45.0098C29.7057 45.0821 29.7643 45.1407 29.8366 45.1407C29.9088 45.1407 29.9674 45.0821 29.9674 45.0098Z" fill="#94B7DB"/>
<path opacity="0.3" d="M22.9818 49.3328V35.3658C22.9818 35.2936 22.9232 35.235 22.851 35.235C22.7787 35.235 22.7201 35.2936 22.7201 35.3658V49.3328C22.7201 49.4051 22.7787 49.4637 22.851 49.4637C22.9232 49.4637 22.9818 49.4051 22.9818 49.3328Z" fill="#94B7DB"/>
<path opacity="0.3" d="M15.1981 16.8244V2.85741C15.1981 2.78514 15.1395 2.72656 15.0673 2.72656C14.995 2.72656 14.9364 2.78514 14.9364 2.85741V16.8244C14.9364 16.8967 14.995 16.9552 15.0673 16.9552C15.1395 16.9552 15.1981 16.8967 15.1981 16.8244Z" fill="#94B7DB"/>
<path opacity="0.3" d="M26.6091 38.7035V24.7366C26.6091 24.6643 26.5505 24.6057 26.4783 24.6057C26.406 24.6057 26.3474 24.6643 26.3474 24.7366V38.7035C26.3474 38.7758 26.406 38.8344 26.4783 38.8344C26.5505 38.8344 26.6091 38.7758 26.6091 38.7035Z" fill="#94B7DB"/>
<path opacity="0.3" d="M26.6091 41.3899V40.3622C26.6091 40.2899 26.5505 40.2313 26.4783 40.2313C26.406 40.2313 26.3474 40.2899 26.3474 40.3622V41.3899C26.3474 41.4622 26.406 41.5208 26.4783 41.5208C26.5505 41.5208 26.6091 41.4622 26.6091 41.3899Z" fill="#94B7DB"/>
<path opacity="0.3" d="M20.6837 17.3251V31.2921C20.6837 31.3644 20.7423 31.423 20.8146 31.423C20.8868 31.423 20.9454 31.3644 20.9454 31.2921V17.3251C20.9454 17.2529 20.8868 17.1943 20.8146 17.1943C20.7423 17.1943 20.6837 17.2529 20.6837 17.3251Z" fill="#94B7DB"/>
<path opacity="0.3" d="M20.6846 15.1182V16.146C20.6846 16.2183 20.7431 16.2769 20.8154 16.2769C20.8877 16.2769 20.9462 16.2183 20.9462 16.146V15.1182C20.9462 15.0459 20.8877 14.9873 20.8154 14.9873C20.7431 14.9873 20.6846 15.0459 20.6846 15.1182Z" fill="#94B7DB"/>
</g>
</g>
<path opacity="0.3" d="M24.0005 41.069C29.2868 41.069 33.5721 40.4724 33.5721 39.7364C33.5721 39.0004 29.2868 38.4038 24.0005 38.4038C18.7143 38.4038 14.429 39.0004 14.429 39.7364C14.429 40.4724 18.7143 41.069 24.0005 41.069Z" fill="#94B7DB"/>
<g opacity="0.9">
<path opacity="0.9" d="M13.4647 35.2029C12.8244 34.4529 12.3236 33.5823 11.9296 32.67C11.5399 31.751 11.2317 30.7995 11.0086 29.8265C10.5539 27.8813 10.3507 25.8872 10.2294 23.9055L11.4567 23.8945C11.3726 25.8419 11.369 27.7892 11.6124 29.7168C11.7292 30.6811 11.931 31.6331 12.2155 32.5619C12.4988 33.4992 12.9198 34.3893 13.4647 35.2029Z" fill="#3276B7"/>
<path opacity="0.9" d="M12.5488 24.3952L10.8441 21.4552L9.14966 24.4011L12.5488 24.3952Z" fill="#3276B7"/>
</g>
<g opacity="0.9">
<path opacity="0.9" d="M34.5364 35.2028C35.0813 34.3892 35.5023 33.4991 35.7856 32.5617C36.0706 31.6328 36.2729 30.6805 36.3902 29.716C36.6336 27.7884 36.6299 25.8418 36.5459 23.8937L37.7732 23.9046C37.6518 25.8863 37.4486 27.8805 36.994 29.8256C36.7709 30.7986 36.4627 31.7502 36.0729 32.6692C35.6774 33.5851 35.1767 34.4528 34.5364 35.2028Z" fill="#3276B7"/>
<path opacity="0.9" d="M38.8513 24.4011L37.1569 21.4552L35.453 24.3952L38.8513 24.4011Z" fill="#3276B7"/>
</g>
<path d="M23.2351 11.8741H24.7651L24.0005 25.7081L23.2351 11.8741Z" fill="#E56F2C"/>
<path d="M24.9786 7.90272C24.9786 7.94 24.9786 7.97582 24.9786 8.0109L24.937 8.77259L24.7966 11.3091H23.2038L23.0627 8.77259L23.0218 8.0109C23.0143 7.75546 23.1069 7.5072 23.2799 7.31904C23.4528 7.13087 23.6923 7.01768 23.9475 7.00357C24.2027 6.98946 24.4533 7.07556 24.6459 7.24352C24.8385 7.41147 24.9579 7.64801 24.9786 7.90272Z" fill="#E56F2C"/>
<path d="M26.6016 8.77254L24.0008 4.26892L21.3999 8.77254H26.6016Z" fill="#E56F2C"/>
<path d="M33.276 24.9867V38.7819C33.2758 39.0349 33.1753 39.2775 32.9964 39.4565C32.8176 39.6354 32.5751 39.7362 32.3221 39.7365H26.6357C26.3827 39.7362 26.1402 39.6354 25.9613 39.4565C25.7825 39.2775 25.682 39.0349 25.6818 38.7819V32.2695H27.5407C27.7905 32.2701 28.0384 32.2245 28.2717 32.135C28.411 32.0809 28.5441 32.0117 28.6686 31.9289C28.7505 31.8744 28.8283 31.8138 28.901 31.7476C29.0524 31.6111 29.1828 31.453 29.2877 31.2783C29.3871 31.1103 29.461 30.9285 29.507 30.7388C29.5405 30.6099 29.5603 30.4778 29.5662 30.3448C29.5662 30.3104 29.5662 30.2768 29.5662 30.241V24.032H32.3191C32.4447 24.0318 32.569 24.0563 32.685 24.1042C32.8011 24.1521 32.9065 24.2224 32.9954 24.311C33.0843 24.3997 33.1548 24.505 33.2029 24.6209C33.2511 24.7369 33.2759 24.8611 33.276 24.9867Z" fill="#3175B7"/>
<path d="M32.958 24.9865V38.7817C32.958 38.8652 32.9417 38.948 32.9097 39.0252C32.8778 39.1024 32.831 39.1725 32.7719 39.2316C32.7128 39.2907 32.6427 39.3375 32.5655 39.3694C32.4883 39.4014 32.4055 39.4178 32.322 39.4177H26.6356C26.552 39.4178 26.4692 39.4014 26.3919 39.3695C26.3146 39.3376 26.2444 39.2908 26.1852 39.2317C26.126 39.1726 26.079 39.1025 26.0469 39.0253C26.0148 38.9481 25.9983 38.8653 25.9982 38.7817V32.2694H27.5406C27.7904 32.2699 28.0383 32.2243 28.2716 32.1349C28.4109 32.0807 28.544 32.0116 28.6685 31.9287C28.7505 31.8743 28.8282 31.8137 28.9009 31.7474C29.0524 31.611 29.1827 31.4528 29.2876 31.2781C29.387 31.1102 29.4609 30.9283 29.5069 30.7387C29.5404 30.6098 29.5602 30.4777 29.5661 30.3447C29.5661 30.3103 29.5661 30.2767 29.5661 30.2409V24.8864H30.909C31.0274 24.8859 31.1424 24.8464 31.2363 24.7742C31.3302 24.702 31.3978 24.6009 31.4287 24.4866C31.4399 24.4466 31.464 24.4114 31.4971 24.3865C31.5303 24.3615 31.5707 24.3481 31.6122 24.3484H32.3191C32.403 24.3479 32.4863 24.3641 32.564 24.396C32.6416 24.4279 32.7122 24.4748 32.7716 24.5342C32.8311 24.5935 32.8781 24.6641 32.9101 24.7417C32.9421 24.8194 32.9583 24.9026 32.958 24.9865Z" fill="#132D51"/>
<path d="M31.1977 31.2862L29.6451 32.1853L28.2687 32.9843V32.1341C28.4081 32.08 28.5412 32.0109 28.6656 31.928V32.2935L30.1488 31.4346L30.7986 31.0566L31.1977 31.2862Z" fill="white"/>
<path d="M30.6006 30.9411L30.2658 31.1348L28.8981 31.9279V31.7466C29.0495 31.6102 29.1798 31.452 29.2848 31.2773L29.8623 30.9426L29.507 30.7379C29.5404 30.609 29.5603 30.4769 29.5662 30.3439L30.3542 30.7985L30.6006 30.9411Z" fill="white"/>
<path d="M30.0108 24.5209C30.011 24.5274 30.0099 24.534 30.0075 24.5401C30.0052 24.5462 30.0016 24.5517 29.997 24.5564C29.9925 24.5611 29.987 24.5649 29.981 24.5674C29.9749 24.57 29.9684 24.5713 29.9619 24.5713H29.5693V24.4719H29.9619C29.9748 24.4721 29.9871 24.4773 29.9963 24.4865C30.0054 24.4956 30.0107 24.508 30.0108 24.5209Z" fill="#232323"/>
<path d="M22.3191 32.2694V38.7825C22.3185 39.0347 22.2183 39.2764 22.0403 39.4551C21.8624 39.6337 21.621 39.7349 21.3688 39.7364H15.6803C15.427 39.7364 15.1841 39.6358 15.0049 39.4568C14.8258 39.2778 14.725 39.035 14.7249 38.7817V24.9865C14.725 24.7333 14.8258 24.4904 15.0049 24.3114C15.1841 24.1324 15.427 24.0319 15.6803 24.0319H18.4317V30.2401C18.4311 30.3947 18.449 30.5489 18.4851 30.6992C18.5442 30.9603 18.6562 31.2066 18.814 31.4229C18.8526 31.4783 18.8945 31.5313 18.9397 31.5815C19.1296 31.7977 19.3635 31.9708 19.6257 32.0893C19.8879 32.2078 20.1724 32.269 20.4602 32.2686L22.3191 32.2694Z" fill="#3175B7"/>
<path d="M22.0027 32.2694V38.7825C22.0027 38.8661 21.9862 38.949 21.9542 39.0262C21.9221 39.1035 21.8752 39.1736 21.8159 39.2327C21.7567 39.2918 21.6865 39.3386 21.6091 39.3705C21.5318 39.4023 21.4489 39.4187 21.3653 39.4185H15.6804C15.5968 39.4187 15.5139 39.4023 15.4366 39.3705C15.3592 39.3386 15.289 39.2918 15.2298 39.2327C15.1705 39.1736 15.1236 39.1035 15.0915 39.0262C15.0595 38.949 15.043 38.8661 15.043 38.7825V24.9865C15.043 24.9029 15.0595 24.8201 15.0915 24.7428C15.1236 24.6656 15.1705 24.5954 15.2298 24.5363C15.289 24.4773 15.3592 24.4305 15.4366 24.3986C15.5139 24.3667 15.5968 24.3504 15.6804 24.3506H16.3873C16.4287 24.3504 16.4691 24.3639 16.5022 24.3888C16.5354 24.4138 16.5594 24.4489 16.5707 24.4887C16.601 24.6032 16.6682 24.7044 16.7619 24.7767C16.8557 24.849 16.9706 24.8883 17.089 24.8886H18.4318V30.2402C18.4313 30.3948 18.4492 30.5489 18.4852 30.6992C18.5444 30.9604 18.6563 31.2066 18.8141 31.4229C18.8527 31.4784 18.8947 31.5313 18.9399 31.5815C19.1298 31.7977 19.3636 31.9709 19.6259 32.0894C19.8881 32.2079 20.1726 32.269 20.4603 32.2687L22.0027 32.2694Z" fill="#132D51"/>
<path d="M19.249 31.8643L18.4815 32.3088L17.3156 32.9842V29.5939L17.5955 29.7554L17.7139 29.8241V32.2934L18.2073 32.0076L18.9434 31.5814C19.0354 31.6859 19.1377 31.7807 19.249 31.8643Z" fill="white"/>
<path d="M18.4854 30.6992L17.943 30.3856V29.9587L18.432 30.2402C18.4314 30.3948 18.4494 30.5489 18.4854 30.6992Z" fill="white"/>
<path d="M18.8142 31.423L18.0832 31.8447L17.937 31.9281V31.5012L18.6197 31.1057C18.6744 31.2173 18.7395 31.3236 18.8142 31.423Z" fill="white"/>
<path d="M18.4317 24.469V24.5684H18.0407C18.0275 24.5684 18.0148 24.5632 18.0055 24.5538C17.9962 24.5445 17.991 24.5319 17.991 24.5187C17.991 24.5055 17.9962 24.4929 18.0055 24.4836C18.0148 24.4742 18.0275 24.469 18.0407 24.469H18.4317Z" fill="#232323"/>
<g opacity="0.5">
<path opacity="0.5" d="M22.3191 32.2693V33.1092H20.4602C19.7207 33.1099 19.0098 32.8231 18.4777 32.3095C18.3783 32.2168 18.2866 32.1161 18.2036 32.0084C18.162 31.955 18.1218 31.9017 18.0852 31.8454C18.0318 31.7709 17.983 31.6933 17.939 31.6129C17.8416 31.4362 17.7637 31.2494 17.7066 31.0559C17.6277 30.7914 17.5878 30.5168 17.5881 30.2409V24.0319H18.428V30.2401C18.4275 30.3947 18.4454 30.5488 18.4814 30.6992C18.5406 30.9603 18.6525 31.2066 18.8103 31.4229C18.8489 31.4783 18.8909 31.5313 18.9361 31.5815C19.126 31.7977 19.3598 31.9708 19.6221 32.0893C19.8843 32.2078 20.1688 32.269 20.4565 32.2686L22.3191 32.2693Z" fill="#0D1E32"/>
<path opacity="0.5" d="M30.409 24.0319V30.2401C30.4091 30.4276 30.3907 30.6147 30.3542 30.7986C30.3323 30.9125 30.3027 31.0249 30.2657 31.1348C30.2325 31.2369 30.1935 31.337 30.1488 31.4345C29.9181 31.9326 29.5503 32.3546 29.0883 32.6511C28.6264 32.9476 28.0895 33.1062 27.5406 33.1085H25.6818V32.2693H27.5406C27.7905 32.2699 28.0383 32.2243 28.2716 32.1348C28.411 32.0807 28.5441 32.0116 28.6685 31.9287C28.7505 31.8742 28.8282 31.8136 28.901 31.7474C29.0524 31.611 29.1827 31.4528 29.2877 31.2781C29.3871 31.1101 29.461 30.9283 29.507 30.7386C29.5404 30.6097 29.5603 30.4777 29.5662 30.3446C29.5662 30.3103 29.5662 30.2767 29.5662 30.2408V24.0319H30.409Z" fill="#0D1E32"/>
</g>
<path d="M28.7294 30.2395V13.062C28.7294 12.4056 28.1972 11.8734 27.5408 11.8734H20.4597C19.8032 11.8734 19.2711 12.4056 19.2711 13.062V30.2395C19.2711 30.8959 19.8032 31.4281 20.4597 31.4281H27.5408C28.1972 31.4281 28.7294 30.8959 28.7294 30.2395Z" fill="#3175B7"/>
<path d="M28.3331 13.062V30.2402C28.3332 30.3443 28.3127 30.4474 28.273 30.5436C28.2332 30.6398 28.1748 30.7273 28.1012 30.8009C28.0276 30.8746 27.9403 30.933 27.8441 30.9729C27.7479 31.0128 27.6448 31.0333 27.5407 31.0333H20.4604C20.3562 31.0333 20.2531 31.0128 20.157 30.9729C20.0608 30.933 19.9734 30.8746 19.8998 30.8009C19.8262 30.7273 19.7679 30.6398 19.7281 30.5436C19.6883 30.4474 19.6679 30.3443 19.668 30.2402V13.062C19.668 12.8518 19.7515 12.6502 19.9001 12.5016C20.0487 12.353 20.2502 12.2696 20.4604 12.2696H21.3375C21.3893 12.2692 21.4398 12.286 21.4811 12.3171C21.5224 12.3483 21.5524 12.3922 21.5663 12.4421C21.6045 12.5846 21.6885 12.7105 21.8055 12.8004C21.9224 12.8902 22.0658 12.939 22.2133 12.9391H25.7819C25.9294 12.939 26.0728 12.8902 26.1897 12.8004C26.3067 12.7105 26.3907 12.5846 26.4288 12.4421C26.4428 12.3922 26.4727 12.3483 26.5141 12.3171C26.5554 12.286 26.6059 12.2692 26.6576 12.2696H27.5348C27.6394 12.2687 27.7431 12.2885 27.84 12.328C27.9368 12.3674 28.0249 12.4257 28.0991 12.4993C28.1734 12.573 28.2322 12.6607 28.2724 12.7572C28.3125 12.8538 28.3332 12.9574 28.3331 13.062Z" fill="#132D51"/>
<path d="M26.1399 20.9069L22.4923 23.0209V18.8002L22.9879 19.086V22.1605L25.6451 20.6211L26.1399 20.9069Z" fill="white"/>
<path d="M25.3976 20.4778L23.2777 21.7066V21.1745L24.478 20.4786L23.2777 19.7856V19.2534L25.3976 20.4778Z" fill="white"/>
<path d="M24.6015 12.418H23.3998C23.3655 12.418 23.3376 12.4456 23.3376 12.4797C23.3376 12.5139 23.3655 12.5415 23.3998 12.5415H24.6015C24.6358 12.5415 24.6637 12.5139 24.6637 12.4797C24.6637 12.4456 24.6358 12.418 24.6015 12.418Z" fill="#232323"/>
<path opacity="0.07" d="M19.668 15.9801L28.333 20.9107V18.8003L19.668 13.8698V15.9801Z" fill="white"/>
<path opacity="0.07" d="M19.668 21.6108L28.333 26.5406V24.4303L19.668 19.5005V21.6108Z" fill="white"/>
<path opacity="0.07" d="M19.668 13.2257L28.333 18.1555V17.8938L19.668 12.964V13.2257Z" fill="white"/>
<path opacity="0.07" d="M19.668 19.1211L28.333 24.0508V23.7892L19.668 18.8594V19.1211Z" fill="white"/>
<path opacity="0.07" d="M19.668 25.3989L28.333 30.3294V30.0677L19.668 25.1372V25.3989Z" fill="white"/>
<path opacity="0.07" d="M19.668 22.2343L28.333 27.1641V26.9024L19.668 21.9727V22.2343Z" fill="white"/>
<path d="M29.9522 12.2717C30.1399 12.2717 30.2921 12.1196 30.2921 11.9318C30.2921 11.7441 30.1399 11.5919 29.9522 11.5919C29.7645 11.5919 29.6123 11.7441 29.6123 11.9318C29.6123 12.1196 29.7645 12.2717 29.9522 12.2717Z" fill="#E56F2C"/>
<path d="M16.3685 22.3126C16.5562 22.3126 16.7084 22.1604 16.7084 21.9727C16.7084 21.785 16.5562 21.6328 16.3685 21.6328C16.1807 21.6328 16.0286 21.785 16.0286 21.9727C16.0286 22.1604 16.1807 22.3126 16.3685 22.3126Z" fill="#3175B7"/>
<path d="M32.1656 22.0465C32.3533 22.0465 32.5055 21.8943 32.5055 21.7066C32.5055 21.5189 32.3533 21.3667 32.1656 21.3667C31.9779 21.3667 31.8257 21.5189 31.8257 21.7066C31.8257 21.8943 31.9779 22.0465 32.1656 22.0465Z" fill="#3175B7"/>
<path d="M18.2783 12.0138C18.466 12.0138 18.6182 11.8616 18.6182 11.6739C18.6182 11.4862 18.466 11.334 18.2783 11.334C18.0905 11.334 17.9384 11.4862 17.9384 11.6739C17.9384 11.8616 18.0905 12.0138 18.2783 12.0138Z" fill="#E56F2C"/>
<path d="M28.9531 11.1637C29.0472 11.1637 29.1234 11.0874 29.1234 10.9933C29.1234 10.8993 29.0472 10.823 28.9531 10.823C28.8591 10.823 28.7828 10.8993 28.7828 10.9933C28.7828 11.0874 28.8591 11.1637 28.9531 11.1637Z" fill="#E56F2C"/>
<path d="M33.5723 23.5458C33.6664 23.5458 33.7426 23.4695 33.7426 23.3754C33.7426 23.2813 33.6664 23.2051 33.5723 23.2051C33.4782 23.2051 33.402 23.2813 33.402 23.3754C33.402 23.4695 33.4782 23.5458 33.5723 23.5458Z" fill="#E56F2C"/>
<path d="M13.4648 25.3076C13.5588 25.3076 13.6351 25.2313 13.6351 25.1372C13.6351 25.0432 13.5588 24.9669 13.4648 24.9669C13.3707 24.9669 13.2944 25.0432 13.2944 25.1372C13.2944 25.2313 13.3707 25.3076 13.4648 25.3076Z" fill="#E56F2C"/>
<path d="M17.7615 13.3039C17.8556 13.3039 17.9318 13.2276 17.9318 13.1336C17.9318 13.0395 17.8556 12.9633 17.7615 12.9633C17.6674 12.9633 17.5912 13.0395 17.5912 13.1336C17.5912 13.2276 17.6674 13.3039 17.7615 13.3039Z" fill="#E56F2C"/>
<path d="M18.4318 22.437C18.5259 22.437 18.6021 22.3607 18.6021 22.2666C18.6021 22.1726 18.5259 22.0963 18.4318 22.0963C18.3377 22.0963 18.2615 22.1726 18.2615 22.2666C18.2615 22.3607 18.3377 22.437 18.4318 22.437Z" fill="#3175B7"/>
<path d="M19.9566 10.7484C20.0506 10.7484 20.1269 10.6721 20.1269 10.578C20.1269 10.484 20.0506 10.4077 19.9566 10.4077C19.8625 10.4077 19.7863 10.484 19.7863 10.578C19.7863 10.6721 19.8625 10.7484 19.9566 10.7484Z" fill="#3175B7"/>
<path d="M30.8874 21.2506C30.9814 21.2506 31.0577 21.1743 31.0577 21.0802C31.0577 20.9862 30.9814 20.9099 30.8874 20.9099C30.7933 20.9099 30.717 20.9862 30.717 21.0802C30.717 21.1743 30.7933 21.2506 30.8874 21.2506Z" fill="#3175B7"/>
<path d="M29.6125 13.1343C29.7065 13.1343 29.7828 13.0581 29.7828 12.964C29.7828 12.87 29.7065 12.7937 29.6125 12.7937C29.5184 12.7937 29.4421 12.87 29.4421 12.964C29.4421 13.0581 29.5184 13.1343 29.6125 13.1343Z" fill="#3175B7"/>
</g>
</svg>
