<svg width="100" height="57" viewBox="0 0 100 57" fill="none" xmlns="http://www.w3.org/2000/svg">
<g clip-path="url(#clip0)">
<path d="M67.6387 10.7847V37.9684C67.6368 38.1559 67.6842 38.3406 67.776 38.504C70.0415 36.9428 72.7461 36.1453 75.4962 36.2276C78.2463 36.31 80.8983 37.2678 83.0663 38.9618C83.1624 39.0351 83.2796 39.0753 83.4005 39.0762H98.883C99.028 39.0768 99.1718 39.0487 99.3059 38.9935C99.44 38.9383 99.5619 38.857 99.6645 38.7544C99.767 38.6519 99.8483 38.53 99.9035 38.3959C99.9587 38.2618 99.9869 38.118 99.9863 37.973V26.0978C99.9865 25.6872 99.8724 25.2845 99.6567 24.9351L93.9343 15.6556C92.8013 13.8322 91.2213 12.3285 89.3441 11.287C87.467 10.2455 85.3549 9.7007 83.2082 9.70433H68.742C68.453 9.70309 68.1751 9.81579 67.9685 10.018C67.762 10.2203 67.6435 10.4957 67.6387 10.7847Z" fill="#E46F2C"/>
<path opacity="0.7" d="M67.6387 35.0889V37.9684C67.6368 38.1559 67.6842 38.3406 67.776 38.504C70.0415 36.9428 72.7461 36.1453 75.4962 36.2276C78.2463 36.31 80.8983 37.2678 83.0663 38.9618C83.1624 39.0351 83.2796 39.0752 83.4005 39.0762H98.883C99.028 39.0768 99.1718 39.0487 99.3059 38.9935C99.44 38.9383 99.5619 38.857 99.6645 38.7544C99.767 38.6519 99.8483 38.53 99.9035 38.3959C99.9587 38.2618 99.9869 38.118 99.9863 37.973V35.0889H83.8171C81.2948 33.2462 78.2424 32.2726 75.119 32.3147C71.3239 32.3147 68.275 34.3244 67.6387 35.0889Z" fill="#B55638"/>
<path d="M75.7142 13.884V20.7005C76.4604 20.7005 87.0399 25.0129 92.4373 27.1096L96.3102 27.0867V25.7133C96.3142 25.3899 96.2252 25.0721 96.0539 24.7977L91.627 17.6379C90.756 16.2248 89.5375 15.0584 88.0878 14.2498C86.6381 13.4412 85.0055 13.0174 83.3455 13.0187H76.5657C76.4528 13.0193 76.3413 13.0422 76.2373 13.0861C76.1334 13.13 76.0392 13.1939 75.96 13.2743C75.8809 13.3547 75.8184 13.45 75.7762 13.5546C75.7341 13.6592 75.713 13.7712 75.7142 13.884Z" fill="#DAAB93"/>
<path d="M41.2013 41.1043C42.2969 41.7701 43.2343 42.6669 43.948 43.732C43.9979 43.8078 44.0659 43.8701 44.1458 43.9132C44.2257 43.9564 44.315 43.979 44.4058 43.9792H49.7299C49.8693 43.9821 50.0027 44.0359 50.1053 44.1303L54.262 48.0398C54.3658 48.1347 54.5014 48.187 54.642 48.1863H65.7755C65.914 48.1856 66.0473 48.1331 66.149 48.039C66.2507 47.9449 66.3134 47.8162 66.3249 47.6781C66.5572 45.5115 67.5824 43.5074 69.2033 42.051C70.8242 40.5947 72.9263 39.7891 75.1053 39.7891C77.2843 39.7891 79.3864 40.5947 81.0073 42.051C82.6282 43.5074 83.6534 45.5115 83.8857 47.6781C83.8983 47.8154 83.9615 47.943 84.0631 48.0361C84.1647 48.1292 84.2973 48.1811 84.4351 48.1817H99.4461C99.5918 48.1817 99.7315 48.1238 99.8345 48.0208C99.9375 47.9178 99.9954 47.7781 99.9954 47.6324V41.1363C99.9954 40.9906 99.9375 40.8509 99.8345 40.7479C99.7315 40.6448 99.5918 40.587 99.4461 40.587H82.8603C82.7251 40.5851 82.5951 40.5348 82.4941 40.445C80.4677 38.6069 77.8297 37.5887 75.0939 37.5887C72.358 37.5887 69.72 38.6069 67.6936 40.445C67.5944 40.5348 67.4658 40.5853 67.332 40.587H41.3706C41.3053 40.575 41.2378 40.5871 41.1807 40.6211C41.1236 40.655 41.0808 40.7085 41.0601 40.7717C41.0394 40.8348 41.0424 40.9033 41.0683 40.9644C41.0943 41.0256 41.1415 41.0753 41.2013 41.1043Z" fill="#B55638"/>
<path d="M0 41.1363V43.4253C0 43.5722 0.0583601 43.7131 0.162242 43.8169C0.266123 43.9208 0.407017 43.9792 0.553928 43.9792H4.28951C4.3803 43.979 4.46964 43.9564 4.54952 43.9132C4.62941 43.8701 4.69736 43.8078 4.7473 43.732C5.46246 42.6693 6.39958 41.7743 7.49405 41.1088C7.55996 41.0838 7.61371 41.0344 7.64418 40.9708C7.67465 40.9072 7.6795 40.8343 7.65774 40.7673C7.63597 40.7002 7.58925 40.6441 7.52725 40.6105C7.46525 40.577 7.39272 40.5685 7.32467 40.587H0.553928C0.407807 40.5869 0.267602 40.6447 0.163851 40.7476C0.0601004 40.8505 0.00120761 40.9902 0 41.1363H0Z" fill="#B55638"/>
<path d="M16.6819 41.1043C17.7764 41.7698 18.7135 42.6647 19.4287 43.7274C19.4786 43.8032 19.5466 43.8655 19.6264 43.9086C19.7063 43.9518 19.7957 43.9744 19.8865 43.9746H28.8409C28.9315 43.9736 29.0206 43.9506 29.1003 43.9076C29.1801 43.8645 29.2481 43.8027 29.2987 43.7274C30.0135 42.6644 30.9507 41.7694 32.0454 41.1043C32.0963 41.0727 32.1355 41.0254 32.157 40.9695C32.1786 40.9136 32.1812 40.8522 32.1647 40.7947C32.1481 40.7371 32.1131 40.6866 32.0652 40.6508C32.0172 40.6149 31.9588 40.5957 31.8989 40.5961H16.833C16.7727 40.5947 16.7136 40.6131 16.6649 40.6486C16.6161 40.6841 16.5804 40.7346 16.5632 40.7924C16.546 40.8502 16.5483 40.9121 16.5698 40.9684C16.5912 41.0248 16.6307 41.0725 16.6819 41.1043Z" fill="#B55638"/>
<path d="M75.1144 56.1061C79.2432 56.1061 82.5902 52.7591 82.5902 48.6304C82.5902 44.5016 79.2432 41.1546 75.1144 41.1546C70.9857 41.1546 67.6387 44.5016 67.6387 48.6304C67.6387 52.7591 70.9857 56.1061 75.1144 56.1061Z" fill="#E46F2C"/>
<path d="M67.6387 48.6304C68.5772 46.0118 70.9852 42.8896 75.1144 42.8896C79.2437 42.8896 81.3587 45.6822 82.5856 48.6304C82.6103 47.6334 82.4352 46.6415 82.0707 45.7132C81.7062 44.7849 81.1597 43.9389 80.4633 43.225C79.7669 42.5112 78.9347 41.9439 78.0157 41.5565C77.0967 41.1692 76.1094 40.9696 75.1121 40.9696C74.1148 40.9696 73.1276 41.1692 72.2086 41.5565C71.2896 41.9439 70.4574 42.5112 69.761 43.225C69.0646 43.9389 68.518 44.7849 68.1536 45.7132C67.7891 46.6415 67.614 47.6334 67.6387 48.6304Z" fill="#B55638"/>
<path d="M36.6187 56.1061C40.7475 56.1061 44.0945 52.7591 44.0945 48.6304C44.0945 44.5016 40.7475 41.1546 36.6187 41.1546C32.49 41.1546 29.143 44.5016 29.143 48.6304C29.143 52.7591 32.49 56.1061 36.6187 56.1061Z" fill="#E46F2C"/>
<path d="M29.143 48.6304C30.0815 46.0118 32.5032 42.8896 36.6233 42.8896C40.7434 42.8896 42.863 45.6822 44.0945 48.6304C44.0945 46.6477 43.3069 44.7462 41.9049 43.3442C40.5029 41.9422 38.6014 41.1546 36.6187 41.1546C34.6361 41.1546 32.7346 41.9422 31.3326 43.3442C29.9306 44.7462 29.143 46.6477 29.143 48.6304Z" fill="#B55638"/>
<path d="M12.0857 56.1061C16.2144 56.1061 19.5614 52.7591 19.5614 48.6304C19.5614 44.5016 16.2144 41.1546 12.0857 41.1546C7.95696 41.1546 4.60995 44.5016 4.60995 48.6304C4.60995 52.7591 7.95696 56.1061 12.0857 56.1061Z" fill="#E46F2C"/>
<path d="M4.60996 48.6304C5.52554 46.0118 7.95641 42.8896 12.0857 42.8896C16.215 42.8896 18.3117 45.6822 19.5569 48.6304C19.5815 47.6334 19.4065 46.6415 19.042 45.7132C18.6775 44.7849 18.131 43.9389 17.4345 43.225C16.7381 42.5112 15.9059 41.9439 14.9869 41.5565C14.0679 41.1692 13.0807 40.9696 12.0834 40.9696C11.0861 40.9696 10.0989 41.1692 9.17989 41.5565C8.26088 41.9439 7.42867 42.5112 6.73226 43.225C6.03584 43.9389 5.4893 44.7849 5.12482 45.7132C4.76034 46.6415 4.58528 47.6334 4.60996 48.6304Z" fill="#B55638"/>
<path d="M36.6187 52.2194C38.6009 52.2194 40.2078 50.6125 40.2078 48.6304C40.2078 46.6482 38.6009 45.0413 36.6187 45.0413C34.6365 45.0413 33.0297 46.6482 33.0297 48.6304C33.0297 50.6125 34.6365 52.2194 36.6187 52.2194Z" fill="#DAAB93"/>
<path d="M75.1145 52.2194C77.0967 52.2194 78.7035 50.6125 78.7035 48.6304C78.7035 46.6482 77.0967 45.0413 75.1145 45.0413C73.1323 45.0413 71.5254 46.6482 71.5254 48.6304C71.5254 50.6125 73.1323 52.2194 75.1145 52.2194Z" fill="#DAAB93"/>
<path d="M12.0857 52.2194C14.0679 52.2194 15.6748 50.6125 15.6748 48.6304C15.6748 46.6482 14.0679 45.0413 12.0857 45.0413C10.1035 45.0413 8.49661 46.6482 8.49661 48.6304C8.49661 50.6125 10.1035 52.2194 12.0857 52.2194Z" fill="#DAAB93"/>
<path d="M92.7806 21.3414L90.7343 18.0316C90.0009 16.8459 88.9767 15.8673 87.7589 15.1887C86.5411 14.51 85.17 14.1539 83.7759 14.1541H82.5581C88.427 14.1541 91.9795 20.4579 92.7806 21.3414Z" fill="white"/>
<path d="M65.51 39.0762L0.457794 39.0762C0.33638 39.0762 0.21994 39.028 0.134087 38.9422C0.048233 38.8563 0 38.7399 0 38.6184V1.73418C0 1.49135 0.0964661 1.25847 0.268166 1.08676C0.439873 0.915058 0.67276 0.818596 0.915588 0.818596L65.0522 0.818596C65.295 0.818596 65.5279 0.915058 65.6996 1.08676C65.8713 1.25847 65.9678 1.49135 65.9678 1.73418V38.6184C65.9678 38.7399 65.9195 38.8563 65.8337 38.9422C65.7478 39.028 65.6314 39.0762 65.51 39.0762V39.0762Z" fill="#E46F2C"/>
<path opacity="0.7" d="M0 35.0889V38.6184C0 38.7399 0.0482315 38.8563 0.134084 38.9422C0.219937 39.028 0.336378 39.0762 0.457792 39.0762H65.51C65.6314 39.0762 65.7478 39.028 65.8337 38.9422C65.9195 38.8563 65.9678 38.7399 65.9678 38.6184V35.0889H0Z" fill="#B55638"/>
<path d="M41.8376 19.0158L25.9614 28.2174V9.84624L28.1176 11.0869V24.4727L39.686 17.7706L41.8376 19.0158Z" fill="white"/>
<path d="M38.6056 17.148L29.3765 22.495V20.1786L34.6045 17.1526L29.3765 14.1358V11.8193L38.6056 17.148Z" fill="white"/>
</g>
<defs>
<clipPath id="clip0">
<rect width="100" height="55.2829" fill="white" transform="translate(0 0.818596)"/>
</clipPath>
</defs>
</svg>
