<svg width="120" height="120" viewBox="0 0 120 120" fill="none" xmlns="http://www.w3.org/2000/svg">
<path d="M119.5 60C119.5 92.8609 92.8609 119.5 60 119.5C27.1391 119.5 0.5 92.8609 0.5 60C0.5 27.1391 27.1391 0.5 60 0.5C92.8609 0.5 119.5 27.1391 119.5 60Z" stroke="#EDF1F7"/>
<g opacity="0.4">
<mask id="mask0" mask-type="alpha" maskUnits="userSpaceOnUse" x="0" y="0" width="120" height="121">
<path d="M60 120C93.1371 120 120 93.1371 120 60C120 26.8629 93.1371 0 60 0C26.8629 0 0 26.8629 0 60C0 93.1371 26.8629 120 60 120Z" fill="#B0CEE8"/>
</mask>
<g mask="url(#mask0)">
<g opacity="0.15">
<path opacity="0.56" d="M60 120C93.1371 120 120 93.1366 120 59.9995C120 26.8624 93.1371 -0.000488281 60 -0.000488281C26.8629 -0.000488281 0 26.8624 0 59.9995C0 93.1366 26.8629 120 60 120Z" fill="#B0CEE8"/>
</g>
<g opacity="0.3">
<path opacity="0.56" d="M49.0275 95.9811C49.0275 95.9811 16.1609 96.2504 10.7657 96.2504C3.98637 89.4711 0.973906 68.6432 25.9527 73.7691C50.9303 78.895 55.9166 94.2841 49.0275 95.9811Z" fill="#93B7DB"/>
</g>
<g opacity="0.3">
<path opacity="0.48" d="M38.8737 96.3416C35.3974 91.3877 30.6618 89.9538 25.6493 88.4363C19.5159 86.5797 13.1717 84.6595 9.43359 75.7306L9.72661 75.6084C13.4087 84.3989 19.678 86.2967 25.7416 88.1321C30.5857 89.5984 35.5944 91.1146 39.1343 96.1583L38.8737 96.3416Z" fill="#7B99BB"/>
</g>
<g opacity="0.3">
<path opacity="0.64" d="M56.7443 96.4038C66.4638 81.9661 64.5461 70.4574 54.8827 66.4948C46.0124 62.8576 46.6683 56.0122 42.0785 50.4499C30.2468 36.112 21.475 38.7491 17.7668 48.7703C13.5573 60.1456 21.874 67.1768 20.3491 76.2292C18.7555 85.6855 28.8703 96.4038 32.0012 96.4038C39.3191 96.4038 56.7443 96.4038 56.7443 96.4038Z" fill="#73A3D3"/>
</g>
<g opacity="0.3">
<path opacity="0.48" d="M44.5565 96.4562L44.2535 96.3602C46.7547 88.4375 43.6001 74.8415 36.3532 70.2667C27.6836 64.7954 26.2759 52.1146 25.2497 42.8552L25.1113 41.6121L25.4268 41.5759L25.5652 42.8191C26.5851 52.0136 27.9829 64.6071 36.5228 69.9974C43.8819 74.6433 47.0914 88.4288 44.5565 96.4562Z" fill="#7B99BB"/>
</g>
<g opacity="0.48">
<path opacity="0.3" d="M9.08149 68.9362C9.35626 68.9362 9.579 68.7134 9.579 68.4387C9.579 68.1639 9.35626 67.9412 9.08149 67.9412C8.80673 67.9412 8.58398 68.1639 8.58398 68.4387C8.58398 68.7134 8.80673 68.9362 9.08149 68.9362Z" fill="#93B7DB"/>
</g>
<g opacity="0.3">
<path opacity="0.3" d="M41.3784 42.0932C41.6531 42.0932 41.8759 41.8704 41.8759 41.5956C41.8759 41.3209 41.6531 41.0981 41.3784 41.0981C41.1036 41.0981 40.8809 41.3209 40.8809 41.5956C40.8809 41.8704 41.1036 42.0932 41.3784 42.0932Z" fill="#93B7DB"/>
</g>
<g opacity="0.48">
<path opacity="0.3" d="M9.57954 45.6493C9.8543 45.6493 10.077 45.4266 10.077 45.1518C10.077 44.877 9.8543 44.6543 9.57954 44.6543C9.30477 44.6543 9.08203 44.877 9.08203 45.1518C9.08203 45.4266 9.30477 45.6493 9.57954 45.6493Z" fill="#93B7DB"/>
</g>
<g opacity="0.48">
<path opacity="0.3" d="M13.1566 47.3713C13.7695 47.3713 14.2663 46.8745 14.2663 46.2616C14.2663 45.6487 13.7695 45.1519 13.1566 45.1519C12.5437 45.1519 12.0469 45.6487 12.0469 46.2616C12.0469 46.8745 12.5437 47.3713 13.1566 47.3713Z" fill="#93B7DB"/>
</g>
<g opacity="0.48">
<path opacity="0.3" d="M36.4066 33.5908C37.0195 33.5908 37.5163 33.0939 37.5163 32.4811C37.5163 31.8682 37.0195 31.3713 36.4066 31.3713C35.7937 31.3713 35.2969 31.8682 35.2969 32.4811C35.2969 33.0939 35.7937 33.5908 36.4066 33.5908Z" fill="#93B7DB"/>
</g>
<g opacity="0.48">
<path opacity="0.3" d="M14.266 71.5683C14.8789 71.5683 15.3757 71.0715 15.3757 70.4586C15.3757 69.8457 14.8789 69.3489 14.266 69.3489C13.6531 69.3489 13.1562 69.8457 13.1562 70.4586C13.1562 71.0715 13.6531 71.5683 14.266 71.5683Z" fill="#93B7DB"/>
</g>
<path d="M47.7285 97.981V44.5496H125.651V97.981" fill="#102E4F"/>
<path d="M127.979 97.981H123.323V46.8788H50.0563V97.981H45.4004V42.2217H127.979V97.981Z" fill="#265B97"/>
<path d="M125.651 18.2244H47.7285V44.5511H125.651V18.2244Z" fill="#3176B6"/>
<path d="M127.979 46.8788H45.4004V15.895H127.98V46.8788H127.979ZM50.0563 42.2217H123.322V20.5521H50.0563V42.2217Z" fill="#265B97"/>
<path d="M125.651 40.3127H47.7285V41.1594H125.651V40.3127Z" fill="#265B97"/>
<path d="M125.651 36.5723H47.7285V37.4189H125.651V36.5723Z" fill="#265B97"/>
<path d="M125.651 32.834H47.7285V33.6806H125.651V32.834Z" fill="#265B97"/>
<path d="M125.651 29.0933H47.7285V29.9399H125.651V29.0933Z" fill="#265B97"/>
<path d="M125.651 25.354H47.7285V26.2006H125.651V25.354Z" fill="#265B97"/>
<path d="M125.651 21.6145H47.7285V22.4611H125.651V21.6145Z" fill="#265B97"/>
<path d="M111.401 -14.4729H0.728516V18.2229H111.401V-14.4729Z" fill="#3176B6"/>
<path d="M113.728 20.5521H-1.59961V-16.8008H113.728V20.5521ZM3.0575 15.895H109.072V-12.1437H3.0575V15.895Z" fill="#265B97"/>
<path d="M111.401 12.7654H0.728516V13.612H111.401V12.7654Z" fill="#265B97"/>
<path d="M111.401 8.24048H0.728516V9.08711H111.401V8.24048Z" fill="#265B97"/>
<path d="M111.401 3.71558H0.728516V4.56221H111.401V3.71558Z" fill="#265B97"/>
<path d="M111.401 -0.810547H0.728516V0.0360857H111.401V-0.810547Z" fill="#265B97"/>
<g opacity="0.3">
<path opacity="0.48" d="M83.0072 100.019H66.582V100.442H83.0072V100.019Z" fill="#92B6DA"/>
</g>
<g opacity="0.3">
<path opacity="0.48" d="M104.55 103.502H88.125V103.926H104.55V103.502Z" fill="#92B6DA"/>
</g>
<g opacity="0.3">
<path opacity="0.48" d="M71.9285 106.639H59.416V107.063H71.9285V106.639Z" fill="#92B6DA"/>
</g>
<g opacity="0.3">
<path opacity="0.48" d="M44.6179 103.813H31.6641V104.237H44.6179V103.813Z" fill="#92B6DA"/>
</g>
<g opacity="0.3">
<path opacity="0.48" d="M37.1322 110.777H20.707V111.201H37.1322V110.777Z" fill="#92B6DA"/>
</g>
<g opacity="0.3">
<path opacity="0.48" d="M91.5424 113.805H75.1172V114.229H91.5424V113.805Z" fill="#92B6DA"/>
</g>
<g opacity="0.3">
<path opacity="0.48" d="M62.2174 100.019H13.1562V100.442H62.2174V100.019Z" fill="#92B6DA"/>
</g>
<path d="M32.5423 100.23H42.8278C43.5348 100.23 44.1084 99.6566 44.1084 98.9496V88.6641C44.1084 87.9571 43.5348 87.3835 42.8278 87.3835H32.5423C31.8353 87.3835 31.2617 87.9571 31.2617 88.6641V98.9496C31.2617 99.6566 31.8353 100.23 32.5423 100.23Z" fill="#E46F2C"/>
<path d="M42.8281 100.23C43.5351 100.23 44.1087 99.6566 44.1087 98.9496V88.6641C44.1087 87.9571 43.5351 87.3835 42.8281 87.3835V100.23Z" fill="#D3633C"/>
<path d="M31.2617 98.9497C31.2617 99.6567 31.8353 100.23 32.5423 100.23H42.8278C43.5348 100.23 44.1084 99.6567 44.1084 98.9497H31.2617Z" fill="#D3633C"/>
<path d="M45.3899 100.23H55.6755C56.3824 100.23 56.956 99.6566 56.956 98.9496V88.6641C56.956 87.9571 56.3824 87.3835 55.6755 87.3835H45.3899C44.6829 87.3835 44.1094 87.9571 44.1094 88.6641V98.9496C44.1094 99.6566 44.6829 100.23 45.3899 100.23Z" fill="#E46F2C"/>
<path d="M55.6758 100.23C56.3828 100.23 56.9563 99.6566 56.9563 98.9496V88.6641C56.9563 87.9571 56.3828 87.3835 55.6758 87.3835V100.23Z" fill="#D3633C"/>
<path d="M44.1094 98.9497C44.1094 99.6567 44.6829 100.23 45.3899 100.23H55.6755C56.3824 100.23 56.956 99.6567 56.956 98.9497H44.1094Z" fill="#D3633C"/>
<path d="M26.1184 87.3838H36.404C37.111 87.3838 37.6845 86.8102 37.6845 86.1032V75.8177C37.6845 75.1107 37.111 74.5371 36.404 74.5371H26.1184C25.4115 74.5371 24.8379 75.1107 24.8379 75.8177V86.1032C24.8379 86.8102 25.4115 87.3838 26.1184 87.3838Z" fill="#E46F2C"/>
<path d="M36.4043 87.3837C37.1113 87.3837 37.6848 86.8102 37.6848 86.1032V75.8177C37.6848 75.1107 37.1113 74.5371 36.4043 74.5371V87.3837Z" fill="#D3633C"/>
<path d="M24.8379 86.103C24.8379 86.81 25.4115 87.3836 26.1184 87.3836H36.404C37.111 87.3836 37.6845 86.81 37.6845 86.103H24.8379Z" fill="#D3633C"/>
<path d="M38.9641 87.3837H49.2497C49.9567 87.3837 50.5302 86.8102 50.5302 86.1032V75.8177C50.5302 75.1107 49.9567 74.5371 49.2497 74.5371H38.9641C38.2572 74.5371 37.6836 75.1107 37.6836 75.8177V86.1032C37.6836 86.8102 38.2572 87.3837 38.9641 87.3837Z" fill="#E46F2C"/>
<path d="M49.25 87.3837C49.957 87.3837 50.5306 86.8102 50.5306 86.1032V75.8177C50.5306 75.1107 49.957 74.5371 49.25 74.5371V87.3837Z" fill="#D3633C"/>
<path d="M37.6836 86.103C37.6836 86.81 38.2572 87.3836 38.9641 87.3836H49.2497C49.9567 87.3836 50.5302 86.81 50.5302 86.103H37.6836Z" fill="#D3633C"/>
<path d="M19.6966 100.23H29.9821C30.6891 100.23 31.2626 99.6566 31.2626 98.9496V88.6641C31.2626 87.9571 30.6891 87.3835 29.9821 87.3835H19.6966C18.9896 87.3835 18.416 87.9571 18.416 88.6641V98.9496C18.416 99.6566 18.9896 100.23 19.6966 100.23Z" fill="#E46F2C"/>
<path d="M29.9824 100.23C30.6894 100.23 31.263 99.6566 31.263 98.9496V88.6641C31.263 87.9571 30.6894 87.3835 29.9824 87.3835V100.23Z" fill="#D3633C"/>
<path d="M18.416 98.9497C18.416 99.6567 18.9896 100.23 19.6966 100.23H29.9821C30.6891 100.23 31.2626 99.6567 31.2626 98.9497H18.416Z" fill="#D3633C"/>
<path d="M32.5423 74.5371H42.8278C43.5348 74.5371 44.1084 73.9635 44.1084 73.2565V62.971C44.1084 62.264 43.5348 61.6904 42.8278 61.6904H32.5423C31.8353 61.6904 31.2617 62.264 31.2617 62.971V73.2565C31.2617 73.9635 31.8353 74.5371 32.5423 74.5371Z" fill="#E46F2C"/>
<path d="M42.8281 74.5371C43.5351 74.5371 44.1087 73.9635 44.1087 73.2565V62.971C44.1087 62.264 43.5351 61.6904 42.8281 61.6904V74.5371Z" fill="#D3633C"/>
<path d="M31.2617 73.2563C31.2617 73.9633 31.8353 74.5369 32.5423 74.5369H42.8278C43.5348 74.5369 44.1084 73.9633 44.1084 73.2563H31.2617Z" fill="#D3633C"/>
<g opacity="0.3">
<path opacity="0.48" d="M56.957 113.805H48.3086V114.229H56.957V113.805Z" fill="#92B6DA"/>
</g>
<path d="M75.1174 70.5447C78.1681 70.5447 80.6411 68.0717 80.6411 65.021C80.6411 61.9704 78.1681 59.4973 75.1174 59.4973C72.0668 59.4973 69.5938 61.9704 69.5938 65.021C69.5938 68.0717 72.0668 70.5447 75.1174 70.5447Z" fill="#3176B6"/>
<g opacity="0.5">
<path opacity="0.5" d="M80.6425 65.0195C80.6425 68.0719 78.17 70.5444 75.1176 70.5444C74.9817 70.5444 74.847 70.5407 74.7148 70.527C77.5764 70.32 79.8333 67.936 79.8333 65.0195C79.8333 62.1068 77.5764 59.724 74.7148 59.5157C74.8458 59.5033 74.9817 59.4983 75.1176 59.4983C78.17 59.4983 80.6425 61.9709 80.6425 65.0195Z" fill="#265B97"/>
</g>
<path d="M69.8828 100.23H72.9664V98.8276H70.4152L69.8828 99.4797V100.23Z" fill="#102E4F"/>
<path d="M76.4902 100.23H79.2783V98.8276H76.7271L76.4902 99.4797V100.23Z" fill="#102E4F"/>
<path d="M79.2781 98.8275H76.727L74.8379 88.9934C74.8043 88.8213 74.5561 88.8263 74.5287 88.9984L72.9664 98.8263H70.4152L69.7656 85.8325H80.4676L79.2781 98.8275Z" fill="#265B97"/>
<path d="M74.6407 88.8726C74.5871 88.8875 74.5397 88.9299 74.5284 88.9985L72.9661 98.8264H71.9062C71.9075 98.8277 73.1743 88.8726 74.6407 88.8726Z" fill="#1D4975"/>
<path d="M78.6332 85.8337H80.4698L79.2778 98.8275H78.1855L78.6332 85.8337Z" fill="#1D4975"/>
<path fill-rule="evenodd" clip-rule="evenodd" d="M75.4942 66.7891C75.4942 67.7791 74.6912 68.5821 73.7012 68.5821C72.7112 68.5821 71.9082 67.7791 71.9082 66.7891" fill="white"/>
<path d="M72.7927 73.804L68.7977 79.7715L68.8188 78.8626L71.3837 83.8401C71.5021 84.0696 71.4124 84.3513 71.1817 84.4698C70.971 84.5783 70.7166 84.511 70.5844 84.3227L67.3687 79.7379C67.1829 79.4723 67.1892 79.1294 67.3587 78.875L67.3899 78.8277L71.3849 72.8601C71.6455 72.4711 72.1705 72.3676 72.5595 72.6269C72.9485 72.8888 73.052 73.4149 72.7927 73.804Z" fill="#265B97"/>
<path d="M80.4676 76.6568V85.8351H69.7656V76.6568C69.7656 73.7017 72.1621 71.3064 75.116 71.3064C77.6434 71.3064 79.7556 73.0508 80.3142 75.3999C80.4177 75.8014 80.4676 76.2241 80.4676 76.6568Z" fill="#3176B6"/>
<path d="M80.4675 76.6569V85.8352H78.6333V76.6569C78.6333 73.7018 78.5373 74.2404 77.5273 72.6145C78.8939 73.1806 79.7555 73.0497 80.3154 75.3988C80.4176 75.8015 80.4675 76.2242 80.4675 76.6569Z" fill="#265B97"/>
<path d="M80.3142 75.3987C80.4152 75.8014 80.4663 76.2241 80.4663 76.6556V78.5907L77.4227 74.4374C77.0162 74.0184 77.9015 73.3588 78.6484 73.6518C79.1122 73.8339 80.3142 75.3987 80.3142 75.3987Z" fill="#265B97"/>
<path d="M78.4762 84.335L80.4687 81.5083V83.4672L79.066 84.8387C78.9139 84.9871 78.6657 84.9871 78.5174 84.8313C78.3852 84.6966 78.3702 84.4871 78.4762 84.335Z" fill="#265B97"/>
<path d="M78.7933 85.0507C79.0653 85.0507 79.2858 84.8302 79.2858 84.5582C79.2858 84.2862 79.0653 84.0657 78.7933 84.0657C78.5213 84.0657 78.3008 84.2862 78.3008 84.5582C78.3008 84.8302 78.5213 85.0507 78.7933 85.0507Z" fill="#265B97"/>
<path d="M83.833 79.5434L78.909 84.3614C78.7394 84.526 78.4639 84.526 78.2993 84.3527C78.1509 84.2043 78.1347 83.9711 78.2532 83.8028L81.6571 78.9686L77.2756 74.2804C76.8691 73.8614 76.8778 73.1918 77.2968 72.7866C77.7158 72.3801 78.3891 72.3888 78.7956 72.8078L83.7868 78.1232L83.8504 78.1868C84.217 78.5659 84.2133 79.1706 83.833 79.5434Z" fill="#3176B6"/>
<path d="M79.2692 84.1108C79.2206 84.1681 79.0423 84.3801 78.9937 84.4374C78.7992 84.6681 78.4538 84.6981 78.2219 84.5035C77.9912 84.309 77.9613 83.9636 78.1558 83.7317C78.2094 83.6681 78.3839 83.4611 78.4313 83.405L79.2692 84.1108Z" fill="#92B6DA"/>
<path fill-rule="evenodd" clip-rule="evenodd" d="M80.4485 66.5596C80.4485 66.4137 81.2315 62.5359 81.0445 60.885C80.8562 59.2354 79.7751 59.1568 79.5407 59.1244C79.3063 59.0907 79.1879 59.0234 79.1879 59.0234C79.1879 59.0234 78.224 58.2665 76.2976 57.7915C74.3712 57.3164 71.6467 58.7566 70.1579 57.9399C69.4435 58.693 69.8599 60.1506 69.8599 60.1506C69.8599 60.1506 69.32 60.3501 69.1791 61.0907C69.0382 61.8301 69.7278 66.5907 69.7278 66.5907C69.7278 66.5907 70.0245 62.9199 70.4709 62.4037C70.4709 62.4037 72.7914 63.6219 78.5357 61.4448C79.7003 61.0022 80.1567 65.1668 80.4485 66.5596Z" fill="#1B4376"/>
<path fill-rule="evenodd" clip-rule="evenodd" d="M80.4483 66.5906C80.4483 66.4447 81.2313 62.5669 81.0443 60.916C80.856 59.2664 79.775 59.1879 79.5405 59.1554C79.3061 59.1218 79.6203 60.3961 78.6328 61.4185C79.7438 61.2402 80.1565 65.1966 80.4483 66.5906Z" fill="#153A63"/>
<path fill-rule="evenodd" clip-rule="evenodd" d="M75.9385 59.0072C78.9971 58.9499 79.1879 59.0222 79.1879 59.0222C79.1879 59.0222 78.224 58.2653 76.2976 57.7903C74.3712 57.3152 71.6467 58.7553 70.1579 57.9386C69.4435 58.6917 69.8599 60.1494 69.8599 60.1494C69.8599 60.1494 69.32 60.3489 69.1791 61.0895C69.0382 61.8289 69.7278 66.5895 69.7278 66.5895C69.7278 66.5895 69.2328 60.8825 70.3699 60.5509C71.5657 60.2042 73.33 59.0571 75.9385 59.0072Z" fill="#326684"/>
<path d="M80.4696 85.8337L80.4272 86.3038H69.7925L69.7676 85.8337H80.4696Z" fill="#1D4975"/>
<path d="M119.5 60C119.5 92.8609 92.8609 119.5 60 119.5C27.1391 119.5 0.5 92.8609 0.5 60C0.5 27.1391 27.1391 0.5 60 0.5C92.8609 0.5 119.5 27.1391 119.5 60Z" fill="white" style="mix-blend-mode:saturation"/>
<path d="M119.5 60C119.5 92.8609 92.8609 119.5 60 119.5C27.1391 119.5 0.5 92.8609 0.5 60C0.5 27.1391 27.1391 0.5 60 0.5C92.8609 0.5 119.5 27.1391 119.5 60Z" stroke="#B6BBC1"/>
</g>
</g>
</svg>
