<svg width="47" height="47" viewBox="0 0 47 47" fill="none" xmlns="http://www.w3.org/2000/svg">
<mask id="mask0" mask-type="alpha" maskUnits="userSpaceOnUse" x="0" y="0" width="47" height="47">
<circle cx="23.5" cy="23.5" r="23" fill="white" stroke="#E2E4EA"/>
</mask>
<g mask="url(#mask0)">
<path opacity="0.15" d="M23.2897 44C31.1816 44 37.5793 37.6023 37.5793 29.7103C37.5793 21.8184 31.1816 15.4207 23.2897 15.4207C15.3977 15.4207 9 21.8184 9 29.7103C9 37.6023 15.3977 44 23.2897 44Z" fill="#B2D0E9"/>
<path opacity="0.3" d="M23.2894 44C30.4323 44 36.2227 38.2096 36.2227 31.0668C36.2227 23.9239 30.4323 18.1335 23.2894 18.1335C16.1466 18.1335 10.3562 23.9239 10.3562 31.0668C10.3562 38.2096 16.1466 44 23.2894 44Z" fill="#94B7DB"/>
<path opacity="0.3" d="M23.29 44C29.1919 44 33.9764 39.2155 33.9764 33.3135C33.9764 27.4116 29.1919 22.6271 23.29 22.6271C17.388 22.6271 12.6035 27.4116 12.6035 33.3135C12.6035 39.2155 17.388 44 23.29 44Z" fill="#94B7DB"/>
<path d="M17.8431 18.7173C17.4925 15.0127 14.6646 13.0883 12.6356 12.9342C12.5097 12.9246 12.3874 12.9656 12.3337 13.0888C12.3171 13.1248 12.308 13.1638 12.307 13.2034C12.3059 13.243 12.313 13.2824 12.3277 13.3192C12.3423 13.356 12.3643 13.3894 12.3924 13.4174C12.4204 13.4454 12.4538 13.4674 12.4906 13.4821C13.3245 13.7682 16.117 13.7131 17.8431 18.7173Z" fill="#3175B7"/>
<path d="M28.3912 20.3589C29.3493 17.9079 31.6461 17.149 33.0558 17.4387C33.1431 17.4564 33.2186 17.5082 33.2313 17.6024C33.2356 17.63 33.2342 17.6581 33.2273 17.6852C33.2204 17.7122 33.208 17.7376 33.191 17.7597C33.174 17.7819 33.1527 17.8004 33.1284 17.814C33.104 17.8277 33.0772 17.8363 33.0494 17.8393C32.4269 17.8716 30.5371 17.2918 28.3912 20.3589Z" fill="#3175B7"/>
<path fill-rule="evenodd" clip-rule="evenodd" d="M24.9495 26.8151C30.2602 25.9056 25.2337 34.1712 28.038 36.2979C28.4377 36.6008 26.2145 37.935 25.3855 36.5608C24.8653 35.6968 26.5651 34.1244 26.6747 31.9076C26.7843 29.6908 26.0031 28.9277 25.5261 28.0906C25.049 27.2534 24.9495 26.8151 24.9495 26.8151Z" fill="#1C4377"/>
<path d="M21.1252 5.29029C21.6045 3.69876 20.7582 2.42554 19.9429 2.01902C19.9197 2.00461 19.8925 1.9981 19.8653 2.00048C19.838 2.00286 19.8123 2.01399 19.792 2.0322C19.7792 2.04443 19.769 2.05911 19.7621 2.07536C19.7552 2.09162 19.7516 2.10911 19.7516 2.12679C19.7516 2.14446 19.7552 2.16195 19.7621 2.17821C19.769 2.19446 19.7792 2.20914 19.792 2.22137C20.0889 2.4792 21.2539 2.92801 21.1252 5.29029Z" fill="#3175B7"/>
<path fill-rule="evenodd" clip-rule="evenodd" d="M19.8107 29.8231C19.8303 30.0223 20.2718 31.7379 20.1222 32.9943C20.0175 33.8241 19.8695 34.6478 19.6788 35.4621C22.4358 36.0378 24.1652 35.7095 26.853 35.2861C26.853 35.2861 27.0281 34.4676 26.7012 32.9134C26.3742 31.3592 27.1181 29.583 27.1181 29.583L19.8107 29.8231Z" fill="#1C4377"/>
<path d="M35.1378 32.1522C35.1378 38.6965 29.8344 44 23.29 44C23.1872 44 23.0854 44 22.9835 43.9959C23.1004 43.3938 23.2477 42.779 23.4191 42.1647C23.6329 41.3958 23.8839 40.6273 24.1562 39.8874C25.007 37.5643 26.0625 35.5221 26.835 34.5731C27.9869 33.9379 28.9472 33.0053 29.6158 31.8725C30.2844 30.7397 30.6367 29.4483 30.6361 28.1329C30.6355 26.8176 30.282 25.5264 29.6123 24.3943C28.9427 23.2621 27.9815 22.3304 26.8291 21.6963L27.182 20.9614C31.8147 22.5689 35.1378 26.972 35.1378 32.1522Z" fill="#3175B7"/>
<path opacity="0.5" d="M35.1378 32.1522C35.1378 38.6966 29.8344 44 23.29 44C23.1872 44 23.0854 44 22.9835 43.9959C23.1004 43.3938 23.2477 42.7791 23.4191 42.1647C28.5166 41.6104 34.1174 36.1938 33.7245 29.9945C33.363 24.2923 27.1838 20.9601 27.1838 20.9601C31.8147 22.5689 35.1378 26.972 35.1378 32.1522Z" fill="#275B98"/>
<path d="M22.8904 37.3456L22.4811 39.5687C21.599 37.6361 20.3808 35.6276 19.7164 34.5568C19.7286 34.5654 19.7415 34.5728 19.7551 34.579L22.3593 37.4292C22.3657 37.4364 22.3739 37.4419 22.383 37.4451C22.3921 37.4483 22.4019 37.4492 22.4114 37.4476C22.4209 37.446 22.4299 37.442 22.4375 37.436C22.4451 37.43 22.451 37.4222 22.4548 37.4133L22.5807 37.1209L22.8904 37.3456Z" fill="#275B98"/>
<path d="M22.4825 39.5687C22.9017 40.4881 23.2469 41.3876 23.4192 42.1647C23.2478 42.779 23.1009 43.3924 22.9836 43.9959C16.5802 43.8335 11.4423 38.5938 11.4423 32.1521C11.4423 26.9683 14.7717 22.5611 19.4095 20.9546L19.6823 21.7313C18.5448 22.3729 17.5987 23.306 16.9415 24.4346C16.2843 25.5632 15.9397 26.8466 15.9431 28.1526C15.9465 29.4586 16.2977 30.7401 16.9608 31.8653C17.6238 32.9905 18.5747 33.9187 19.7155 34.5544C20.3821 35.6285 21.6003 37.6361 22.4825 39.5687Z" fill="#3175B7"/>
<path opacity="0.5" d="M22.482 39.5687C22.9013 40.4882 23.2464 41.3876 23.4187 42.1647C23.2473 42.7791 23.1004 43.3925 22.9831 43.9959C20.6299 37.7485 17.1563 37.3083 15.2751 31.9453C14.0337 28.4057 16.1946 23.1728 19.6832 21.7327C17.4305 23.0268 15.9417 25.3882 15.9417 28.137C15.941 29.4466 16.2905 30.7326 16.9542 31.8617C17.6178 32.9907 18.5713 33.9217 19.7159 34.5581C20.3817 35.6285 21.5999 37.6361 22.482 39.5687Z" fill="#275B98"/>
<path d="M26.834 34.5731C26.061 35.5199 25.006 37.5643 24.1553 39.8875L23.6874 37.3465L23.997 37.1218L24.123 37.4133C24.1268 37.4223 24.1329 37.4302 24.1406 37.4362C24.1483 37.4423 24.1574 37.4462 24.1671 37.4478C24.1767 37.4494 24.1866 37.4485 24.1958 37.4453C24.2051 37.442 24.2133 37.4365 24.2198 37.4292L26.8226 34.579L26.834 34.5731Z" fill="#275B98"/>
<path d="M23.9981 37.1218L23.6884 37.3464L23.2901 37.6347L22.8908 37.3455L22.5812 37.1209L23.2901 35.4834L23.9981 37.1218Z" fill="#1C4377"/>
<path d="M30.5807 5.08974C30.2783 5.15567 30.0141 5.26344 29.8218 5.54082C29.6485 5.84821 29.5808 6.26838 29.5394 6.75357C29.5335 6.81632 29.4771 6.81632 29.4707 6.75357C29.4334 6.31249 29.3739 5.92415 29.232 5.62449C29.2179 5.59539 29.2038 5.56811 29.1865 5.54082C28.9942 5.26344 28.7318 5.15567 28.4276 5.08974C28.3881 5.08019 28.3881 4.9897 28.4276 4.98015C28.7036 4.92058 28.9478 4.82555 29.1342 4.59819C29.1524 4.5759 29.1697 4.55271 29.1865 4.52907C29.3602 4.22122 29.4275 3.79924 29.4689 3.31633C29.4753 3.25312 29.5317 3.25312 29.5376 3.31633C29.5789 3.79924 29.6467 4.22122 29.8199 4.52907C30.0123 4.80599 30.2746 4.91422 30.5788 4.98015C30.6202 4.9897 30.6202 5.08019 30.5807 5.08974Z" fill="#E56F2C"/>
<path d="M26.4164 24.3659C26.2718 24.3973 26.1436 24.4491 26.0526 24.5814C25.9699 24.7283 25.9376 24.9297 25.9162 25.1607C25.9135 25.1908 25.8866 25.1908 25.8835 25.1607C25.8657 24.9498 25.838 24.7642 25.7693 24.6214C25.7625 24.6073 25.7561 24.5942 25.7489 24.5814C25.6579 24.4491 25.5306 24.3995 25.3851 24.3659C25.3664 24.3613 25.3664 24.3181 25.3851 24.3136C25.5169 24.2849 25.6338 24.2395 25.7229 24.1317C25.7316 24.1208 25.7398 24.1099 25.7479 24.0985C25.8307 23.9516 25.863 23.7497 25.8844 23.5187C25.8875 23.4887 25.9144 23.4887 25.9171 23.5187C25.9371 23.7497 25.9694 23.9516 26.0535 24.0985C26.1445 24.2308 26.2718 24.2804 26.4173 24.314C26.435 24.3181 26.435 24.3613 26.4164 24.3659Z" fill="#E56F2C"/>
<path d="M15.8105 18.1707C15.6041 18.2162 15.424 18.2899 15.2921 18.479C15.1739 18.6891 15.128 18.9769 15.0993 19.3071C15.0952 19.3503 15.057 19.3503 15.0538 19.3071C15.0284 19.0056 14.9874 18.7405 14.8906 18.5363C14.881 18.5163 14.871 18.4977 14.861 18.479C14.7292 18.2899 14.5491 18.2162 14.3426 18.1707C14.3158 18.1644 14.3158 18.1025 14.3426 18.0961C14.5309 18.0552 14.6978 17.9907 14.8251 17.8356C14.8374 17.8201 14.8492 17.8047 14.861 17.7901C14.9793 17.58 15.0252 17.2899 15.0538 16.9616C15.0579 16.9189 15.0961 16.9189 15.0993 16.9616C15.128 17.2917 15.1739 17.58 15.2921 17.7901C15.424 17.9793 15.6041 18.053 15.8105 18.098C15.8373 18.1025 15.8373 18.1644 15.8105 18.1707Z" fill="#E56F2C"/>
<path d="M23.9505 20.7867C23.9505 18.4849 24.1988 17.8429 25.5029 16.5301C26.7884 15.2368 28.5163 13.4834 28.5163 6.96863H18.0646C18.0646 13.483 19.7925 15.2368 21.0766 16.5301C22.3803 17.8429 22.6291 18.4854 22.6291 20.7867H23.9505Z" fill="#E56F2C"/>
<path d="M23.9504 20.7867C23.9504 18.4849 24.1987 17.8429 25.5028 16.5301C26.7883 15.2368 28.5163 13.4834 28.5163 6.96863H27.4149C27.4149 14.5857 25.109 14.9299 24.2364 16.5301C23.5139 17.8547 23.2897 18.4854 23.2897 20.7867H23.9504Z" fill="#CA6643"/>
<path d="M26.5458 31.7669C26.5458 33.4644 25.1321 34.7422 23.6383 35.372C23.4661 35.4462 23.2797 35.4819 23.0922 35.4767C22.9047 35.4714 22.7207 35.4253 22.5529 35.3415C20.964 34.5362 20.4497 33.7555 20.1773 31.7669C19.8913 29.6779 21.4915 27.95 23.29 27.95C26.3248 27.95 26.5458 29.6584 26.5458 31.7669Z" fill="#3175B7"/>
<path opacity="0.5" d="M26.5455 31.7669C26.5455 33.4644 25.1318 34.7422 23.638 35.372C24.2937 34.7645 26.0435 33.8164 26.0153 31.8088C25.9871 29.8012 25.5151 28.7307 23.2897 27.95C26.3245 27.95 26.5455 29.6584 26.5455 31.7669Z" fill="#275B98"/>
<path d="M19.9004 15.1828C19.8343 15.2278 19.7562 15.2517 19.6763 15.2515C19.6027 15.251 19.5306 15.2308 19.4675 15.1928C15.797 12.9678 15.797 10.0044 15.797 9.03041C15.7969 8.97747 15.8073 8.92503 15.8275 8.8761C15.8478 8.82716 15.8774 8.7827 15.9148 8.74524C15.9523 8.70778 15.9967 8.67806 16.0456 8.65779C16.0945 8.63751 16.1469 8.62708 16.1999 8.62708H18.1056C18.1197 8.90673 18.1379 9.17274 18.1602 9.43284C18.1502 9.43284 18.1397 9.43284 18.1297 9.43284H16.6123C16.676 10.7797 17.1157 12.5481 19.2593 14.0878C19.4413 14.4705 19.6558 14.8368 19.9004 15.1828Z" fill="#E56F2C"/>
<path d="M18.1601 9.43278C18.1501 9.43278 18.1396 9.43278 18.1296 9.43278H17.9441C17.9217 9.1751 17.9035 8.90621 17.8895 8.6261H18.1055C18.1196 8.90666 18.1378 9.17449 18.1601 9.43278Z" fill="#CA6643"/>
<path d="M19.8999 15.1828C19.849 15.2171 19.791 15.2395 19.7303 15.2483C19.4135 14.8083 19.1447 14.3358 18.9286 13.8386C19.0335 13.9223 19.1435 14.0054 19.2587 14.0878C19.4407 14.4705 19.6553 14.8368 19.8999 15.1828Z" fill="#CA6643"/>
<path d="M30.7629 9.03042C30.7629 10.0044 30.7629 12.9679 27.0919 15.1929C27.029 15.231 26.9568 15.2513 26.8832 15.2515C26.8092 15.2515 26.7366 15.2308 26.6736 15.192C26.9249 14.837 27.1449 14.4609 27.3311 14.0679C29.4483 12.5332 29.8839 10.7747 29.9471 9.43376H28.4197C28.4422 9.17608 28.4603 8.90719 28.4743 8.62708H30.3596C30.4665 8.62708 30.5691 8.66957 30.6448 8.74521C30.7204 8.82085 30.7629 8.92344 30.7629 9.03042Z" fill="#E56F2C"/>
<path d="M29.0012 8.62708C28.9873 8.90688 28.9691 9.17577 28.9467 9.43375H28.4192C28.4416 9.17608 28.4598 8.90718 28.4738 8.62708H29.0012Z" fill="#B65638"/>
<path d="M28.1414 13.3962C27.9239 13.9883 27.6358 14.552 27.2834 15.0751C27.2212 15.1154 27.1574 15.1551 27.0919 15.1942C27.029 15.2324 26.9568 15.2526 26.8832 15.2529C26.8092 15.2528 26.7366 15.2322 26.6736 15.1933C26.9249 14.8383 27.1449 14.4622 27.3311 14.0692C27.616 13.8633 27.8867 13.6385 28.1414 13.3962Z" fill="#B65638"/>
<path d="M26.8233 34.579L24.2205 37.4292C24.214 37.4365 24.2057 37.442 24.1965 37.4453C24.1872 37.4486 24.1774 37.4494 24.1677 37.4478C24.158 37.4463 24.1489 37.4423 24.1412 37.4362C24.1335 37.4302 24.1275 37.4223 24.1236 37.4133L23.9977 37.1218L23.2897 35.4848C24.5252 35.4864 25.7409 35.1747 26.8233 34.579Z" fill="#3175B7"/>
<path d="M23.2896 35.4834L22.5807 37.1205L22.4547 37.4129C22.451 37.4218 22.445 37.4296 22.4374 37.4356C22.4298 37.4415 22.4209 37.4455 22.4113 37.4471C22.4018 37.4487 22.392 37.4478 22.3829 37.4446C22.3738 37.4414 22.3657 37.436 22.3592 37.4288L19.7568 34.5785C20.839 35.1739 22.0544 35.4853 23.2896 35.4834Z" fill="#3175B7"/>
<path fill-rule="evenodd" clip-rule="evenodd" d="M24.1729 32.8356C24.1729 33.1893 24.0324 33.5285 23.7823 33.7786C23.5322 34.0288 23.193 34.1693 22.8393 34.1693C22.4856 34.1693 22.1463 34.0288 21.8962 33.7786C21.6461 33.5285 21.5056 33.1893 21.5056 32.8356" fill="white"/>
<path fill-rule="evenodd" clip-rule="evenodd" d="M24.1561 39.8875C23.8833 40.6273 23.6328 41.3958 23.419 42.1647C23.2467 41.3917 22.9016 40.4882 22.4823 39.5687L22.8916 37.3456L23.2908 37.6348L23.6891 37.3465L24.1561 39.8875Z" fill="#1C4377"/>
<path fill-rule="evenodd" clip-rule="evenodd" d="M23.7008 37.4156L23.2897 37.7485L22.8768 37.4206L22.8905 37.3456L23.2897 37.6348L23.6881 37.3465L23.7008 37.4156Z" fill="#13365B"/>
<path opacity="0.5" d="M26.8339 34.5731C26.0609 35.5199 25.006 37.5643 24.1552 39.8875C23.8823 40.6273 23.6318 41.3958 23.4181 42.1647C23.2466 42.7791 23.0998 43.3925 22.9824 43.9959C22.8856 43.9959 22.7896 43.99 22.6932 43.985L22.701 43.9395C22.8183 43.3406 22.9661 42.7177 23.1425 42.0865C23.1852 41.9322 23.2297 41.777 23.2757 41.6209C23.4576 41.0179 23.66 40.4027 23.8869 39.7865C23.9415 39.6374 23.9978 39.4882 24.0542 39.34C24.5503 38.0463 25.1774 36.909 25.673 35.9155C25.7694 35.7231 26.668 34.7332 26.8226 34.5772C26.8261 34.5752 26.8299 34.5738 26.8339 34.5731Z" fill="#1C4377"/>
<path d="M25.705 21.2975C25.705 20.5167 24.5809 19.8733 23.2895 19.8733C21.9981 19.8733 20.8735 20.5167 20.8735 21.2975H25.705Z" fill="#E56F2C"/>
<path d="M23.9688 19.8742L23.9661 19.9333C23.5186 19.8527 23.0603 19.8527 22.6128 19.9333L22.6101 19.8742C23.0594 19.7936 23.5195 19.7936 23.9688 19.8742Z" fill="#CA6643"/>
<path d="M25.7052 21.2975C25.7052 20.5167 24.5811 19.8733 23.2897 19.8733C24.3687 20.0315 25.1058 20.5167 25.1058 21.2975H25.7052Z" fill="#CA6643"/>
<path d="M20.9436 21.0596C20.9439 21.0974 20.9406 21.1352 20.9336 21.1724C20.9136 21.2861 20.8637 21.3925 20.7888 21.4804C20.714 21.5683 20.617 21.6347 20.508 21.6726L19.7572 21.9413L19.6835 21.7326L19.4107 20.9559L19.3239 20.7099L20.0751 20.4448C20.1871 20.4053 20.3078 20.3972 20.4242 20.4212C20.5405 20.4453 20.6481 20.5006 20.7353 20.5812C20.8139 20.6523 20.8731 20.7421 20.9077 20.8422C20.9319 20.9121 20.9441 20.9856 20.9436 21.0596Z" fill="#94B7DB"/>
<path d="M27.2567 20.8077L27.184 20.96L26.8311 21.6949L26.6947 21.9841L25.9766 21.6403C25.8213 21.5649 25.7019 21.4312 25.6446 21.2683C25.5872 21.1055 25.5964 20.9265 25.6701 20.7704C25.7052 20.6965 25.7543 20.6301 25.8147 20.5749C25.9108 20.4854 26.0316 20.4269 26.1614 20.4071C26.2912 20.3873 26.4239 20.4071 26.5423 20.4639L27.2567 20.8077Z" fill="#94B7DB"/>
<path d="M25.7053 11.2385L21.8824 13.4544V9.0304L22.4017 9.3296V12.5531L25.1869 10.9393L25.7053 11.2385Z" fill="white"/>
<path d="M24.9268 10.7888L22.7046 12.0766V11.5191L23.9633 10.7898L22.7046 10.0636V9.50562L24.9268 10.7888Z" fill="white"/>
<path fill-rule="evenodd" clip-rule="evenodd" d="M21.6434 26.3345C21.672 26.2344 23.0439 26.0425 23.1735 26.0343C23.9388 25.9889 24.9374 26.1444 25.4171 26.4086C25.8969 26.6728 26.5608 27.3526 26.6572 27.609C26.7536 27.8655 26.7358 27.8846 25.5153 28.7308C24.2949 29.5771 22.4651 29.9649 22.9371 29.813C23.4091 29.6612 23.7924 28.8818 23.7924 28.8818C23.7924 28.8818 23.4686 29.2624 21.8548 29.8331C20.241 30.4037 19.8172 30.225 19.8172 30.225C19.8172 30.225 19.3024 29.4652 19.5839 28.538C19.8654 27.6109 20.0982 27.5376 20.6343 26.9988C21.1705 26.46 21.6434 26.3345 21.6434 26.3345Z" fill="#1C4377"/>
<path fill-rule="evenodd" clip-rule="evenodd" d="M24.7485 27.2957C24.7185 27.4353 24.7449 28.1833 25.6056 29.3297C26.4664 30.476 26.5333 30.5761 26.5333 30.5761C26.5333 30.5761 26.5587 32.6751 26.5687 32.5855C26.5787 32.4959 27.0298 30.4106 27.0298 30.4106C27.0298 30.4106 27.1512 29.5193 26.9321 28.6217C26.7129 27.724 26.436 27.3862 26.0554 27.2348C25.6748 27.0833 24.7485 27.2957 24.7485 27.2957Z" fill="#1C4377"/>
<path fill-rule="evenodd" clip-rule="evenodd" d="M25.8789 27.5476C26.0217 28.8045 25.6875 28.9572 24.6748 29.6275C23.6622 30.2978 23.2243 30.2982 23.3884 30.2159C23.5526 30.1336 24.3329 28.779 24.3329 28.779C24.3329 28.779 23.2793 29.6275 22.212 30.0522C21.1448 30.4769 20.7619 30.3123 20.7619 30.3123C20.7619 30.3123 21.7059 29.0809 21.5827 29.1755C21.4595 29.2701 20.5564 29.8576 20.4336 30.1336C20.3109 30.4096 20.0471 31.6374 20.1976 32.992C20.3481 34.3466 21.7687 36.9245 20.9616 37.4578C19.8766 38.1749 18.492 36.8494 18.718 36.7921C20.4059 36.3638 19.5028 29.8385 19.5588 29.4497C19.7024 28.4525 20.2649 27.7268 20.8938 27.2261C22.2412 26.1534 25.7257 26.1834 25.8789 27.5476Z" fill="#1C4377"/>
</g>
</svg>
