<svg width="45" height="45" viewBox="0 0 45 45" fill="none" xmlns="http://www.w3.org/2000/svg">
<mask id="mask0" mask-type="alpha" maskUnits="userSpaceOnUse" x="0" y="0" width="45" height="45">
<circle cx="22.5" cy="22.5" r="22" fill="white" stroke="#E2E4EA"/>
</mask>
<g mask="url(#mask0)">
<path opacity="0.15" d="M22.5 45.6782C35.3009 45.6782 45.6782 35.301 45.6782 22.5C45.6782 9.69902 35.3009 -0.678223 22.5 -0.678223C9.69901 -0.678223 -0.678223 9.69902 -0.678223 22.5C-0.678223 35.301 9.69901 45.6782 22.5 45.6782Z" fill="#B2D0E9"/>
<path opacity="0.3" d="M34.6435 17.9332V16.0584H33.5639V20.5336H32.1691V19.3703H31.1V20.4138H30.0864V17.3018H29.2754V19.8106H27.8603V17.9332H26.9163V18.8076H26.004V15.2377H24.4841V17.2516H22.6005V19.0058H21.6565V20.5072H20.2863V17.6003H19.3978V19.0058H17.3477V15.8594H15.7001V22.153H14.8433V17.5378H13.2591V20.6331H12.0545V17.9975H11.121V18.8076H10.391V13.7134H9.21277V28.7998H35.7865V17.9332H34.6435Z" fill="#94B7DB"/>
<path d="M8.95203 8.55396V29.0613H36.048V8.55396H8.95203ZM16.01 28.5435H9.47422V9.08231H16.01V28.5435ZM16.4574 9.08231H28.5409V28.5435H16.4574V9.08231ZM35.5258 28.5435H28.9874V9.08231H35.5258V28.5435Z" fill="#B7D1E9"/>
<path d="M38.5506 25.0696H6.44934V25.9687H38.5506V25.0696Z" fill="#E56F2C"/>
<path d="M38.5506 25.5187H6.44934V25.9687H38.5506V25.5187Z" fill="#CA6643"/>
<path d="M13.7839 25.9688H8.74072V37.0695H13.7839V25.9688Z" fill="#E56F2C"/>
<path d="M15.1937 25.9688H13.783V37.0695H15.1937V25.9688Z" fill="#B65638"/>
<path d="M36.2593 25.9688H34.8486V37.0695H36.2593V25.9688Z" fill="#B65638"/>
<path d="M13.1974 26.4724H9.32629V28.4678H13.1974V26.4724Z" stroke="#B65638" stroke-miterlimit="10"/>
<path d="M13.1974 29.2234H9.32629V31.2188H13.1974V29.2234Z" stroke="#B65638" stroke-miterlimit="10"/>
<path d="M13.1974 31.9744H9.32629V33.9698H13.1974V31.9744Z" stroke="#B65638" stroke-miterlimit="10"/>
<path d="M13.1974 34.7253H9.32629V36.7208H13.1974V34.7253Z" stroke="#B65638" stroke-miterlimit="10"/>
<path d="M12.4858 26.9153H10.0369V27.2851H12.4858V26.9153Z" fill="#B65638"/>
<path d="M12.4858 29.6663H10.0369V30.037H12.4858V29.6663Z" fill="#B65638"/>
<path d="M12.4858 32.4172H10.0369V32.7871H12.4858V32.4172Z" fill="#B65638"/>
<path d="M12.4858 35.1682H10.0369V35.5381H12.4858V35.1682Z" fill="#B65638"/>
<path d="M34.8495 25.9688H29.8063V37.0695H34.8495V25.9688Z" fill="#E56F2C"/>
<path d="M34.2631 26.4724H30.392V28.4678H34.2631V26.4724Z" stroke="#B65638" stroke-miterlimit="10"/>
<path d="M34.2631 29.2234H30.392V31.2188H34.2631V29.2234Z" stroke="#B65638" stroke-miterlimit="10"/>
<path d="M34.2631 31.9744H30.392V33.9698H34.2631V31.9744Z" stroke="#B65638" stroke-miterlimit="10"/>
<path d="M34.2631 34.7253H30.392V36.7208H34.2631V34.7253Z" stroke="#B65638" stroke-miterlimit="10"/>
<path d="M33.5515 26.9153H31.1025V27.2851H33.5515V26.9153Z" fill="#B65638"/>
<path d="M33.5515 29.6663H31.1025V30.037H33.5515V29.6663Z" fill="#B65638"/>
<path d="M33.5515 32.4172H31.1025V32.7871H33.5515V32.4172Z" fill="#B65638"/>
<path d="M33.5515 35.1682H31.1025V35.5381H33.5515V35.1682Z" fill="#B65638"/>
<path d="M21.9364 31.9207H21.5005V34.0675H21.9364V31.9207Z" fill="#1C1C36"/>
<path d="M21.9364 31.9207H21.5005V32.6736H21.9364V31.9207Z" fill="#11121E"/>
<path d="M25.4155 35.9837V35.06L25.2473 34.8548L21.7575 34.1653L21.7522 34.1512L21.7179 34.1574L21.6844 34.1512L21.6791 34.1653L18.1849 34.8548L18.0167 35.06V35.9837C17.8953 36.0323 17.7945 36.1216 17.7317 36.2363C17.669 36.3511 17.6481 36.4841 17.6728 36.6126C17.6975 36.741 17.7662 36.8568 17.8671 36.9401C17.9679 37.0234 18.0946 37.069 18.2254 37.069C18.3562 37.069 18.4829 37.0234 18.5838 36.9401C18.6846 36.8568 18.7533 36.741 18.778 36.6126C18.8027 36.4841 18.7819 36.3511 18.7191 36.2363C18.6564 36.1216 18.5556 36.0323 18.4341 35.9837V35.2308L20.7607 34.7712L19.6529 35.4871L19.5569 35.6632V35.9785C19.4344 36.0229 19.3311 36.1085 19.2649 36.2208C19.1987 36.333 19.1736 36.4648 19.194 36.5935C19.2144 36.7222 19.2789 36.8398 19.3766 36.9261C19.4742 37.0124 19.5989 37.062 19.7291 37.0664C19.8593 37.0708 19.9871 37.0297 20.0903 36.9502C20.1936 36.8707 20.2659 36.7577 20.2949 36.6307C20.3239 36.5036 20.3078 36.3704 20.2493 36.254C20.1908 36.1376 20.0935 36.0451 19.9743 35.9925V35.7768L21.7179 34.6523L23.4579 35.7768V35.9925C23.3375 36.0452 23.2391 36.1382 23.1798 36.2556C23.1205 36.3729 23.1039 36.5073 23.133 36.6355C23.1621 36.7638 23.2349 36.8779 23.3391 36.9582C23.4432 37.0385 23.572 37.08 23.7034 37.0756C23.8349 37.0711 23.9606 37.021 24.0591 36.9339C24.1575 36.8467 24.2225 36.728 24.2429 36.5981C24.2633 36.4682 24.2377 36.3352 24.1706 36.2221C24.1035 36.109 23.9991 36.0229 23.8754 35.9785V35.6632L23.7802 35.4871L22.676 34.7712L25.0025 35.2308V35.9837C24.8807 36.0322 24.7796 36.1215 24.7166 36.2365C24.6536 36.3514 24.6326 36.4847 24.6573 36.6134C24.6819 36.7422 24.7507 36.8583 24.8517 36.9418C24.9527 37.0253 25.0797 37.071 25.2108 37.071C25.3419 37.071 25.4688 37.0253 25.5699 36.9418C25.6709 36.8583 25.7396 36.7422 25.7643 36.6134C25.789 36.4847 25.768 36.3514 25.705 36.2365C25.6419 36.1215 25.5408 36.0322 25.419 35.9837H25.4155Z" fill="#11121E"/>
<path d="M22.116 34.7235V34.0005C22.1067 33.9019 22.0609 33.8102 21.9877 33.7435C21.9144 33.6769 21.8188 33.6399 21.7198 33.6399C21.6207 33.6399 21.5251 33.6769 21.4519 33.7435C21.3786 33.8102 21.3328 33.9019 21.3235 34.0005V34.7235H22.116Z" fill="#11121E"/>
<path d="M24.557 26.5261C24.557 28.3489 17.9569 28.3489 17.9569 26.5261V22.6012C17.9569 21.7261 18.3045 20.8867 18.9233 20.2678C19.5421 19.6488 20.3813 19.301 21.2565 19.3008C22.1318 19.3008 22.9713 19.6485 23.5903 20.2675C24.2093 20.8864 24.557 21.7259 24.557 22.6012V26.5261Z" fill="#3175B7"/>
<path d="M23.8456 26.5261C23.8456 28.3489 17.2411 28.3489 17.2411 26.5261V22.6012C17.2411 21.7259 17.5888 20.8864 18.2078 20.2675C18.8267 19.6485 19.6662 19.3008 20.5416 19.3008C21.4169 19.3008 22.2564 19.6485 22.8754 20.2675C23.4944 20.8864 23.8421 21.7259 23.8421 22.6012L23.8456 26.5261Z" fill="#1C4377"/>
<path d="M27.1494 29.4241H21.4299C21.1868 29.4241 20.9896 29.6212 20.9896 29.8644V30.56C20.9896 30.8032 21.1868 31.0003 21.4299 31.0003H27.1494C27.3926 31.0003 27.5897 30.8032 27.5897 30.56V29.8644C27.5897 29.6212 27.3926 29.4241 27.1494 29.4241Z" fill="#3175B7"/>
<path d="M23.4042 29.4241H17.6848C17.4416 29.4241 17.2445 29.6212 17.2445 29.8644V30.56C17.2445 30.8032 17.4416 31.0003 17.6848 31.0003H23.4042C23.6474 31.0003 23.8445 30.8032 23.8445 30.56V29.8644C23.8445 29.6212 23.6474 29.4241 23.4042 29.4241Z" fill="#1C4377"/>
<path d="M25.7846 31.0004H21.2566V31.5234H25.7846V31.0004Z" fill="#1C1C36"/>
<path d="M22.8249 31.0004H18.2969V31.5234H22.8249V31.0004Z" fill="#11121E"/>
<path d="M20.9149 31.5226C20.9149 31.5749 20.9252 31.6268 20.9453 31.6751C20.9654 31.7235 20.9948 31.7674 21.0318 31.8044C21.0689 31.8414 21.1128 31.8707 21.1612 31.8906C21.2096 31.9106 21.2615 31.9208 21.3138 31.9207H24.3334C24.3857 31.9208 24.4376 31.9106 24.486 31.8906C24.5344 31.8707 24.5784 31.8414 24.6154 31.8044C24.6525 31.7674 24.6819 31.7235 24.7019 31.6751C24.722 31.6268 24.7323 31.5749 24.7323 31.5226H20.9149Z" fill="#1C1C36"/>
<path d="M18.6368 31.5226C18.6368 31.6282 18.6788 31.7294 18.7534 31.8041C18.8281 31.8787 18.9293 31.9207 19.0349 31.9207H22.0597C22.1653 31.9207 22.2665 31.8787 22.3412 31.8041C22.4158 31.7294 22.4577 31.6282 22.4577 31.5226H18.6368Z" fill="#11121E"/>
<path d="M21.1985 30.981V25.6974C21.1985 25.6528 21.1897 25.6087 21.1726 25.5675C21.1555 25.5263 21.1304 25.4889 21.0989 25.4574C21.0673 25.4259 21.0298 25.4009 20.9886 25.384C20.9473 25.367 20.9032 25.3583 20.8586 25.3584H20.538C20.4934 25.3583 20.4493 25.367 20.408 25.384C20.3668 25.4009 20.3293 25.4259 20.2977 25.4574C20.2662 25.4889 20.2411 25.5263 20.224 25.5675C20.2069 25.6087 20.1981 25.6528 20.1981 25.6974V30.981H21.1985Z" fill="#1C1C36"/>
<path d="M20.9247 30.981V25.6974C20.9247 25.6528 20.9159 25.6087 20.8988 25.5675C20.8817 25.5263 20.8566 25.4889 20.8251 25.4574C20.7935 25.4259 20.756 25.4009 20.7148 25.384C20.6735 25.367 20.6294 25.3583 20.5848 25.3584H20.2633C20.1734 25.3584 20.0872 25.3941 20.0236 25.4577C19.96 25.5213 19.9243 25.6075 19.9243 25.6974V30.981H20.9247Z" fill="#11121E"/>
<path d="M10.863 24.4048L8.67468 20.2105L12.4868 18.2732L12.7994 18.813L9.54119 20.4703L11.4556 24.1406L10.8674 24.41L10.863 24.4048ZM9.01811 20.31L10.9827 24.0763L11.1007 24.0226L9.19071 20.3611L12.4419 18.7135L12.3794 18.6052L9.01811 20.31Z" fill="#091B36"/>
<path d="M11.0998 24.0375C10.4913 24.0375 9.99817 24.4989 9.99817 25.0695H12.1997C12.197 24.4989 11.7074 24.0375 11.0998 24.0375Z" fill="#3175B7"/>
<path opacity="0.5" d="M11.3975 24.0762C11.3003 24.0507 11.2003 24.0377 11.0998 24.0375C10.4913 24.0375 9.99817 24.4989 9.99817 25.0695H10.5944C10.5994 24.8384 10.681 24.6155 10.8263 24.4358C10.9717 24.256 11.1726 24.1296 11.3975 24.0762Z" fill="#1C4377"/>
<path d="M9.85906 20.3935C9.86825 20.5372 9.83404 20.6802 9.76089 20.8041C9.68774 20.9281 9.57902 21.0272 9.44885 21.0885C9.31868 21.1499 9.17307 21.1707 9.03092 21.1482C8.88877 21.1258 8.75665 21.0611 8.65172 20.9626C8.54679 20.8642 8.47388 20.7364 8.44247 20.596C8.41106 20.4555 8.4226 20.3089 8.47558 20.1751C8.52857 20.0413 8.62055 19.9265 8.7396 19.8457C8.85864 19.7648 8.99924 19.7216 9.14315 19.7216C9.32714 19.7159 9.50588 19.7835 9.64011 19.9095C9.77434 20.0355 9.85309 20.2096 9.85906 20.3935Z" fill="#3175B7"/>
<path d="M9.42052 20.3936C9.42423 20.4493 9.41109 20.5048 9.38282 20.553C9.35455 20.6011 9.31244 20.6397 9.26199 20.6636C9.21153 20.6875 9.15504 20.6956 9.09988 20.687C9.04472 20.6784 8.99343 20.6534 8.95268 20.6152C8.91192 20.577 8.88359 20.5275 8.87137 20.473C8.85915 20.4185 8.8636 20.3616 8.88414 20.3097C8.90469 20.2578 8.94037 20.2132 8.98656 20.1819C9.03275 20.1505 9.08731 20.1338 9.14314 20.1338C9.17842 20.1326 9.21358 20.1384 9.24661 20.1509C9.27965 20.1633 9.30991 20.1821 9.33567 20.2062C9.36143 20.2303 9.38218 20.2593 9.39674 20.2915C9.4113 20.3236 9.41938 20.3583 9.42052 20.3936Z" fill="#091B36"/>
<path d="M12.5246 18.7927C12.4758 18.7927 12.4286 18.7752 12.3916 18.7434L11.6114 18.0689C11.5927 18.0531 11.5775 18.0336 11.5667 18.0117C11.5559 17.9897 11.5498 17.9657 11.5489 17.9413C11.5479 17.9169 11.552 17.8925 11.5609 17.8697C11.5699 17.847 11.5834 17.8263 11.6008 17.8091C11.6373 17.7729 11.6861 17.7517 11.7375 17.7498C11.7888 17.7478 11.8391 17.7652 11.8782 17.7985L12.6584 18.4731C12.6778 18.4888 12.6937 18.5085 12.7049 18.5309C12.7161 18.5533 12.7224 18.5778 12.7234 18.6028C12.7244 18.6278 12.7201 18.6527 12.7107 18.6759C12.7013 18.6991 12.6871 18.72 12.669 18.7372C12.6305 18.7752 12.5786 18.7965 12.5246 18.7962V18.7927Z" fill="#091B36"/>
<path d="M13.3215 18.502L13.001 18.2246C12.8726 18.1156 12.708 18.0586 12.5397 18.0648C12.3713 18.071 12.2114 18.1399 12.0913 18.2581C12.0344 18.3147 11.9899 18.3825 11.9606 18.4573C11.9314 18.532 11.918 18.6121 11.9214 18.6923C11.9248 18.7725 11.9449 18.8511 11.9804 18.9231C12.0158 18.9951 12.0659 19.0589 12.1275 19.1105L12.448 19.3879L13.0503 20.9827L15.066 18.937L13.3215 18.502Z" fill="#3175B7"/>
<path d="M13.3216 18.502L13.1948 18.3928L12.3485 19.3007L12.448 19.3879L12.4965 19.5156L13.4184 18.5258L13.3216 18.502Z" fill="#091B36"/>
<g style="mix-blend-mode:multiply" opacity="0.4">
<path d="M15.1946 25.9688H8.74072V27.471H15.1946V25.9688Z" fill="#2E2E4E"/>
</g>
<g style="mix-blend-mode:multiply" opacity="0.4">
<path d="M36.2602 25.9688H29.8063V27.471H36.2602V25.9688Z" fill="#2E2E4E"/>
</g>
<path d="M34.7886 24.6636H28.7169V25.0686H34.7886V24.6636Z" fill="#4D4C4C"/>
<path d="M33.0698 23.2247H29.6213V24.6645H33.0698V23.2247Z" fill="#38393B"/>
<g style="mix-blend-mode:multiply" opacity="0.2">
<path d="M33.0698 23.2247H29.6213V24.1053H33.0698V23.2247Z" fill="#2E2E4E"/>
</g>
<path d="M32.8365 23.2247H29.3881V24.6645H32.8365V23.2247Z" fill="#4D4C4C"/>
<path d="M34.1371 24.6636H28.0653V25.0686H34.1371V24.6636Z" fill="#828282"/>
<path d="M35.945 15.9536H27.0043C26.4076 15.9536 25.9238 16.4374 25.9238 17.0341V22.647C25.9238 23.2437 26.4076 23.7275 27.0043 23.7275H35.945C36.5417 23.7275 37.0255 23.2437 37.0255 22.647V17.0341C37.0255 16.4374 36.5417 15.9536 35.945 15.9536Z" fill="#4D4C4C"/>
<path d="M35.945 15.9536H27.0043C26.7178 15.9536 26.4429 16.0675 26.2403 16.2701C26.0377 16.4727 25.9238 16.7475 25.9238 17.0341V22.6479H37.0299V17.0341C37.0298 16.8919 37.0016 16.7511 36.947 16.6197C36.8924 16.4884 36.8124 16.3692 36.7116 16.2688C36.6109 16.1684 36.4913 16.0889 36.3597 16.0348C36.2282 15.9808 36.0872 15.9532 35.945 15.9536Z" fill="#091B36"/>
<g style="mix-blend-mode:multiply" opacity="0.2">
<path d="M29.3881 23.7284V24.1044L32.8365 24.1123V23.7284H29.3881Z" fill="#2E2E4E"/>
</g>
<path d="M35.583 15.9536H26.6423C26.0455 15.9536 25.5618 16.4374 25.5618 17.0341V22.647C25.5618 23.2437 26.0455 23.7275 26.6423 23.7275H35.583C36.1797 23.7275 36.6635 23.2437 36.6635 22.647V17.0341C36.6635 16.4374 36.1797 15.9536 35.583 15.9536Z" fill="#828282"/>
<path d="M35.583 15.9536H26.6388C26.3523 15.9536 26.0774 16.0675 25.8748 16.2701C25.6722 16.4727 25.5583 16.7475 25.5583 17.0341V22.6479H36.6635V17.0341C36.6633 16.7476 36.5494 16.4729 36.3468 16.2703C36.1442 16.0678 35.8695 15.9538 35.583 15.9536Z" fill="#132D51"/>
<path d="M31.306 23.0336C31.306 23.0736 31.2941 23.1128 31.2718 23.1461C31.2496 23.1794 31.2179 23.2054 31.1809 23.2207C31.1439 23.236 31.1032 23.24 31.0639 23.2322C31.0246 23.2244 30.9885 23.2051 30.9602 23.1768C30.9319 23.1485 30.9126 23.1124 30.9048 23.0731C30.897 23.0338 30.901 22.9931 30.9163 22.9561C30.9316 22.9191 30.9576 22.8874 30.9909 22.8652C31.0242 22.8429 31.0634 22.8311 31.1034 22.8311C31.1571 22.8311 31.2087 22.8524 31.2466 22.8904C31.2846 22.9284 31.306 22.9799 31.306 23.0336Z" fill="#132D51"/>
<path d="M35.583 16.1782C35.81 16.1784 36.0275 16.2687 36.188 16.4291C36.3485 16.5896 36.4387 16.8072 36.439 17.0341V22.4234H25.7838V17.0341C25.784 16.8072 25.8743 16.5896 26.0347 16.4291C26.1952 16.2687 26.4128 16.1784 26.6397 16.1782H35.583ZM35.583 15.9536H26.6388C26.3523 15.9536 26.0774 16.0675 25.8748 16.2701C25.6722 16.4727 25.5583 16.7475 25.5583 17.0341V22.6479H36.6635V17.0341C36.6633 16.7476 36.5494 16.4729 36.3468 16.2703C36.1442 16.0678 35.8695 15.9538 35.583 15.9536Z" fill="#091B36"/>
<g opacity="0.05">
<path opacity="0.05" d="M25.5618 19.9295L29.5368 15.9536H28.6509L25.5618 19.0436V19.9295Z" fill="white"/>
<path opacity="0.05" d="M30.6675 15.9536L25.5618 21.0593V22.6479H27.4841L34.1784 15.9536H30.6675Z" fill="white"/>
<path opacity="0.05" d="M36.6634 18.2731V17.0315C36.6634 16.8418 36.613 16.6555 36.5173 16.4917L30.3636 22.648H32.2913L36.6634 18.2731Z" fill="white"/>
<path opacity="0.05" d="M36.6635 20.8859V18.9583L32.9738 22.648H34.9014L36.6635 20.8859Z" fill="white"/>
<path opacity="0.05" d="M36.0224 16.0478C35.8839 15.9857 35.7339 15.9536 35.5821 15.9536H35.2299L28.5374 22.6461H29.4232L36.0224 16.0478Z" fill="white"/>
</g>
<path d="M32.951 19.2982L30.1375 20.9281V17.6735L30.5196 17.8936V20.2651L32.5688 19.078L32.951 19.2982Z" fill="white"/>
<path d="M32.3775 18.967L30.7422 19.9145V19.5041L31.6686 18.9679L30.7422 18.4333V18.0229L32.3775 18.967Z" fill="white"/>
<path d="M15.7635 24.7015C15.7457 24.7016 15.7286 24.695 15.7154 24.6831C15.7022 24.6713 15.6939 24.6549 15.6921 24.6372L15.4438 22.4252C15.4428 22.4158 15.4436 22.4063 15.4462 22.3973C15.4488 22.3882 15.4532 22.3798 15.4591 22.3724C15.465 22.365 15.4723 22.3589 15.4805 22.3544C15.4888 22.3498 15.4978 22.3469 15.5072 22.3459C15.5166 22.3449 15.5261 22.3457 15.5351 22.3483C15.5442 22.3509 15.5526 22.3553 15.56 22.3612C15.5673 22.3671 15.5734 22.3744 15.578 22.3826C15.5825 22.3909 15.5854 22.3999 15.5865 22.4093L15.8348 24.6213C15.8359 24.6307 15.8351 24.6402 15.8325 24.6493C15.8299 24.6584 15.8255 24.6668 15.8197 24.6742C15.8138 24.6816 15.8064 24.6877 15.7982 24.6922C15.7899 24.6968 15.7808 24.6996 15.7714 24.7006L15.7635 24.7015Z" fill="#3175B7"/>
<path d="M15.7564 23.1393C15.7504 23.1393 15.7446 23.137 15.7402 23.1329C15.7358 23.1288 15.7331 23.1232 15.7326 23.1172L15.6719 22.5792L15.5354 22.5942C15.5322 22.5947 15.529 22.5945 15.5259 22.5937C15.5229 22.5929 15.52 22.5914 15.5175 22.5894C15.515 22.5874 15.513 22.585 15.5115 22.5821C15.51 22.5793 15.5092 22.5762 15.509 22.573C15.5086 22.5699 15.5088 22.5667 15.5097 22.5637C15.5106 22.5607 15.512 22.5579 15.514 22.5554C15.516 22.553 15.5184 22.5509 15.5212 22.5494C15.5239 22.5479 15.527 22.547 15.5301 22.5466L15.7141 22.5264L15.7802 23.112C15.7807 23.1151 15.7805 23.1183 15.7797 23.1214C15.7789 23.1245 15.7774 23.1273 15.7754 23.1298C15.7735 23.1323 15.771 23.1344 15.7681 23.1358C15.7653 23.1373 15.7622 23.1382 15.759 23.1384L15.7564 23.1393Z" fill="#3175B7"/>
<path d="M15.9176 24.7015H15.907C15.8976 24.7002 15.8885 24.697 15.8803 24.6922C15.8722 24.6874 15.865 24.6809 15.8594 24.6733C15.8537 24.6657 15.8496 24.657 15.8474 24.6478C15.8451 24.6385 15.8447 24.629 15.8462 24.6196L16.165 22.4181C16.1663 22.4087 16.1695 22.3996 16.1743 22.3915C16.1791 22.3833 16.1856 22.3761 16.1932 22.3705C16.2008 22.3648 16.2095 22.3608 16.2187 22.3585C16.2279 22.3562 16.2375 22.3558 16.2469 22.3573C16.2562 22.3586 16.2652 22.3618 16.2733 22.3665C16.2814 22.3713 16.2885 22.3777 16.2942 22.3852C16.2998 22.3927 16.3039 22.4013 16.3062 22.4104C16.3086 22.4195 16.309 22.429 16.3077 22.4383L15.988 24.6398C15.9857 24.6569 15.9773 24.6725 15.9643 24.6838C15.9514 24.6952 15.9348 24.7014 15.9176 24.7015Z" fill="#3175B7"/>
<path d="M16.2935 23.1816C16.2904 23.1812 16.2874 23.1801 16.2847 23.1785C16.2819 23.1769 16.2796 23.1747 16.2777 23.1722C16.2758 23.1697 16.2744 23.1668 16.2737 23.1637C16.2729 23.1606 16.2728 23.1574 16.2733 23.1543L16.3508 22.618L16.2143 22.5986C16.2111 22.5982 16.2081 22.5971 16.2054 22.5955C16.2027 22.5939 16.2003 22.5918 16.1984 22.5892C16.1965 22.5867 16.1952 22.5838 16.1944 22.5807C16.1937 22.5777 16.1935 22.5745 16.194 22.5713C16.1945 22.5682 16.1955 22.5652 16.1971 22.5625C16.1987 22.5597 16.2009 22.5573 16.2034 22.5555C16.206 22.5536 16.2088 22.5522 16.2119 22.5515C16.215 22.5507 16.2182 22.5506 16.2213 22.5511L16.4054 22.5775L16.3173 23.1613C16.3163 23.1669 16.3134 23.172 16.309 23.1757C16.3047 23.1794 16.2992 23.1815 16.2935 23.1816Z" fill="#3175B7"/>
<path d="M16.6124 23.6465H15.1885L15.5073 25.0977H16.2936L16.6124 23.6465Z" fill="#3175B7"/>
<path opacity="0.5" d="M15.1885 23.6465L15.5073 25.0977H15.9159L15.5962 23.6465H15.1885Z" fill="#1C4377"/>
<path d="M14.3439 24.8776H14.2778V23.8693H14.3439C14.4735 23.8747 14.596 23.93 14.6857 24.0236C14.7755 24.1172 14.8257 24.2419 14.8257 24.3716C14.8257 24.5014 14.7755 24.6261 14.6857 24.7197C14.596 24.8133 14.4735 24.8686 14.3439 24.874V24.8776ZM14.409 24.0102V24.7411C14.4945 24.7253 14.5717 24.6801 14.6272 24.6134C14.6828 24.5466 14.7132 24.4625 14.7132 24.3756C14.7132 24.2887 14.6828 24.2046 14.6272 24.1379C14.5717 24.0711 14.4945 24.0259 14.409 24.0102Z" fill="#275B98"/>
<path d="M13.0829 23.6448V24.912C13.0829 25.0203 13.2 25.1083 13.3471 25.1083H14.1484C14.2937 25.1083 14.4126 25.0203 14.4126 24.912V23.6448H13.0829Z" fill="#3175B7"/>
<path d="M14.4091 24.2084H13.0829V24.1758H14.4091V24.2084Z" fill="#275B98"/>
<path d="M14.4091 24.2982H13.0829V24.2656H14.4091V24.2982Z" fill="#275B98"/>
<path d="M14.4091 24.3879H13.0829V24.3553H14.4091V24.3879Z" fill="#275B98"/>
<path d="M14.4091 24.4786H13.0829V24.4452H14.4091V24.4786Z" fill="#275B98"/>
<path d="M14.4091 24.5685H13.0829V24.5359H14.4091V24.5685Z" fill="#275B98"/>
<path opacity="0.5" d="M13.4043 24.9076V23.6448H13.0829V24.912C13.0829 25.0203 13.2 25.1083 13.3471 25.1083H13.6685C13.5179 25.1039 13.4043 25.0159 13.4043 24.9076Z" fill="#1C4377"/>
<path d="M2.47705 37.0695H42.5231" stroke="#3175B7" stroke-miterlimit="10"/>
<path d="M22.6217 -3.40454H22.376V6.25209H22.6217V-3.40454Z" fill="#1C4377"/>
<path d="M23.7145 9.1915C23.7145 9.43167 23.6433 9.66645 23.5098 9.86615C23.3764 10.0658 23.1867 10.2215 22.9648 10.3134C22.7429 10.4053 22.4988 10.4294 22.2632 10.3825C22.0277 10.3356 21.8113 10.22 21.6414 10.0502C21.4716 9.88034 21.356 9.66396 21.3091 9.42841C21.2622 9.19285 21.2863 8.94869 21.3782 8.7268C21.4701 8.50491 21.6258 8.31526 21.8255 8.18182C22.0252 8.04839 22.2599 7.97717 22.5001 7.97717C22.8222 7.97717 23.1311 8.10511 23.3588 8.33284C23.5865 8.56057 23.7145 8.86944 23.7145 9.1915Z" fill="#E56F2C"/>
<path d="M23.658 8.14627V7.12302C23.6623 6.96832 23.6355 6.81434 23.5793 6.67017C23.523 6.526 23.4384 6.39457 23.3305 6.28364C23.2226 6.17271 23.0936 6.08454 22.951 6.02433C22.8085 5.96413 22.6553 5.93311 22.5005 5.93311C22.3458 5.93311 22.1926 5.96413 22.05 6.02433C21.9074 6.08454 21.7784 6.17271 21.6705 6.28364C21.5626 6.39457 21.478 6.526 21.4217 6.67017C21.3655 6.81434 21.3387 6.96832 21.343 7.12302V8.14627H23.658Z" fill="#3175B7"/>
<path d="M23.6571 8.14624H21.3429L20.2351 9.19151V9.51381H24.7649V9.19151L23.6571 8.14624Z" fill="#275B98"/>
<path d="M24.7658 9.19153H20.2351V9.51381H24.7658V9.19153Z" fill="#3175B7"/>
<path opacity="0.5" d="M23.658 7.22949H21.3429V7.80276H23.658V7.22949Z" fill="#275B98"/>
<g style="mix-blend-mode:multiply" opacity="0.2">
<path d="M22.8964 6.0328C22.7217 5.96823 22.5338 5.94695 22.3491 5.97078C22.1643 5.99461 21.988 6.06284 21.8354 6.16963C21.6827 6.27643 21.5582 6.41861 21.4724 6.58402C21.3867 6.74943 21.3423 6.93314 21.343 7.11945V8.14622H22.1356V7.12297C22.1349 6.88509 22.2077 6.65279 22.3438 6.45772C22.48 6.26264 22.6729 6.11427 22.8964 6.0328Z" fill="#2E2E4E"/>
</g>
<g style="mix-blend-mode:multiply" opacity="0.2">
<path d="M22.1548 8.14624H21.3429L20.2351 9.19151V9.51381H21.047V9.19151L22.1548 8.14624Z" fill="#2E2E4E"/>
</g>
<path opacity="0.3" d="M42.5231 37.0615H2.47705V46.8863H42.5231V37.0615Z" fill="#94B7DB"/>
</g>
</svg>
